<?xml version="1.0" encoding="UTF-8"?><svg id="Layer_1" xmlns="http://www.w3.org/2000/svg" viewBox="0 0 160 160"><defs><style>.cls-1{letter-spacing:-.08em;}.cls-1,.cls-2{font-size:65.15px;}.cls-1,.cls-3,.cls-4,.cls-5,.cls-6,.cls-7,.cls-8{fill:#231f20;font-family:GoodDogNew, 'GoodDog New';}.cls-2{letter-spacing:-1em;}.cls-9{letter-spacing:-.07em;}.cls-10{font-size:37.78px;letter-spacing:0em;}.cls-11{letter-spacing:-.08em;}.cls-12,.cls-5,.cls-13{font-size:59.58px;}.cls-4,.cls-14,.cls-6{font-size:52.12px;}.cls-14{letter-spacing:-.03em;}.cls-5{letter-spacing:-.07em;}.cls-6{letter-spacing:.18em;}.cls-7{font-size:42px;letter-spacing:-.41em;}.cls-8{font-size:37px;letter-spacing:-.39em;}.cls-13{letter-spacing:0em;}</style></defs><text class="cls-8" transform="translate(9.64 68.48) rotate(-14.03) scale(.99 1)"><tspan x="0" y="0">K</tspan></text><text class="cls-7" transform="translate(29.06 70.44) rotate(-24) scale(.99 1)"><tspan x="0" y="0">i</tspan></text><text class="cls-1" transform="translate(32.57 66.91) rotate(-11.61) scale(.99 1)"><tspan x="0" y="0">d</tspan></text><text class="cls-3" transform="translate(57.73 82.77) scale(.99 1)"><tspan class="cls-12" x="0" y="0">s</tspan><tspan class="cls-2" x="23.41" y="37.22"> </tspan></text><text class="cls-4" transform="translate(87.22 97.26) scale(.99 1)"><tspan class="cls-9" x="0" y="0">F</tspan><tspan class="cls-11" x="21.42" y="10.05">u</tspan></text><text class="cls-6" transform="translate(135.37 101.08) rotate(-11.03) scale(.99 1)"><tspan x="0" y="0">n</tspan></text><text class="cls-5" transform="translate(53.62 129.21) rotate(8.2) scale(.99 1)"><tspan x="0" y="0">Z</tspan></text><text class="cls-3" transform="translate(79.69 130.43) scale(.99 1)"><tspan class="cls-14" x="0" y="0">o</tspan><tspan class="cls-13" x="22.78" y="11.01">n</tspan><tspan class="cls-10" x="50.12" y="-5.13">e</tspan></text></svg>