<?xml version="1.0" encoding="UTF-8"?><svg id="Layer_1" xmlns="http://www.w3.org/2000/svg" viewBox="0 0 150 150"><defs><style>.cls-1{fill:#f18241;}</style></defs><path class="cls-1" d="m11.22,55.42c2.4,1.69,4.97,3.01,7.68,4.13.85.35,1.93-.01,2.62-.54.8-.62,1.07-1.38,1.18-2.36.15-1.29.29-2.58.44-3.87.08-.68-.38-1.67-.88-2.12-.55-.5-1.35-.96-2.12-.88-1.26.14-2.51.28-3.77.42-.82.09-1.52.27-2.12.88-.52.52-.91,1.37-.88,2.12s.29,1.58.88,2.12c.55.5,1.35.96,2.12.88,1.26-.14,2.51-.28,3.77-.42l-3-3c-.15,1.29-.29,2.58-.44,3.87l3.8-2.89c-.08-.03-.17-.07-.25-.1l.72.3c-2.36-1-4.61-2.25-6.71-3.72-.61-.43-1.62-.49-2.31-.3s-1.45.73-1.79,1.38c-.37.7-.55,1.54-.3,2.31s.71,1.32,1.38,1.79h0Z"/><path class="cls-1" d="m18.26,70.59c-.14.06-.29.13-.43.19l.72-.3c-1.8.76-3.68,1.27-5.61,1.53l.8-.11c-.42.05-.83.1-1.25.13-1.5.12-2.74,1.05-2.95,2.6-.19,1.39.68,2.99,2.15,3.29,3.11.64,6.3.98,9.47.95,1.57-.01,3.07-1.37,3-3s-1.32-3.02-3-3c-1.96.02-3.92-.1-5.86-.36l.8.11c-.94-.13-1.88-.29-2.81-.48l-.8,5.89c3.1-.24,5.98-1,8.81-2.26.64-.29,1.2-1.14,1.38-1.79.2-.72.11-1.67-.3-2.31s-1.03-1.2-1.79-1.38c-.83-.19-1.54-.04-2.31.3h0Z"/><path class="cls-1" d="m25.65,92.35c-.07.09-.14.19-.21.28l.47-.61c-.43.55-.92,1.04-1.47,1.48l.61-.47c-.62.48-1.29.87-2,1.17l.72-.3c-.68.28-1.39.47-2.13.58l.8-.11c-.15.02-.31.04-.46.05l.8,5.89c2.51-.61,5.01-1.22,7.52-1.84,1.53-.37,2.58-2.18,2.1-3.69s-2.06-2.49-3.69-2.1c-2.51.61-5.01,1.22-7.52,1.84-1.45.35-2.34,1.87-2.15,3.29s1.45,2.72,2.95,2.6c1.79-.14,3.47-.6,5.04-1.49s2.79-2.11,3.82-3.55c.43-.6.49-1.63.3-2.31s-.73-1.45-1.38-1.79c-.7-.37-1.54-.55-2.31-.3s-1.32.71-1.79,1.38h0Z"/><path class="cls-1" d="m35.21,106.2l-.98,6.76c-.13.4-.14.8-.05,1.2.02.4.14.77.36,1.12.36.56.82.97,1.43,1.23,1.29.55,3.08.11,3.75-1.23.43-.85.93-1.66,1.52-2.42l-.47.61c.59-.75,1.25-1.44,1.97-2.07.56-.48.88-1.41.88-2.12s-.33-1.61-.88-2.12-1.32-.91-2.12-.88-1.49.33-2.12.88c-1.62,1.4-2.99,3.18-3.95,5.09l5.48,2.31.98-6.76c.13-.4.14-.8.05-1.2-.02-.4-.14-.77-.36-1.12-.36-.62-1.08-1.22-1.79-1.38-.77-.17-1.63-.14-2.31.3-.61.39-1.27,1.04-1.38,1.79h0Z"/><path class="cls-1" d="m53.45,116.84c.7,1.74,1.19,3.55,1.45,5.4l-.11-.8c.17,1.29.23,2.59.18,3.9-.09,2.32,2.6,3.67,4.51,2.59,1.3-.73,2.63-1.6,3.6-2.75,1.23-1.46,2.06-3.19,2.07-5.14.01-2.08-.99-3.9-2.66-5.09-.61-.43-1.34-.75-2.07-.86-.47-.07-.93-.15-1.4-.1-.88.09-1.28.23-2.1.59-.64.28-1.2,1.15-1.38,1.79-.2.72-.11,1.67.3,2.31s1.03,1.2,1.79,1.38c.84.19,1.53.04,2.31-.3l.11-.05-.72.3c.15-.06.31-.1.47-.13l-.8.11c.2-.02.4-.03.6,0l-.8-.11c.25.04.48.1.71.19l-.72-.3c.23.1.44.22.65.37l-.61-.47c.2.16.38.33.54.52l-.47-.61c.15.2.28.41.38.64l-.3-.72c.11.27.18.54.22.83l-.11-.8c.04.34.03.67,0,1.01l.11-.8c-.06.39-.16.76-.31,1.13l.3-.72c-.18.41-.4.79-.66,1.15l.47-.61c-.41.52-.88.96-1.39,1.37l.61-.47c-.57.43-1.17.8-1.79,1.15l4.51,2.59c.13-3.42-.45-6.92-1.73-10.1-.31-.75-.65-1.37-1.38-1.79-.64-.38-1.59-.54-2.31-.3s-1.43.68-1.79,1.38-.6,1.58-.3,2.31h0Z"/><path class="cls-1" d="m78.74,123.67c.38.35.75.71,1.1,1.08.19.2.37.4.54.61.08.09.15.19.23.28.26.31-.08-.07-.13-.18.21.44.62.85.88,1.27.29.46.56.93.81,1.42.11.22.22.43.32.65.05.11.1.22.15.33.16.34-.25-.63-.06-.13s.36.96.51,1.46.28.99.38,1.5c.05.24.09.48.13.71.01.07.1.68.03.14s0,.07.01.14c.09.82.28,1.52.88,2.12.52.52,1.37.91,2.12.88,1.58-.07,3.06-1.32,3-3-.12-3.52-.24-7.04-.36-10.55-.05-1.57-1.34-3.07-3-3s-3.06,1.32-3,3c.12,3.52.24,7.04.36,10.55h6c-.54-5.15-2.8-10.02-6.66-13.53-1.16-1.06-3.11-1.23-4.24,0-1.06,1.15-1.24,3.12,0,4.24h0Z"/><path class="cls-1" d="m103.64,124.01c.94,1.02,2.02,1.9,3.15,2.7.95.67,1.97,1.23,3.04,1.69.47.27.97.41,1.51.41.54,0,1.05-.14,1.51-.41.87-.51,1.55-1.55,1.49-2.59-.09-1.38-.32-2.77-.84-4.06-.3-.74-.61-1.47-1.01-2.16-.25-.42-.54-.79-.93-1.09-.57-.44-1.26-.66-1.98-.64l-1.05.03c-.78.02-1.56.32-2.12.88-.52.52-.91,1.37-.88,2.12s.29,1.58.88,2.12,1.32.9,2.12.88l1.22-.03-2.59-1.49c.31.5.58,1.01.81,1.55l-.3-.72c.35.84.59,1.72.71,2.63l-.11-.8c.03.26.06.52.08.78l4.51-2.59c-1.3-.55-2.53-1.27-3.65-2.13l.61.47c-.69-.54-1.34-1.14-1.94-1.78-.51-.55-1.38-.88-2.12-.88s-1.61.33-2.12.88-.91,1.32-.88,2.12.32,1.52.88,2.12h0Z"/><path class="cls-1" d="m127.71,105.23c.02.35,0,.7-.04,1.06l.11-.8c-.08.53-.22,1.03-.43,1.52l.3-.72c-.22.49-.49.94-.81,1.37l.47-.61c-.33.42-.7.79-1.12,1.12l.61-.47c-.39.29-.8.54-1.25.74l.72-.3c-.41.17-.83.3-1.27.37-.62.11-1.19.6-1.56,1.08-.39.51-.67,1.16-.64,1.82.06,1.41.91,2.41,2.2,2.89,1.67.62,3.34,1.24,5.01,1.86l2.42.9c1.52.57,3.14.56,4.42-.6,1.62-1.48,1.5-4.03.93-5.97-.51-1.74-1.51-3.4-2.87-4.59-.61-.53-1.3-.88-2.12-.88-.74,0-1.61.33-2.12.88-1.04,1.13-1.26,3.14,0,4.24.33.29.63.6.91.95l-.47-.61c.39.51.7,1.05.95,1.63l-.3-.72c.22.55.37,1.1.46,1.69l-.11-.8c.05.41.08.83.04,1.24l.11-.8c-.03.16-.07.31-.13.46l.3-.72c-.03.07-.07.13-.12.19l.47-.61c-.05.06-.1.11-.16.15l.61-.47-.1.06.72-.3-.14.05.8-.11c-.1.02-.2.03-.3.02l.8.11c-.68-.11-1.35-.44-1.99-.68l-2.16-.8-4.23-1.57v5.79c4.11-.72,7.34-4.94,7.11-9.07-.08-1.56-1.32-3.08-3-3-1.55.07-3.09,1.32-3,3h0Z"/><path class="cls-1" d="m132.93,89.54l-.68.88c-.27.47-.41.97-.41,1.51,0,.54.14,1.05.41,1.51.55.94,1.52,1.44,2.59,1.49,1.67.07,3.34.13,5,.2.75.03,1.6-.36,2.12-.88s.91-1.37.88-2.12-.29-1.58-.88-2.12-1.3-.85-2.12-.88c-1.67-.07-3.34-.13-5-.2l2.59,4.51.68-.88c.22-.34.34-.72.36-1.12.09-.4.07-.8-.05-1.2-.19-.7-.73-1.45-1.38-1.79-.7-.37-1.54-.55-2.31-.3l-.72.3c-.45.27-.81.63-1.08,1.08h0Z"/><path class="cls-1" d="m133.98,82.45c.86.17,1.74.29,2.62.28.31,0,.62-.02.93-.06.56-.06,1.13-.14,1.68-.26l.72-.3c.35-.19.63-.45.84-.77.19-.19.31-.41.39-.66.19-.36.27-.74.26-1.16l-.11-.8-.3-.72c-.36-.68-1.09-1.15-1.79-1.38-1.12-.36-2.24-.72-3.36-1.08-.4-.13-.8-.14-1.2-.05-.4.02-.77.14-1.12.36-.35.19-.63.45-.84.77-.27.29-.44.63-.54,1.02-.17.77-.14,1.63.3,2.31l.47.61c.37.37.82.63,1.32.77,1.12.36,2.24.72,3.36,1.08v-5.79c-.25.05-.5.1-.75.13l.8-.11c-.76.1-1.52.1-2.27,0l.8.11c-.21-.03-.41-.06-.61-.1-.4-.13-.8-.14-1.2-.05-.4.02-.77.14-1.12.36-.35.19-.63.45-.84.77-.27.29-.44.63-.54,1.02-.17.77-.14,1.63.3,2.31.41.63,1.03,1.23,1.79,1.38h0Z"/><path class="cls-1" d="m128.61,61.23c-.12,1.42.57,2.92,1.58,3.89,1.11,1.07,2.52,1.62,4.04,1.75,1.36.12,2.78-.37,3.96-1.01,1.09-.6,2.05-1.44,2.98-2.26s1.15-2.57.47-3.64-2.1-1.81-3.39-1.38c-.46.15-.93.26-1.41.33l.8-.11c-.72.09-1.45.09-2.17,0l.8.11c-.72-.1-1.42-.29-2.1-.57l.72.3c-.63-.27-1.23-.61-1.78-1.03l.61.47c-.19-.15-.37-.31-.55-.47-.58-.54-1.32-.88-2.12-.88-.74,0-1.61.33-2.12.88-1.06,1.16-1.23,3.1,0,4.24,2.88,2.67,7.17,3.76,10.94,2.51l-2.92-5.01c-.4.35-.8.7-1.22,1.03l.61-.47c-.52.4-1.07.76-1.68,1.02l.72-.3c-.4.17-.81.28-1.24.34l.8-.11c-.25.03-.48.02-.73,0l.8.11c-.32-.04-.62-.13-.91-.25l.72.3c-.26-.11-.49-.25-.72-.42l.61.47c-.19-.15-.35-.31-.5-.5l.47.61c-.12-.16-.22-.32-.3-.5l.3.72c-.06-.15-.1-.3-.13-.47l.11.8c-.02-.17-.02-.33,0-.5.06-.73-.38-1.62-.88-2.12s-1.37-.91-2.12-.88-1.58.29-2.12.88-.81,1.29-.88,2.12h0Z"/><path class="cls-1" d="m122.44,37.26c.35.32.66.66.95,1.03l-.47-.61c.46.6.83,1.24,1.13,1.93l-.3-.72c.29.7.48,1.42.59,2.16l-.11-.8c.2,1.61-.13,3.3.84,4.74.63.94,1.58,1.74,2.73,1.96,1.38.26,2.76-.09,3.73-1.14.57-.62.88-1.36,1.23-2.11.3-.64.6-1.27.9-1.91.63-1.33,1.25-2.65,1.88-3.98.47-.99.58-2.04,0-3.03-.54-.92-1.53-1.48-2.59-1.49-1.99,0-3.99-.02-5.98-.02-1.57,0-3.07,1.38-3,3s1.32,2.99,3,3c1.99,0,3.99.02,5.98.02l-2.59-4.51c-.6,1.27-1.2,2.55-1.8,3.82-.3.64-.6,1.27-.9,1.91-.26.55-.48,1.16-.84,1.66l.47-.61c-.05.06-.11.12-.17.18l.61-.47c-.06.05-.13.09-.2.13l.72-.3c-.07.03-.14.05-.22.06l.8-.11c-.07,0-.15.01-.22,0l.8.11c-.12-.02-.22-.05-.33-.09l.72.3c-.11-.05-.21-.11-.31-.18l.61.47c-.1-.08-.18-.16-.26-.26l.47.61c-.07-.1-.13-.2-.19-.31l.3.72c-.08-.19-.13-.38-.17-.59l.11.8c-.1-.74-.01-1.49-.09-2.24-.1-.95-.25-1.88-.58-2.77-.65-1.75-1.61-3.34-2.99-4.61-1.15-1.06-3.12-1.23-4.24,0-1.06,1.16-1.23,3.11,0,4.24h0Z"/><path class="cls-1" d="m111.05,13.64l-9.06,1.36c-1.24.19-2.26,1.7-2.2,2.89s.88,2.7,2.2,2.89c2.06.31,4.08.84,6.02,1.61.11.04.21.08.32.13-.37-.16-.4-.17-.09-.03.21.09.41.19.62.28.48.23.95.47,1.42.72s.93.52,1.37.81c.23.15.48.47-.03-.04-.86-.86-.56-2.69.56-3.24l4.1,4.1c1.31-2.45,2.03-5.02,2.31-7.78.15-1.57-1.49-3.07-3-3-1.76.08-2.83,1.32-3,3-.01.15-.03.3-.05.45.06-.42.06-.46.01-.12-.04.22-.08.45-.12.67-.1.48-.22.96-.36,1.43-.13.44-.26.99-.49,1.39.36-.64.01-.05-.06.12-.13.27-.27.54-.41.81-.61,1.14-.53,2.72.47,3.64s2.39,1.08,3.64.47c2.38-1.17,2.36-4.48.65-6.18-1.04-1.03-2.56-1.75-3.87-2.37-2.67-1.28-5.48-2.2-8.41-2.64v5.79l9.06-1.36c.69-.1,1.46-.8,1.79-1.38.38-.64.54-1.59.3-2.31-.55-1.7-2.02-2.35-3.69-2.1h0Z"/><path class="cls-1" d="m84.3,5.16c-.87.63-1.78,1.22-2.72,1.73-.41.22-.82.43-1.24.62-.14.06-1.05.53-.34.16-.2.1-.43.17-.64.25-.94.35-1.89.65-2.87.88-.52.13-1.05.23-1.58.32-.13.02-.91.18-.12.03-.3.06-.61.07-.92.1-1.56.14-3.08,1.28-3,3s1.32,2.93,3,3c4.31.18,8.63.1,12.93-.25,1.61-.13,3.01-1.27,3-3,0-.81,0-1.62-.01-2.43l-5.89.8c.17,1.16.34,2.32.5,3.48.1.69.81,1.46,1.38,1.79.64.38,1.59.54,2.31.3,1.71-.55,2.34-2.02,2.1-3.69-.17-1.16-.34-2.32-.5-3.48-.1-.66-.81-1.49-1.38-1.79-.61-.32-1.23-.45-1.91-.36-1.45.2-2.61,1.44-2.6,2.95,0,.81,0,1.62.01,2.43l3-3c-4.3.35-8.62.43-12.93.25v6c4.83-.44,9.51-2.04,13.45-4.91,1.26-.92,2.02-2.65,1.08-4.1-.81-1.25-2.75-2.06-4.1-1.08h0Z"/><path class="cls-1" d="m47.62,21.3l1.84-2.73c.22-.34.34-.72.36-1.12.09-.4.07-.8-.05-1.2-.09-.39-.27-.73-.54-1.02-.21-.33-.49-.58-.84-.77l-.72-.3c-.53-.14-1.06-.14-1.6,0l-.72.3c-.45.27-.81.63-1.08,1.08l-1.84,2.73c-.22.34-.34.72-.36,1.12-.09.4-.07.8.05,1.2.09.39.27.73.54,1.02.21.33.49.58.84.77l.72.3c.53.14,1.06.14,1.6,0l.72-.3c.45-.27.81-.63,1.08-1.08h0Z"/><path class="cls-1" d="m38.98,11.83l2.54,7.31c.6,1.73,2.69,2.92,4.41,1.79.81-.53,1.66-.99,2.54-1.4.3-.14-.34.12.18-.06.22-.08.43-.16.65-.23.48-.16.97-.3,1.46-.41.45-.11.9-.19,1.36-.26-.44.07-.08.01.16-.01s.46-.04.69-.05c1.02-.06,2.03-.01,3.04.1,1.48.17,2.77-1.28,2.95-2.6.2-1.49-.71-2.85-2.15-3.29-4.33-1.32-8.86-2.02-13.38-2.09-1.49-.02-2.75,1.16-2.95,2.6-.18,1.35.68,3.04,2.15,3.29,4.94.86,9.89,1.71,14.83,2.57,1.54.27,3.31-.41,3.69-2.1.33-1.46-.44-3.4-2.1-3.69-4.94-.86-9.89-1.71-14.83-2.57l-.8,5.89c1.04.02,2.08.06,3.11.15.52.04,1.03.1,1.55.16l.31.04c-.23-.03-.24-.03-.02,0,.26.04.51.08.77.12,2.05.33,4.08.81,6.07,1.42l.8-5.89c-4.54-.53-9.3.65-13.12,3.15l4.41,1.79-2.54-7.31c-.51-1.48-2.08-2.62-3.69-2.1-1.46.47-2.65,2.1-2.1,3.69h0Z"/><path class="cls-1" d="m30.45,28.66l-2.56,3.22c-.41.51-.62,1.22-.23,1.82.34.53,1.05.91,1.69.69,2.27-.8,4.32-2.13,5.91-3.95.4-.46.56-1.05.31-1.64-.22-.52-.78-.96-1.37-.92-.3.02-.61.02-.91,0-.05,0-.29-.04-.07,0s-.02,0-.07-.02c-.14-.03-.28-.06-.42-.09-.16-.04-.31-.09-.46-.14-.07-.02-.13-.05-.2-.07-.21-.08.03-.02.06.03-.04-.07-.31-.15-.39-.19-.14-.08-.28-.16-.42-.24-.12-.08-.24-.16-.36-.24-.17-.11.2.17.05.04-.05-.05-.11-.09-.17-.14-.23-.2-.45-.41-.65-.64-.02-.02-.12-.17-.14-.16.04,0,.17.24.04.05-.08-.12-.16-.23-.24-.36-.08-.14-.16-.28-.24-.42-.03-.06-.06-.13-.09-.19-.09-.18.13.34,0,.01-.27-.7-.86-1.18-1.65-1.07-.67.09-1.39.73-1.3,1.47.28,2.42.55,4.83.83,7.25.09.78.63,1.54,1.5,1.5.74-.03,1.6-.67,1.5-1.5-.28-2.42-.55-4.83-.83-7.25l-2.95.4c1.18,3.03,4.23,5.2,7.55,4.99l-1.06-2.56c-.34.4-.71.77-1.1,1.12-.18.16-.37.31-.56.47.26-.22-.02.01-.08.06-.11.08-.23.16-.35.24-.42.28-.85.54-1.3.77-.22.11-.44.21-.66.31.32-.15-.01,0-.09.03-.15.06-.3.11-.45.17l1.46,2.51,2.56-3.22c.49-.61.64-1.53,0-2.12-.54-.5-1.6-.66-2.12,0h0Z"/><path class="cls-1" d="m59.13,52.03c-1.15,2.41-2.45,4.75-3.91,6.99-.73,1.12-1.51,2.21-2.3,3.28-.49.67.17-.19-.15.2-.21.26-.42.52-.63.78-.42.52-.85,1.03-1.29,1.53-1.71,1.97-3.55,3.82-5.5,5.55-.5.44-1.01.88-1.52,1.3-.26.21-.52.42-.78.63-.99.81.39-.28-.2.16-1.12.84-2.26,1.66-3.44,2.43-1.8,1.18-2.46,3.01-2.07,5.08,1.06,5.63,5.35,10.03,10.63,11.94,2.28.82,4.93-.94,5.54-3.14.55-2.04,1.19-4.05,1.92-6.03.32-.87.66-1.72,1.01-2.58-.38.94.26-.58.33-.74.21-.48.43-.96.66-1.44,1.69-3.58,3.67-7.01,5.91-10.27.6-.87,1.22-1.72,1.85-2.57.57-.77-.39.48.26-.34.33-.41.66-.82.99-1.23,1.26-1.53,2.58-3,3.96-4.42s2.81-2.78,4.3-4.08c.79-.69,1.6-1.37,2.43-2.02.21-.16.41-.33.62-.49-.39.3-.38.3.03-.02.43-.31.85-.63,1.28-.94l-5.45-7.07c-9.41,11.52-18.78,23.25-24.4,37.16-1.52,3.75-2.68,7.63-3.44,11.61-.35,1.82.1,3.56,1.61,4.73,1.33,1.03,3.53,1.38,5,.35,7.06-4.92,11.68-12.25,16.56-19.17,5.28-7.48,10.56-14.95,15.85-22.43,2.98-4.21,5.95-8.43,8.93-12.64l-6.16,1.61c4.33,2.37,8.99,2.07,13.74,2.35.23.01.45.03.67.05.51.06.45.04-.17-.04,0-.03.98.17,1.02.18.45.09.9.21,1.34.34.25.08,1.58.68.52.14.3.15.6.29.89.46.19.11.37.23.56.35-.47-.39-.52-.42-.15-.11.16.14.31.29.46.44.32.37.29.31-.1-.17.23.09.74,1.58.28.37l4.34-5.7c-8.77.14-17.54,1.3-26.04,3.43l2.39,8.68c1.13-.33,2.27-.62,3.43-.84.27-.05.54-.1.82-.15.09-.01.94-.14.43-.07s.35-.04.43-.05c.28-.03.55-.05.83-.08,2.37-.19,4.69-.09,7.05.13.72.07-.67-.13.04,0,.27.05.55.09.82.14.55.1,1.09.21,1.63.33,1.15.26,2.28.57,3.4.95.53.17,1.05.36,1.56.56.26.1.52.2.77.31-.43-.18-.25-.11.07.04,1.13.54,2.23,1.1,3.31,1.74l1.07-8.22c-1.44.23-2.87.45-4.31.66-.32.05-.64.09-.96.14-1.54.22.4-.05-.49.07-.72.1-1.44.19-2.17.27-2.89.34-5.78.62-8.69.78s-5.63.21-8.45.12c-1.45-.04-2.89-.13-4.33-.25-.72-.06-1.44-.13-2.16-.22-.32-.04-.64-.07-.96-.12.72.1-.73-.12-.72-.11l-2.39,8.68c12.28,1.72,24.56,3.45,36.84,5.17v-8.68c-13.08,2.06-26.16,4.13-39.25,6.19l5.54,5.54c.03-.22.08-.44.14-.65-.27.56-.3.62-.08.18.26-.41.21-.38-.15.11.14-.17.29-.33.45-.48.54-.63-.66.29.15-.11.19-.12.39-.23.59-.33-.56.22-.6.24-.13.06.17-.05.81-.36,1-.26-.63.07-.69.08-.18.03.26-.01.52-.02.77,0,.55.05.58.04.1-.03.29.05.57.1.85.17.42.1.84.22,1.26.35.15.05,1.71.63.98.33.41.17.81.36,1.21.55,1.07.5,2.12,1.02,3.2,1.49,2.37,1.03,4.7,1.85,7.3,2.02,2.2.15,4.39-.38,6.48-1.02.98-.3,1.95-.62,2.95-.83.2-.04.39-.08.59-.11-.54.07-.55.08-.01.04.26-.01.53,0,.79.01-.52-.09-.54-.08-.04.02.38.12.95.53.28.06.2.14,1.36,1.03.6.32.32.3.61.61.9.92.21.25.16.19-.14-.18.14.2.27.41.39.63.13.23.25.47.37.71-.17-.41-.17-.36.02.14.12.42.24.83.34,1.26.06.28.11.57.16.86-.07-.47-.08-.44-.02.11,0,.58.05,1.16.04,1.75l5.7-4.34c-15.45-4.09-31.61-5.56-47.54-4.23-2.25.19-4.11,1.57-4.42,3.9-.28,2.12,1.03,4.43,3.22,4.94,9.5,2.18,19.01,4.36,28.51,6.54,4.67,1.07,9.34,2.14,14.01,3.21l3.38.78c-.07-.02.96.24.97.22-.03.06-1.08-.76-.88-.57-.26-.24-.35-.53-.53-.81-.13-.35-.16-.41-.09-.18.09.34.07.16-.05-.56-.03.04,0,.34,0,.4-.02.6.11-.98.03-.38,0,.04-.14.38-.13.4.06.06.34-.96.08-.31-.19.47.02,0,.02,0l.17-.24c-.28.26-.27.26.03.01.5-.47.06-.11,0-.04.37-.14.41-.16.11-.06-.13.04-.26.08-.4.1-.58.21.58.07-.04,0-.2-.03-.43,0-.63,0-.28,0-.57-.03-.85-.06.11.01.62.14.13,0-1.1-.3-2.24-.5-3.35-.77-2.43-.59-4.85-1.18-7.28-1.77-4.69-1.14-9.38-2.29-14.08-3.43s-9.55-2.33-14.32-3.49c-2.25-.55-4.73-1.46-7.07-1.35-3.34.16-6.08,2.37-6.31,5.81-.18,2.67,1.79,4.97,4.07,6.06s4.76,1.45,7.15,2c4.7,1.1,9.41,2.15,14.13,3.16,4.64.99,9.29,1.93,13.95,2.83,2.3.44,4.62.82,6.92,1.3.78.16,1.54.38,2.29.64s-.73-.33.28.16c.05.02.41.2.41.25-.44-.37-.54-.45-.29-.23.08.06.15.13.22.21.27.4-.17-.34-.22-.34-.04,0,.33.46.3.52-.03.07-.28-1.1-.28-1.02,0,.1,0,.71.04.12s-.05,0-.06.1l.17-.41-.18.32c0-.05.68-.78,0-.04-.3.33-.31.23.04.02-.22.13-.42.26-.65.38.13-.07.59-.15.1-.07-.21.03-1.51.3-.77.22-1.2.12-2.42.05-3.62-.02-4.79-.26-9.59-.53-14.38-.79s-9.75-.54-14.63-.81c-2.4-.13-4.79-.26-7.19-.4-1.13-.06-2.27-.18-3.4-.22-.53-.02.04.02.14.03-.28-.04-.56-.09-.83-.15-.26-.06-1.63-.54-.91-.2-.19-.09-.38-.19-.56-.29-.16-.09-.65-.59-.27-.16s-.01-.05-.05-.11c-.5-.7.02,0,.07.1-.1-.2-.22-.41-.33-.6.02.04.29.76.16.29s.01.36.01.39c-.01-1-.25.59-.07.07.2-.6-.38.73-.07.16.23-.44-.15.21-.18.25-.6.59-.33.26-.1.09.1-.08.6-.24.09-.07-.58.2.15.01.29-.04.54-.21-.37.1-.34.03.03-.06.68,0,.78,0l.43.03c-.4-.05-.44-.05-.12.01,2.06.73,4.26,1.29,6.36,1.9s4.41,1.21,6.64,1.72c9.3,2.13,18.88,3.25,28.41,3.25,2.29,0,4.57-.07,6.86-.19s4.61-1.98,4.5-4.5c-.1-2.33-1.98-4.64-4.5-4.5-5.04.27-10.1.25-15.14-.09-2.44-.17-4.87-.41-7.3-.72-.79-.1.57.08-.21-.03-.31-.04-.62-.09-.94-.14-.55-.08-1.09-.17-1.64-.26-1.32-.22-2.64-.45-3.96-.71-4.87-.96-9.66-2.25-14.38-3.76-2.6-.83-5.34-1.39-8.04-.68s-5.21,2.78-6.03,5.55c-1.68,5.63,2.86,10.75,8.15,11.91,2.61.57,5.32.6,7.98.74s5.29.29,7.94.44c5.21.29,10.42.57,15.62.86,2.56.14,5.13.28,7.69.42s5.05.45,7.54.16c2.92-.35,5.78-1.35,7.68-3.71s2.84-5.6,1.57-8.59c-1.96-4.65-6.8-5.81-11.3-6.65-10.22-1.9-20.39-4.02-30.52-6.36-2.41-.56-4.81-1.18-7.23-1.72-.87-.19.16.11.17.11.04,0-.57-.25-.57-.31,0-.11.74.85.21.13.74,1.02,1.5,2.37.48,3.69,0,0-2.58,1.66-1.53,1.35-.04.01-.85.29-.42.1.26-.11.78.24.21,0-.64-.28.33.11.51.15,5.1,1.22,10.19,2.48,15.29,3.73s10.19,2.48,15.29,3.73c2.59.63,5.18,1.26,7.77,1.89s5.21,1.43,7.87,1.4c3.1-.04,5.93-1.24,7.77-3.77,1.36-1.88,1.91-4.43,1.36-6.69-.28-1.17-.88-2.37-1.75-3.22-1.17-1.15-2.49-1.61-4.06-1.97l-7.73-1.77c-10.23-2.35-20.46-4.69-30.68-7.04-2.5-.57-4.99-1.14-7.49-1.72l-1.2,8.84c7.69-.64,15.42-.65,23.11,0,1.9.16,3.8.37,5.69.61.32.04.32.04-.01,0,.24.03.47.07.71.1.47.07.94.14,1.42.21.94.14,1.88.3,2.82.46,3.84.67,7.64,1.52,11.41,2.52,2.84.75,5.68-1.4,5.7-4.34.03-4.44-1.09-9.14-4.42-12.3-3.52-3.34-8.07-3.85-12.6-2.55-.79.23-1.57.49-2.36.72-.46.13-.92.26-1.39.36-.2.04-.4.08-.6.12.43-.1.43-.02-.01-.01-.29,0-.58,0-.87.01-.04,0-.76-.03-.26,0s-.21-.04-.26-.05c-.21-.04-.42-.09-.64-.14-.5-.12-.98-.27-1.47-.44-.21-.07-.41-.16-.62-.23-.69-.22.52.24-.15-.05-4.02-1.76-7.99-4.15-12.54-3.99s-9.74,3.16-10.64,8.07c-.66,3.59,2.02,6.09,5.54,5.54,13.08-2.06,26.16-4.13,39.25-6.19,1.85-.29,3.38-2.54,3.3-4.34s-1.32-4.06-3.3-4.34l-36.84-5.17c-2.32-.33-4.95.56-5.54,3.14-.49,2.15.66,5.15,3.14,5.54,12.72,1.96,25.37.66,38.01-1.34,1.72-.27,3.01-2.17,3.22-3.74.24-1.77-.58-3.56-2.15-4.48-9.41-5.56-21.03-7.03-31.52-3.93-2.26.67-3.9,3.19-3.14,5.54s3.09,3.76,5.54,3.14c8.17-2.05,15.17-2.97,23.65-3.11,2.68-.04,5.41-2.88,4.34-5.7-1.78-4.67-5.92-7.45-10.78-8.24-2.35-.39-4.68-.42-7.05-.49-.57-.02-1.13-.04-1.69-.08-.35-.02-.7-.06-1.05-.09-.69-.06.63.17-.04-.02-.53-.15-1.07-.22-1.6-.39-.08-.02-.86-.31-.43-.13.48.2-.59-.32-.58-.32-2.27-1.24-4.72-.42-6.16,1.61-5.14,7.27-10.28,14.54-15.41,21.82s-9.79,14.1-14.87,21c-.13.17-.25.34-.38.51.02-.03-.7.93-.42.56s-.15.19-.17.21c-.18.22-.35.44-.53.66-.66.82-1.35,1.62-2.06,2.39s-1.45,1.51-2.23,2.22c-.41.38-.84.73-1.27,1.09.59-.5-.61.44-.77.55,2.2,1.69,4.41,3.39,6.61,5.08.42-2.2.96-4.37,1.62-6.51.33-1.06.69-2.12,1.07-3.16.19-.52.39-1.04.6-1.56.1-.26.21-.52.31-.77-.19.43-.18.41.03-.08,1.77-4.04,3.87-7.92,6.2-11.66s4.96-7.43,7.66-10.99c.34-.45.69-.91,1.04-1.36-.51.65.51-.66.61-.77.7-.89,1.41-1.79,2.12-2.67,1.41-1.77,2.84-3.52,4.27-5.27s1.81-4.02.35-5.91c-1.26-1.63-3.98-2.48-5.81-1.16-14.38,10.36-25.01,25.39-29.68,42.53l5.54-3.14c-.48-.18-.45-.16.08.06-.22-.1-.43-.2-.64-.32-.42-.23-.8-.5-1.21-.75.84.52-.02-.03-.19-.19-.35-.32-.66-.68-.99-1.03-.32-.39-.3-.37.05.07-.14-.19-.27-.39-.39-.59-.19-.3-.34-.62-.52-.93-.21-.46-.21-.43.02.1-.09-.22-.16-.45-.23-.67-.14-.45-.25-.92-.33-1.38l-2.07,5.08c9.81-6.46,17.88-15.48,22.95-26.1,1.01-2.12.66-4.96-1.61-6.16-2.01-1.06-5.07-.65-6.16,1.61h0Z"/><path class="cls-1" d="m85.81,28.74c-14.95.8-29.57,5.17-42.45,12.82-1.93,1.15-2.71,3.57-1.84,5.62.8,1.9,3.2,3.41,5.31,2.61,8.35-3.17,16.73-6.32,25.4-8.51,2.13-.54,4.27-1.01,6.43-1.41,1.07-.2,2.15-.38,3.23-.54.23-.03.46-.07.69-.1-.42.06-.36.05.19-.02.54-.06,1.08-.12,1.62-.18,4.42-.44,8.87-.46,13.29,0l-1.2-8.84c-10.45,2.49-20.9,4.99-31.35,7.48-9.62,2.3-20.2,3.76-27.04,11.66-3.37,3.89-5.75,8.39-8.01,12.97-.86,1.74-.83,4.05.7,5.45,1.44,1.32,3.72,1.8,5.45.7,4.14-2.63,7.64-6.04,11.08-9.51,1.59-1.6,3.18-3.21,4.86-4.72.46-.41.92-.81,1.39-1.21.21-.18,1.31-1.04.69-.57.96-.72,1.95-1.4,2.97-2.03.96-.59,1.94-1.15,2.95-1.66.5-.26,1.01-.5,1.52-.74.26-.12.52-.23.77-.35.44-.21-.47.17.29-.12,2.25-.88,4.53-1.63,6.87-2.22,1.1-.28,2.21-.52,3.33-.73.56-.11,1.12-.21,1.68-.3.28-.05.56-.09.84-.13.07-.01,1.45-.18.49-.07,2.72-.31,5.45-.53,8.19-.61,6.18-.19,12.36.16,18.52.52l-1.2-8.84c-10.28,3.29-20.55,6.58-30.83,9.87-4.97,1.59-9.97,3.11-14.9,4.82s-9.71,3.64-13.99,6.5c-4.5,3-8.49,6.86-11.03,11.68-1.05,2-.66,4.4,1.16,5.81,1.66,1.28,4.44,1.35,5.91-.35,5.46-6.31,10.95-12.67,17.4-18,.38-.31.76-.62,1.15-.93,1.08-.86-.68.5.43-.33.79-.59,1.59-1.17,2.4-1.72,1.57-1.07,3.19-2.07,4.86-2.97.8-.43,1.61-.85,2.44-1.24.51-.24,1.02-.47,1.53-.69-.72.3.3-.11.48-.18,1.83-.71,3.71-1.28,5.62-1.72l-3.47-8.22c-14.39,9.89-28.88,19.88-41.35,32.19-2.77,2.74-.71,7.7,3.18,7.68,6.81-.02,13.36-2.71,18.73-6.79s9.77-9.31,14.03-14.62c1.47-1.83,1.92-4.6,0-6.36-1.63-1.5-4.79-1.96-6.36,0-3.84,4.8-7.75,9.41-12.45,13.39-.6.51.81-.58-.27.2-.29.21-.57.41-.86.62-.58.4-1.17.79-1.78,1.16-.66.4-1.34.78-2.03,1.14-.31.16-.63.32-.95.46-.14.06-1.02.44-.28.14-1.29.53-2.63.96-4,1.27-.41.09-.82.17-1.23.25-.85.16.27.01-.25.04-.77.04-1.53.11-2.3.11l3.18,7.68c3.04-3,6.2-5.87,9.46-8.64,1.63-1.38,3.28-2.73,4.96-4.06.63-.5,1.75-1.38,2.07-1.63.37-.29,1.58-1.21,2.28-1.73,6.78-5.11,13.77-9.92,20.77-14.72,1.86-1.28,2.75-3.46,1.84-5.62s-3.1-3.12-5.31-2.61c-17.08,3.99-29.27,17.37-40.28,30.1l7.07,5.45c.49-.94,1.04-1.85,1.65-2.71.11-.16.23-.32.35-.48.4-.56-.44.48.03-.03.4-.44.77-.91,1.18-1.34.68-.73,1.41-1.41,2.16-2.06.35-.31.71-.6,1.08-.89-.62.5-.08.07.04-.02.27-.19.54-.39.82-.58,1.87-1.29,3.85-2.4,5.9-3.37.49-.23.98-.45,1.47-.67.83-.37.39-.17.2-.09.28-.12.57-.23.86-.35,1.15-.46,2.31-.89,3.47-1.3,9.65-3.39,19.49-6.3,29.22-9.42,5.65-1.81,11.3-3.62,16.94-5.42,2.15-.69,3.53-2.68,3.22-4.94s-2.16-3.77-4.42-3.9c-11.14-.63-22.38-1.16-33.37,1.18-5.01,1.07-9.92,2.79-14.43,5.21s-8.31,5.64-11.89,9.17c-1.85,1.83-3.64,3.71-5.53,5.49-.99.94-2,1.85-3.05,2.71-.21.17-.42.34-.63.51.61-.48-.21.15-.39.28-.55.4-1.12.77-1.69,1.14l6.16,6.16c.93-1.89,1.87-3.77,2.9-5.61.45-.8.92-1.6,1.41-2.37.28-.44.57-.88.86-1.31.15-.21.3-.43.45-.64.06-.09.71-.93.35-.48-.27.34.49-.59.63-.74.34-.39.68-.77,1.04-1.14s.73-.72,1.11-1.07c.14-.13.29-.25.44-.38.28-.24.66-.51.15-.14.85-.61,1.72-1.17,2.65-1.65.26-.13.51-.26.78-.39.09-.05.91-.42.45-.22-.41.18.24-.1.27-.1.41-.16.81-.31,1.23-.45,4.54-1.57,9.33-2.47,13.99-3.58,5.06-1.21,10.13-2.42,15.19-3.63,5.71-1.36,11.41-2.72,17.12-4.09,2.18-.52,3.51-2.81,3.22-4.94-.32-2.36-2.16-3.67-4.42-3.9-18.43-1.92-36.32,4.64-53.25,11.07l3.47,8.22c6.27-3.72,11.47-6.03,18.27-8.1,3.24-.99,6.54-1.78,9.87-2.38.87-.16,1.74-.3,2.61-.43.04,0,1.45-.2.55-.08.44-.06.88-.11,1.32-.16,1.76-.2,3.52-.34,5.28-.43,2.35-.13,4.61-1.98,4.5-4.5-.1-2.33-1.98-4.64-4.5-4.5h0Z"/><path class="cls-1" d="m46.54,43.06c5.3-2.26,10.1-4.28,15.68-6.59,2.17-.9,3.96-3.02,3.14-5.54-.73-2.26-3.13-3.88-5.54-3.14l-10.72,3.3c-2.25.69-3.91,3.17-3.14,5.54s3.09,3.77,5.54,3.14c5.06-1.29,9.78-3.63,14.52-5.76.56-.25,1.12-.5,1.68-.74.14-.06.8-.33.05-.02.25-.1.5-.21.75-.31,1.18-.47,2.36-.91,3.57-1.29,1.06-.34,2.14-.63,3.24-.85.32-.06.65-.11.96-.18.74-.17-1.08.08.16-.03.65-.06,1.3-.11,1.96-.13.53-.01,1.06,0,1.58.03.27.02.53.04.8.06,1.39.12-.4-.15.38.06,1.4.36,2.81.63,4.2,1.09,2.59.85,5.14,1.85,7.68,2.87.84.34.36.15.18.07.28.12.56.24.83.36.69.3,1.38.62,2.05.95,1.22.59,2.41,1.23,3.57,1.93.58.35,1.15.72,1.71,1.1.28.19.55.39.83.59.13.09.68.52.03.01.93.72,1.82,1.51,2.66,2.33s1.65,1.68,2.42,2.58c.34.4.67.8,1,1.22-.53-.68,0,.01.13.19.23.32.46.64.68.97,1.35,1.96,2.53,4.03,3.54,6.18.25.54.5,1.08.73,1.63-.35-.82.19.49.29.76.47,1.23.89,2.49,1.27,3.75.79,2.68,1.38,5.43,1.8,8.19.05.31.09.62.13.92-.09-.69,0,.09.02.19.08.7.16,1.39.22,2.09.14,1.48.23,2.95.29,4.43.11,2.81.1,5.62.01,8.43-.04,1.36-.1,2.72-.19,4.08-.04.58-.08,1.17-.14,1.75-.03.29-.06.58-.09.87-.12,1.08.1-.43-.08.54-.24,1.28-.5,2.55-.92,3.79-.09.27-.2.54-.29.81.24-.68.01-.01-.05.12-.3.61-.62,1.21-.98,1.79-.17.26-.35.51-.52.76-.28.43.48-.51-.09.1-.46.5-.9,1-1.4,1.46-.18.17-.36.33-.55.49-.14.12-.28.24-.43.35.38-.29.44-.33.18-.14-.52.34-1.02.71-1.55,1.02-.59.35-1.19.68-1.81.97-.23.11-.45.21-.68.31.72-.33.01-.01-.32.11-1.18.44-2.39.78-3.61,1.05-.64.14-1.29.26-1.94.35.66-.09-.14,0-.22.01-.48.04-.95.08-1.42.11-1.59.09-3.18.09-4.76.02s-3.19-.22-4.77-.4c-.4-.04-.79-.09-1.19-.14-.24-.03-.48-.06-.71-.09-.52-.07-.63-.08-.35-.05.47.06-.5-.07-.59-.08-.55-.08-1.11-.16-1.66-.23-2.32-.33-4.95.57-5.54,3.14-.48,2.13.65,5.18,3.14,5.54,6.67.95,13.28,1.84,20.01.92,5.43-.74,10.61-2.91,14.75-6.53,4.76-4.15,6.67-10.01,7.39-16.1s.68-12.02.26-17.94c-.85-11.87-4.13-23.43-11.59-32.87-3.47-4.38-7.88-7.97-12.83-10.54-2.89-1.5-5.92-2.72-8.96-3.89-2.69-1.03-5.4-2.1-8.22-2.74-6.49-1.46-12.86-.23-18.93,2.25-3.01,1.23-5.95,2.62-8.92,3.93-.25.11-.5.22-.75.33-.07.03-1.3.54-.43.19-.69.28-1.39.56-2.09.83-1.45.54-2.93,1.02-4.43,1.4l2.39,8.68,10.72-3.3-2.39-8.68c-5.95,2.47-11.9,4.97-17.83,7.5-2.17.93-2.82,4.29-1.61,6.16,1.46,2.26,3.83,2.61,6.16,1.61h0Z"/><path class="cls-1" d="m44.65,44.57c2.35,0,4.61-2.07,4.5-4.5s-1.98-4.5-4.5-4.5c-2.35,0-4.61,2.07-4.5,4.5s1.98,4.5,4.5,4.5h0Z"/><path class="cls-1" d="m41.85,95.85c.34.78.77,1.5,1.28,2.18.73.96,1.45,1.89,2.38,2.66,1.85,1.55,3.91,2.75,6.28,3.34,1.15.29,2.43.15,3.47-.45.93-.55,1.82-1.62,2.07-2.69.26-1.15.21-2.44-.45-3.47s-1.54-1.78-2.69-2.07c-.52-.13-1.04-.3-1.54-.5l1.07.45c-.86-.37-1.67-.84-2.42-1.41l.91.7c-.74-.58-1.4-1.24-1.98-1.98l.7.91c-.52-.69-.97-1.43-1.31-2.22-.28-.52-.67-.95-1.16-1.26-.43-.4-.94-.67-1.53-.81-1.08-.3-2.51-.16-3.47.45s-1.81,1.54-2.07,2.69l-.16,1.2c0,.81.21,1.57.61,2.27h0Z"/><path class="cls-1" d="m50.06,44.67l-15.31,6.36,5.08,6.61c.79-1.2,1.61-2.37,2.46-3.53.22-.3.45-.61.68-.91-.29.38,0,0,.13-.16.47-.59.94-1.18,1.43-1.76,1.84-2.2,3.81-4.29,5.87-6.29,1.3-1.26,1.62-3.29.93-4.92-.75-1.78-2.27-2.55-4.11-2.77-4.55-.52-8.98,2.18-11.86,5.51s-4.83,7.13-6.11,11.22c-2.39,7.66-2.04,16.32.62,23.85,5.6,15.88,20.1,26.49,35.67,31.5,9.93,3.19,20.47,4.28,30.85,4.63,2.36.08,4.61-2.13,4.5-4.5-.11-2.51-1.98-4.42-4.5-4.5-4.17-.14-8.34-.4-12.49-.88-.23-.03-.46-.05-.69-.08-.1-.01-1.05-.13-.55-.07.44.06-.31-.04-.32-.04-.23-.03-.46-.07-.69-.1-1.07-.16-2.13-.33-3.2-.53-2.04-.37-4.08-.81-6.09-1.32s-4-1.11-5.96-1.79c-.95-.33-1.88-.68-2.81-1.05-.27-.11-1.18-.49-.43-.16-.47-.2-.95-.41-1.42-.63-3.18-1.46-6.23-3.19-9.09-5.2-.37-.26-.74-.53-1.1-.8-.16-.12-.31-.23-.46-.35.05.04.54.43.15.11-.7-.57-1.4-1.14-2.08-1.73-1.3-1.15-2.54-2.36-3.7-3.65-.56-.62-1.1-1.25-1.62-1.9-.12-.15-.24-.3-.36-.45.11.13.51.68,0,0-.26-.36-.53-.72-.78-1.09-.99-1.42-1.89-2.91-2.68-4.44-.18-.34-.35-.69-.52-1.04-.07-.14-.58-1.3-.41-.88s-.29-.75-.35-.9c-.16-.42-.31-.85-.45-1.28-.55-1.66-.97-3.36-1.27-5.09-.07-.38-.13-.77-.18-1.15.14,1.02-.02-.3-.04-.54-.08-.9-.13-1.8-.14-2.71-.01-.84,0-1.67.06-2.51.02-.38.05-.77.09-1.15.02-.26.06-.51.08-.77-.04.41-.08.54,0,.05.31-1.89.76-3.75,1.4-5.56.09-.24.18-.48.27-.72.15-.42.15-.37-.02.01.18-.41.36-.81.56-1.21.42-.86.89-1.7,1.4-2.51.27-.44.56-.86.86-1.28.04-.05.42-.56.11-.16-.36.46.32-.36.39-.45.3-.34.62-.67.95-.99.14-.14.28-.27.43-.4,0,0,.9-.7.45-.38-.42.29.12-.07.17-.1.22-.13.43-.27.65-.4s.45-.23.67-.35c-.34.19-.5.17-.04.04.18-.05.35-.11.53-.15.12-.03.89-.14.3-.08-.62.06.17.02.32.02.32,0,.62.03.94.07l-3.18-7.68c-4.51,4.36-8.52,9.23-11.98,14.46-.99,1.5-.69,3.65.35,5s3.09,2.29,4.73,1.61c5.1-2.12,10.2-4.24,15.31-6.36,2.16-.9,3.96-3.02,3.14-5.54-.67-2.08-3.21-4.11-5.54-3.14h0Z"/><path d="m75.44,19.7c-10.37,2.26-20.79,5.44-29.74,11.32-7.83,5.15-14.4,12.44-17.71,21.29-3.83,10.23-1.79,21.1,2.41,30.87s9.85,17.53,18.92,22.37c4.53,2.42,9.44,4.06,14.38,5.44,5.57,1.56,11.21,2.95,16.92,3.9,9.82,1.63,20.52,2.26,29.99-1.4,3.98-1.54,7.77-3.8,10.54-7.1,3.23-3.82,4.64-8.49,5.19-13.39.61-5.43.6-11.02.57-16.48s-.42-11.43-1.74-16.97c-4.66-19.54-20.91-34.95-40.67-38.57-2.48-.46-4.99-.73-7.51-.84-1.93-.08-1.93,2.92,0,3,19.02.77,36.32,12.94,43.25,30.71,3.84,9.85,3.84,20.4,3.54,30.81-.14,4.89-.14,9.95-1.86,14.6-1.43,3.86-4.23,6.98-7.71,9.13-7.68,4.76-17.24,5.22-26,4.46-5.5-.48-10.94-1.54-16.3-2.83-4.88-1.18-9.77-2.45-14.49-4.17-4.47-1.63-8.88-3.77-12.54-6.85s-6.45-6.83-8.75-10.92c-4.82-8.58-8.55-19.09-6.85-29.04,1.49-8.75,6.72-16.39,13.41-22.06,7.5-6.35,16.89-10.09,26.28-12.63,2.41-.65,4.84-1.23,7.27-1.76,1.89-.41,1.09-3.3-.8-2.89h0Z"/><path d="m63.91,17.69c-.67-4.59-5.45-6.75-9.52-7.41-3.64-.59-9.69-.59-11.21-4.86-.44-1.25-2-1.45-2.74-.36-4.11,6.05-3.2,14.74,1.96,19.88.6.59,1.52.54,2.12,0,4.63-4.16,10.84-6.18,17.03-5.71,1.93.15,1.92-2.85,0-3-6.98-.53-13.95,1.92-19.15,6.59h2.12c-4.26-4.25-4.85-11.29-1.49-16.24l-2.74-.36c1.56,4.4,6.1,5.95,10.34,6.54,3.74.52,9.7.97,10.39,5.73.12.81,1.13,1.24,1.85,1.05.86-.23,1.16-1.05,1.05-1.85h0Z"/><path d="m70.13,16.93c6.65-.81,13.35-.38,19.83,1.34,1.87.49,2.67-2.4.8-2.89-6.72-1.78-13.73-2.28-20.63-1.44-.81.1-1.49.62-1.5,1.5,0,.74.7,1.6,1.5,1.5h0Z"/><path d="m71.37,14.2c.29-1.71,1.85-2.43,3.36-2.9,1.76-.55,3.51-1.01,5.21-1.75,3.29-1.44,6.26-3.57,8.72-6.19l-2.51-.66c.62,2.22,1.23,4.44,1.85,6.67.36,1.31,1.81,4.46.27,5.48s-.1,3.66,1.51,2.59c2.44-1.62,2.33-4.44,1.64-6.97-.78-2.86-1.58-5.71-2.37-8.56-.29-1.06-1.73-1.49-2.51-.66-2.58,2.75-5.75,4.92-9.31,6.19-3.3,1.17-8.03,1.76-8.74,5.98-.32,1.89,2.57,2.7,2.89.8h0Z"/><path d="m97.65,21.1c5.37.59,10.29,3.5,13.6,7.72.5.64,1.6.52,2.12,0,.63-.63.5-1.48,0-2.12-3.83-4.88-9.59-7.92-15.72-8.6-.81-.09-1.5.75-1.5,1.5,0,.88.69,1.41,1.5,1.5h0Z"/><path d="m98.03,19.97c2.41-2.62,5.76-4.35,9.34-4.58,3.96-.26,7.99,1.36,11.83-.22l-1.85-1.05c1.32,4.99-1.23,10.43-5.82,12.72-1.73.86-.21,3.45,1.51,2.59,5.78-2.89,8.84-9.89,7.2-16.11-.19-.71-1.1-1.36-1.85-1.05-1.99.82-4.06.65-6.15.41s-4.16-.44-6.27-.14c-3.85.54-7.44,2.45-10.07,5.31-1.31,1.42.81,3.55,2.12,2.12h0Z"/><path d="m118.44,36.24c2.65,3.19,4.71,6.88,6.04,10.8.26.77,1.03,1.27,1.85,1.05.75-.21,1.31-1.07,1.05-1.85-1.51-4.44-3.81-8.52-6.81-12.13-.52-.62-1.59-.54-2.12,0-.62.62-.52,1.5,0,2.12h0Z"/><path d="m121.35,35.75c1.88-2.41,5.42-1.37,7.99-1.12,2.92.29,6.19-.32,7.81-3.04l-2.74-.36c.62,3.36.2,6.91-1.13,10.05-.63,1.48-1.47,2.96-2.53,4.17-.76.87-2.34,2.23-3.45,1.12-1.37-1.37-3.49.75-2.12,2.12,1.63,1.62,4.2,1.59,6.05.34s3.21-3.33,4.21-5.31c2.07-4.12,2.7-8.77,1.87-13.29-.24-1.32-2.12-1.4-2.74-.36-1.47,2.47-5.26,1.53-7.54,1.27-2.73-.32-5.96-.06-7.79,2.28-.5.64-.62,1.5,0,2.12.52.52,1.62.64,2.12,0h0Z"/><path d="m126.48,56.49l.88,6.91c.15,1.15.23,2.26,1.01,3.19.63.75,1.61,1.13,2.53,1.37,3.97,1.04,8.49.16,11.07-3.21,1.37-1.79,1.92-3.98,1.56-6.2-.12-.76-1.15-1.31-1.85-1.05-4.15,1.53-8.89.15-11.61-3.36-.5-.64-1.6-.52-2.12,0-.63.63-.5,1.48,0,2.12,3.3,4.26,9.49,5.99,14.53,4.13l-1.85-1.05c.25,1.55-.51,3.16-1.6,4.23-1.27,1.26-3.07,1.8-4.83,1.81-.93,0-1.84-.12-2.74-.38-.28-.08-.65-.16-.85-.39-.18-.22-.19-.66-.23-.94-.32-2.39-.61-4.79-.91-7.19-.1-.8-.62-1.5-1.5-1.5-.73,0-1.6.69-1.5,1.5h0Z"/><path d="m129.51,73.91c.22,2.8.02,5.59-.62,8.32-.22.95.44,1.89,1.45,1.9,5,.04,10.38-.12,14.35-3.58.98-.85,2.12-2.17,1.39-3.53-.78-1.45-2.24-.97-3.5-.67-1.78.42-3.64.2-5.35-.44-1.91-.71-3.56-2.07-4.6-3.81s-3.58-.15-2.59,1.51c1.46,2.44,3.74,4.21,6.39,5.19,1.27.47,2.64.72,3.99.75.73.02,1.45-.05,2.18-.16.29-.05.59-.1.87-.17.16-.04.32-.08.48-.13l.19-.06c.33-.07.26-.11-.22-.12l-.54-.54-.03-.02v-.8c-.06.23-.05.26.02.07-.1.11-.21.22-.31.33-.21.21-.44.42-.67.61-.37.3-.78.56-1.2.8-.96.55-1.99.92-3.06,1.19-2.54.64-5.2.59-7.8.57l1.45,1.9c.7-2.99.96-6.06.73-9.12-.06-.81-.65-1.5-1.5-1.5-.76,0-1.56.69-1.5,1.5h0Z"/><path d="m37.78,27.81c-5.58,2.39-10.25,6.66-13.19,11.96l2.74,1.16c1.26-8.09,2.32-17.09-3.42-23.81-1.09-1.28-3.4.46-2.36,1.82,2.37,3.08,5.48,5.27,8.67,7.41,1.83,1.23,3.64,2.47,5.48,3.69,1.42.93,3.16,1.46,4.53.16s-.72-3.45-2.12-2.12c.36-.03.35-.08-.02-.13l-.19-.08c-.3-.13-.6-.36-.87-.54-.73-.49-1.46-.98-2.19-1.47-1.36-.91-2.71-1.82-4.07-2.74-2.41-1.63-4.85-3.36-6.64-5.69l-2.36,1.82c4.91,5.76,3.71,14.03,2.64,20.89-.24,1.57,1.85,2.76,2.74,1.16,2.72-4.9,6.96-8.68,12.11-10.89.75-.32.9-1.41.54-2.05-.44-.77-1.31-.86-2.05-.54h0Z"/><path d="m23.01,48.85c-1.74,3.93-2.68,8.12-2.69,12.42l2.56-1.06c-2.25-1.89-4.83-3.31-7.68-4.09-2.18-.6-4.99-.85-5.51-3.54-.05-.25-.04-.47-.05-.73,0-.28.22-.28,0-.18.35-.17.91.06,1.26.12,1.5.29,3.02.47,4.54.52,3.11.11,6.24-.31,9.22-1.2,1.85-.55,1.06-3.45-.8-2.89-2.55.76-5.16,1.15-7.83,1.11-1.31-.02-2.61-.12-3.9-.35s-2.59-.63-3.8-.01c-2.3,1.18-1.91,4.32-.82,6.2,1.31,2.26,3.57,3.05,5.98,3.62,2.67.63,5.15,1.78,7.26,3.54.96.81,2.56.32,2.56-1.06,0-3.75.76-7.48,2.28-10.91.33-.74.22-1.61-.54-2.05-.64-.37-1.72-.21-2.05.54h0Z"/><path d="m20.72,67.1c-.68,5.1.26,10.29,2.54,14.9l2.36-1.82c-3.02-2.48-6.75-2.16-10.41-2.32-1.56-.07-3.35-.26-4.58-1.32-.84-.72-1.73-2.07-1.2-3.21l-1.69.69c3.27,1.16,6.93.92,10.03-.63,2.82-1.41,4.9-3.88,6.08-6.77.31-.75-.33-1.65-1.05-1.85-.86-.24-1.54.3-1.85,1.05-2,4.86-7.58,7.03-12.42,5.31-.57-.2-1.44.12-1.69.69-1.78,3.91,1.4,7.68,5.15,8.63,2.07.52,4.22.41,6.33.47,1.76.05,3.76.22,5.18,1.38,1.31,1.07,3.14-.24,2.36-1.82-2.06-4.15-2.74-8.81-2.13-13.38.11-.8-.77-1.5-1.5-1.5-.9,0-1.39.69-1.5,1.5h0Z"/><path d="m26.48,88.2c.66,4.19,3.36,7.93,7.07,9.96v-2.59c-2.54,1.35-5.3,2.26-8.15,2.68-1.45.22-2.93.29-4.39.25-.7-.02-1.4-.07-2.1-.14-.21-.02-.51-.12-.72-.1-.4-.15-.36.02.1.49-.06.15-.06.18-.01.1.2-.02.53-.24.73-.31.28-.1.57-.21.85-.32.59-.24,1.17-.51,1.72-.83,1.13-.65,2.19-1.47,3.1-2.4,1.78-1.82,3.08-4.08,3.72-6.55.49-1.87-2.41-2.67-2.89-.8-.54,2.06-1.6,3.91-3.13,5.41-.76.74-1.6,1.37-2.54,1.88-1,.55-2.21.76-3.15,1.39-1.05.7-1.66,1.99-1.25,3.23.46,1.41,1.92,1.62,3.18,1.77,2.68.32,5.38.21,8.03-.25,2.95-.5,5.79-1.51,8.43-2.91.99-.52.97-2.06,0-2.59-3.1-1.69-5.14-4.69-5.69-8.17-.13-.8-1.13-1.25-1.85-1.05-.85.23-1.17,1.04-1.05,1.85h0Z"/><path d="m35.86,103.89c2.69,2.97,5.84,5.5,9.32,7.5l1.16-2.74c-2.71-.6-5.34.64-7.01,2.77-.8,1.02-1.37,2.16-1.83,3.37-.25.65-.4,1.33-.66,1.97-.03.06-.43.77-.47.65.12,0,.22.04.3.14-.07-.04-.11-.11-.1-.22-.04-.23-.12-.48-.18-.71-.18-.79-.33-1.59-.45-2.39-.2-1.37-.29-2.75-.31-4.14-.02-1.72-.27-4.79,1.68-5.63.75-.32.91-1.42.54-2.05-.45-.77-1.3-.86-2.05-.54-2.03.87-2.78,3.11-3.03,5.13-.32,2.55-.11,5.19.24,7.72.3,2.1.58,5.72,3.46,5.67s3.19-3.16,4.07-5.17,2.62-4.21,5.01-3.68c1.62.36,2.68-1.87,1.16-2.74-3.27-1.88-6.18-4.23-8.71-7.03-1.3-1.43-3.41.69-2.12,2.12h0Z"/><path d="m52.48,113.06c4.99,2.35,10.2,4.18,15.58,5.43l-.36-2.74c-3.12,1.47-5.14,4.36-5.85,7.68-.31,1.46-.57,2.92-2.1,3.54-1.7.69-3.61.17-5.31-.23l.66,2.51c2.53-2.17.88-5.57.26-8.19-.72-3.04-.9-6.16-.62-9.27.07-.81-.74-1.5-1.5-1.5-.87,0-1.43.69-1.5,1.5-.25,2.85-.1,5.71.41,8.53.24,1.33.6,2.62.99,3.92.28.94.71,2.15-.15,2.89s-.39,2.26.66,2.51c2.05.49,4.17.94,6.26.43,1.83-.44,3.38-1.62,4.13-3.36.7-1.62.7-3.46,1.56-5.02s2.07-2.6,3.61-3.33c1.17-.55.85-2.46-.36-2.74-5.12-1.19-10.1-2.89-14.86-5.13-.73-.34-1.62-.2-2.05.54-.38.65-.2,1.71.54,2.05h0Z"/><path d="m78.14,119.84c4.31,1.03,8.73,1.58,13.17,1.64l-1.3-2.26c-1.65,2.74-2.63,5.83-2.86,9.02-.06.78-.06,1.56-.02,2.34.04.67.18,1.38.09,2.05-.03.23-.09.43-.2.63-.06.1-.15.17-.26.21.1-.01.12-.03.07-.05-.03-.01-.27-.61-.32-.76-.44-1.31-.85-2.56-1.63-3.73s-1.7-2.19-2.61-3.23c-1.68-1.92-3.72-4.44-2.71-7.14.28-.76-.32-1.64-1.05-1.85-.84-.23-1.56.29-1.85,1.05-.98,2.61.02,5.47,1.54,7.66s3.5,3.77,4.69,6.05c1,1.93,1.14,5.06,4.07,4.96,1.44-.05,2.62-1.22,3.04-2.54s.1-2.8.09-4.18c-.02-3.17.86-6.26,2.5-8.97.6-.99-.18-2.24-1.3-2.26-4.18-.05-8.31-.56-12.37-1.53-1.88-.45-2.68,2.45-.8,2.89h0Z"/><path d="m102.35,120.68c3.72-.53,7.39-1.41,10.94-2.63l-1.69-2.2c-1.43,1.89-1.38,4.37-1.03,6.6.3,1.94,1.2,4.3.39,6.23l1.69-.69c-4.16-1.73-9.26-3.98-10.14-8.95-.14-.8-1.12-1.25-1.85-1.05-.84.23-1.19,1.04-1.05,1.85,1.08,6.08,7.13,8.92,12.23,11.05.54.23,1.46-.14,1.69-.69,1.02-2.42.64-4.82.14-7.32-.37-1.86-.71-3.91.5-5.51.79-1.04-.52-2.61-1.69-2.2-3.56,1.22-7.22,2.11-10.94,2.63-.8.11-1.24,1.14-1.05,1.85.24.86,1.04,1.16,1.85,1.05h0Z"/><path d="m126.74,102.29c-.62,3.56-3.02,6.72-6.44,8-1.57.59-1.35,2.84.4,2.95,2.59.16,4.78,1.82,6.81,3.27,2.2,1.58,4.6,3.39,7.34,3.79,1.66.24,3.25-.32,4.1-1.82.69-1.2.8-2.74.77-4.1-.05-2.84-.96-5.67-2.51-8.05-1.79-2.73-4.32-4.8-7.36-5.99-.76-.29-1.65.32-1.85,1.05-.23.85.29,1.55,1.05,1.85,4.18,1.62,7.29,5.93,7.63,10.39.08,1,.17,2.32-.28,3.26s-1.76.33-2.46.06c-2.14-.84-3.98-2.37-5.85-3.68-2.24-1.57-4.63-2.87-7.41-3.03l.4,2.95c4.36-1.64,7.73-5.46,8.54-10.1.14-.8-.21-1.62-1.05-1.85-.72-.2-1.71.25-1.85,1.05h0Z"/><path d="m130.09,88.56c-.11,2.41-.53,4.76-1.25,7.06-.32,1.04.77,2.24,1.85,1.85,1.43-.52,2.92-.89,4.44-1.01,1.68-.13,3.31.1,4.98.2,2.77.16,6.4-.93,6.85-4.15.11-.77-.18-1.65-1.05-1.85-4.52-.99-8.93-2.45-13.12-4.42-.73-.34-1.62-.21-2.05.54-.38.65-.2,1.71.54,2.05,4.43,2.08,9.06,3.67,13.84,4.72l-1.05-1.85c-.36,2.57-3.95,1.95-5.72,1.79-2.86-.26-5.75.09-8.45,1.08l1.85,1.85c.79-2.55,1.23-5.19,1.35-7.86.09-1.93-2.91-1.93-3,0h0Z"/></svg>