<?xml version="1.0" encoding="UTF-8"?><svg id="Layer_1" xmlns="http://www.w3.org/2000/svg" viewBox="0 0 32 32"><defs><style>.cls-1{fill:#fff;}.cls-2{fill:#231f20;}</style></defs><g><circle class="cls-1" cx="16.07" cy="16.42" r="13.28"/><path class="cls-2" d="m27.84,16.42c-.06,4.92-3.14,9.49-7.85,11.11s-9.86.17-13.02-3.62-3.53-9.36-.99-13.58,7.59-6.47,12.4-5.47c5.49,1.14,9.39,5.97,9.46,11.55.02,1.93,3.02,1.93,3,0-.08-6.21-3.92-11.72-9.75-13.89s-12.46-.28-16.35,4.4S.17,18.66,3.39,24.02s9.4,8.01,15.46,6.91c6.94-1.26,11.9-7.56,11.99-14.51.02-1.93-2.98-1.93-3,0Z"/></g><path class="cls-2" d="m6.52,13.11c.38.82.64,1.72.74,2.62.14,1.27,1.55,2.01,2.56,1.06.88-.83,1.93-1.32,3.12-1.56,1.63-.32,1.29-3.13-.4-2.95l-2.04.22,1.5,1.5c-.2-2,1.78-3.24,3.48-3.55,1.56-.28,3.47.19,4.69,1.34,2.62,2.46,1.89,7.26-1.46,8.69-1.74.74-4.02.6-5.54-.62-.63-.51-1.51-.62-2.12,0-.53.53-.63,1.61,0,2.12,4.55,3.66,11.82,1.81,13.4-4.02.74-2.73.13-5.76-1.76-7.89-1.74-1.96-4.57-2.92-7.14-2.64-3.26.35-6.91,2.9-6.55,6.57.07.74.63,1.59,1.5,1.5l2.04-.22-.4-2.95c-1.68.33-3.2,1.16-4.44,2.33l2.56,1.06c-.16-1.46-.53-2.8-1.15-4.14-.34-.73-1.4-.92-2.05-.54-.75.44-.88,1.32-.54,2.05h0Z"/></svg>