<?xml version="1.0" encoding="UTF-8"?><svg id="Layer_1" xmlns="http://www.w3.org/2000/svg" viewBox="0 0 150 150"><defs><style>.cls-1{fill:#ee4694;}.cls-2{fill:#506cb3;}</style></defs><path class="cls-1" d="M74.13,117.7c9.35,3.22,19.02,5.3,28.86,6.33l-.8-5.89c-4.43,.62-9.12-.21-13.11-2.18-1.45-.72-3.25-.39-4.1,1.08-.78,1.33-.38,3.38,1.08,4.1,5.58,2.76,11.58,3.65,17.73,2.79,1.46-.2,2.35-1.98,2.15-3.29-.24-1.57-1.42-2.44-2.95-2.6-9.29-.97-18.44-3.07-27.26-6.12-1.53-.53-3.28,.6-3.69,2.1-.45,1.65,.56,3.16,2.1,3.69h0Z"/><path class="cls-1" d="M71.5,108.16c.18,.81,.02-.58,.05,.24,.01,.27,0,.52,0,.79,0,.63,.15-.42-.03,.25-.06,.21-.1,.43-.16,.64-.04,.13-.08,.25-.12,.38,.12-.27,.14-.3,.05-.11-.1,.2-.19,.39-.31,.59-.13,.23-.27,.45-.43,.66,.38-.5-.17,.14-.22,.19-.05,.05-.69,.58-.19,.21-.21,.16-.45,.28-.67,.42-.36,.24,.04,.02-.24,.13-.29,.11-.59,.2-.9,.27-.25,.06-.51,.11-.77,.16-.65,.14,.16,0-.45,.07s-1.27,.11-1.91,.17c-2.63,.22-5.21,.68-7.45,2.17-2.05,1.37-3.8,3.27-4.77,5.55-.49,1.15-.58,2.28,.23,3.33,.72,.93,1.99,1.42,3.15,1.08,1.63-.48,3.26-.96,4.89-1.44,.81-.24,1.63-.48,2.44-.72,.35-.1,.7-.21,1.05-.31,.23-.07,.47-.14,.7-.21,1.28-.25,.64-.96-1.91-2.11l.41-1.51-.09,.2,5.59,1.51c0-.63,0-1.26,.01-1.88,.01-1.57-1.39-3.07-3-3s-2.99,1.32-3,3c0,.63,0,1.26-.01,1.88,0,1.27,.93,2.6,2.2,2.89s2.81-.15,3.39-1.38c.89-1.88,.45-3.91-1.33-5.08-1.58-1.04-3.43-.43-5.07,.06-2.62,.77-5.24,1.54-7.86,2.32l3.39,4.41c.22-.52,.47-1.02,.77-1.49,.06-.1,.49-.71,.18-.3,.2-.26,.42-.5,.65-.73,.2-.2,.4-.39,.61-.58,.16-.13,.14-.12-.06,.03,.11-.08,.23-.17,.34-.24,.46-.32,.95-.6,1.46-.83,.19-.09,.17-.08-.07,.03,.13-.05,.26-.1,.4-.14,.33-.11,.67-.2,1.02-.27,.09-.02,.95-.17,.46-.1,.32-.05,.64-.07,.95-.1,1.43-.13,2.86-.22,4.28-.48,5.7-1.04,9.35-6.55,8.12-12.2-.34-1.54-2.21-2.58-3.69-2.1-1.61,.52-2.45,2.05-2.1,3.69h0Z"/><path class="cls-1" d="M97.81,103.54c-8.19-.4-16.38-.8-24.56-1.19-1.62-.08-3,1.44-3,3,0,1.69,1.38,2.92,3,3,8.19,.4,16.38,.8,24.56,1.19,1.62,.08,3-1.44,3-3,0-1.69-1.38-2.92-3-3h0Z"/><path class="cls-1" d="M73.75,104.61c14.95,.34,29.75,2.78,44.03,7.21,3.7,1.15,5.28-4.64,1.6-5.79-14.77-4.59-30.17-7.08-45.63-7.43-3.86-.09-3.86,5.91,0,6h0Z"/><path class="cls-1" d="M40.28,113.96l.25-.25c.29-.27,.5-.59,.62-.97,.19-.36,.27-.74,.26-1.16,.02-.41-.07-.8-.26-1.16-.12-.37-.33-.69-.62-.97l-.61-.47c-.47-.27-.97-.41-1.51-.41l-.8,.11c-.51,.14-.95,.4-1.32,.77l-.25,.25c-.29,.27-.5,.59-.62,.97-.19,.36-.27,.74-.26,1.16-.02,.41,.07,.8,.26,1.16,.12,.37,.33,.69,.62,.97l.61,.47c.47,.27,.97,.41,1.51,.41l.8-.11c.51-.14,.95-.4,1.32-.77h0Z"/><path class="cls-1" d="M69.07,99.35c-3.81,.61-7.63,1.22-11.44,1.83-3.02,.48-6.06,.96-8.99,1.87s-5.93,2.36-8.33,4.49c-1.22,1.08-2.31,2.36-2.75,3.96-.52,1.89,.16,3.97,1.92,4.92s3.71,.04,4.41-1.79c-.13,.35,.46-.63,.2-.32,.33-.4,.33-.38,.61-.57,.82-.57,1.39-.79,2.2-1.06,2.29-.78,4.67-1.31,7.01-1.94,5.21-1.41,10.43-2.81,15.64-4.22,3.72-1,2.14-6.79-1.6-5.79-5.85,1.58-11.69,3.16-17.54,4.73-4.83,1.3-10.32,2.36-12.31,7.58l4.41-1.79,.87,1.61c-.06,.29-.05,.33,0,.1,.09-.29-.05,.05-.14,.16,.37-.42,.75-.82,1.17-1.2,.76-.7,1.59-1.22,2.56-1.74,2.01-1.08,4.31-1.7,6.6-2.2,5.63-1.22,11.41-1.92,17.1-2.83,1.6-.26,2.49-2.25,2.1-3.69-.47-1.7-2.08-2.35-3.69-2.1h0Z"/><path class="cls-1" d="M66.38,98.08c.71,.98,1.3,2.04,1.77,3.15l-.3-.72c.35,.84,.63,1.7,.83,2.58,.17,.72,.75,1.43,1.38,1.79s1.59,.54,2.31,.3c1.6-.52,2.48-2.05,2.1-3.69-.53-2.29-1.53-4.54-2.9-6.45-.47-.65-.99-1.16-1.79-1.38-.72-.2-1.67-.11-2.31,.3s-1.2,1.03-1.38,1.79-.16,1.67,.3,2.31h0Z"/><path class="cls-1" d="M67.22,85.3c-.77,1.29-1.77,2.25-3.07,3l3.64,.47c-2.86-2.51-6.67-3-10.08-1.3-2.8,1.4-1.28,5.48,1.51,5.59,1.21,.05,2.42,.09,3.64,.14v-6c-6.59,.03-13.19,.07-19.78,.1-3.21,.02-6.43,.04-9.64,.05-2.57,.01-5.27,.13-7.54-1.26-1.92-1.17-4.57,.33-4.51,2.59,.1,3.99,3.13,7.14,6.88,8.18,4.12,1.14,8.56-.13,12.69-.63,8.7-1.05,17.48-1.34,26.24-.92,1.62,.08,3-1.43,3-3,0-1.69-1.38-2.92-3-3-7.78-.38-15.58-.19-23.33,.6-3.75,.38-7.5,1.22-11.26,1.38-1.35,.06-2.8-.08-3.78-.66-.4-.24-.83-.57-1.1-.95-.32-.45-.32-.6-.33-1l-4.51,2.59c2.74,1.67,5.92,2.04,9.07,2.08,3.38,.04,6.77-.03,10.15-.05,6.92-.04,13.85-.07,20.77-.11,3.87-.02,3.85-5.85,0-6-1.21-.05-2.42-.09-3.64-.14l1.51,5.59c.8-.4,2.06-.29,2.81,.36,1.02,.89,2.42,1.17,3.64,.47,2.17-1.25,3.94-3.01,5.22-5.15,1.98-3.32-3.2-6.35-5.18-3.03h0Z"/><path class="cls-1" d="M51.51,77.04c4.48-.84,8.82,2.38,12.14,4.95,4.19,3.25,8.25,6.26,13.48,7.6s10.63,1.44,15.94,1.81c5.6,.4,11.2,.75,16.79,1.21s11.57,1.32,16.99,3.54c1.5,.61,3.3-.67,3.69-2.1,.47-1.72-.59-3.07-2.1-3.69-5.12-2.1-10.59-2.98-16.07-3.53s-11.21-.86-16.81-1.26c-5.3-.38-10.78-.41-15.98-1.57-2.39-.54-4.61-1.37-6.7-2.65s-4.1-2.93-6.1-4.47c-4.9-3.77-10.48-6.81-16.85-5.62-1.59,.3-2.5,2.22-2.1,3.69,.46,1.67,2.09,2.39,3.69,2.1h0Z"/><path class="cls-1" d="M23.62,74.02c7.74,.83,15.53,1.06,23.31,.68,1.62-.08,3-1.32,3-3,0-1.56-1.37-3.08-3-3-7.78,.38-15.57,.15-23.31-.68-1.61-.17-3,1.5-3,3,0,1.77,1.38,2.83,3,3h0Z"/><path class="cls-1" d="M64.43,60.82c-3.05,.69-6.12,1.72-8.03,4.37s-1.83,6.12,.23,8.65l3.64-4.71c-3.83-2.56-8.61-1.82-12.83-.87l2.31,5.48c2.04-1.11,4.08-1.56,6.46-1.48l-.8-5.89c-3.3,1.32-6.55,2.02-9.98,2.09-1.57,.03-3.07,1.36-3,3s1.32,3.04,3,3c3.96-.09,7.9-.83,11.58-2.31,1.4-.56,2.36-1.7,2.15-3.29-.2-1.49-1.44-2.55-2.95-2.6-3.32-.11-6.57,.72-9.48,2.3-1.3,.71-1.81,2.43-1.23,3.75,.62,1.4,2.04,2.07,3.54,1.74,.82-.19,1.65-.36,2.48-.5,.21-.04,.42-.07,.63-.1-.27,.04-.22,.04,.15,0,.42-.03,.84-.07,1.26-.08s.82,.01,1.24,.03c.37,.04,.41,.04,.11,0,.2,.03,.39,.07,.59,.12,.88,.21,.89,.22,1.75,.79,1.23,.82,3.03,.36,3.87-.77,.95-1.27,.74-2.75-.23-3.94,.19,.23,.22,.14,.04-.02,.12,.3,.15,.34,.08,.13-.04-.17-.05-.16-.02,.03,.12,.45-.06-.25,0-.23,.01-.22,0-.17-.05,.16l.05-.26c.05-.17,.09-.34,.15-.51-.13,.4-.04,.09,.08-.13,.03-.05,.33-.5,.14-.25-.21,.28,.29-.28,.29-.29,.08-.08,.37-.29,.12-.11,.17-.12,.35-.23,.52-.33,0,0,.68-.35,.48-.26-.19,.09,.31-.12,.37-.14,.94-.34,1.92-.57,2.89-.79,1.58-.36,2.51-2.18,2.1-3.69-.45-1.62-2.11-2.46-3.69-2.1h0Z"/><path class="cls-1" d="M81.45,71.96c4.63,.99,9.39,1.27,14.09,.71,.82-.1,1.51-.27,2.12-.88,.52-.52,.91-1.37,.88-2.12-.07-1.46-1.33-3.2-3-3-2.17,.26-4.36,.36-6.54,.26-1.07-.05-2.21-.06-3.27-.27,.53,.11,.06,0-.2-.03-.25-.04-.5-.08-.75-.12-.58-.1-1.16-.21-1.73-.33-1.53-.33-3.32,.45-3.69,2.1-.34,1.51,.45,3.34,2.1,3.69h0Z"/><path class="cls-1" d="M76.76,55.67c5.12-.12,10.2,.38,15.18,1.61,2.46,.6,4.88,1.36,7.24,2.27,1.03,.4,2.08,.79,3.04,1.34,.35,.2,.73,.44,.88,.71-.09-.17-.05,.09,0,.09,.18,.03-.35,.57,.12-.46l4.1-1.08c-.53-.36-1.06-.71-1.6-1.07-1.09-.74-2.74-.43-3.64,.47-1,1-1.04,2.42-.47,3.64-.11-.27-.11-.23-.01,.11-.06-.32-.08-.3-.07,.06,.03-.32,0-.3-.08,.06,.11-.26,.09-.24-.08,.08,.19-.2,.16-.17-.07,.09-.26,.24-.28,.27-.07,.08-.31,.17-.34,.19-.07,.05,.33,0,.3,0-.07,0-3.03,.07-4.01,3.99-1.51,5.59,4.19,2.69,10.49,.13,11.51-4.78l-4.41,1.79c2.36,1.38,4.72,2.76,7.08,4.14,3.34,1.95,6.36-3.23,3.03-5.18-2.36-1.38-4.72-2.76-7.08-4.14-1.58-.93-4.01-.13-4.41,1.79-.02,.12-.27,.84-.06,.38-.04,.08-.51,.7-.19,.33-.04,.05-.67,.57-.27,.29-.02,.01-.81,.45-.32,.24-.27,.12-.56,.19-.84,.25,.5-.11-.2,0-.36,0-.52,0,.06,.07-.19-.05-.2-.06-.19-.05,.04,.05-.18-.09-.34-.18-.5-.3l-1.51,5.59c4.86-.12,7.71-5.3,5.71-9.56l-4.1,4.1c.53,.36,1.06,.71,1.6,1.07,1.25,.84,3.46,.33,4.1-1.08,3.45-7.52-6.97-10.5-12.2-12.04-6.28-1.85-12.89-2.7-19.44-2.54-3.85,.09-3.87,6.09,0,6h0Z"/><path class="cls-1" d="M73,51.48c-3.47-.19-7.62,.86-8.36,4.83s3.49,7.24,6.98,5.1l-4.51-2.59c-.31,2.7,1.23,5.34,3.52,6.69,2.48,1.47,5.84-1.56,4.1-4.1-2.11-3.09-5.99-4.7-9.63-3.47-2.51,.85-2.9,4.02-.72,5.48,3.7,2.47,7.86,4.26,12.2,5.24v-5.79c-1.49,.34-2.97,.56-4.5,.64s-2.77,1.08-2.95,2.6c-.16,1.38,.66,3,2.15,3.29,10.05,1.97,20.28,3.1,30.53,3.31,4.99,.1,9.98-.02,14.96-.35s10.34-.81,15.23-2.5l-3.69-3.69c-.92,2.5-.97,5.17-.36,7.74l3.69-3.69c-3.76-.62-7.5-1.62-11.01-3.11-1.49-.63-3.21-.45-4.1,1.08-.74,1.26-.42,3.47,1.08,4.1,4.02,1.71,8.13,3,12.45,3.72,2.25,.37,4.26-1.31,3.69-3.69-.38-1.58-.19-3.04,.36-4.55,.77-2.1-1.62-4.41-3.69-3.69-4.56,1.58-9.33,2.01-14.12,2.32s-9.65,.42-14.48,.32c-9.72-.2-19.39-1.23-28.93-3.1l-.8,5.89c2.05-.11,4.09-.39,6.09-.85,2.85-.66,2.87-5.14,0-5.79-3.89-.88-7.45-2.42-10.77-4.64l-.72,5.48c1.06-.36,2.27-.15,2.85,.71l4.1-4.1c-.65-.39-.64-.68-.55-1.51,.27-2.3-2.73-3.68-4.51-2.59,.7-.43,1.69-.06,1.89,.72-.25-1,.17,.98-.12,.75-.13-.1,.97-.27,.85-.26,.58-.07,1.2,0,1.79,.04,1.62,.09,3-1.44,3-3,0-1.7-1.38-2.91-3-3h0Z"/><path class="cls-1" d="M84.52,44.18c-3.56,.39-6.98,1.48-9.99,3.46-1.08,.71-1.8,2.09-1.38,3.39s1.52,2.1,2.89,2.2c3.51,.25,7.01,.5,10.52,.75l-.8-5.89c-1.77,.56-3.57,.96-5.41,1.22l.8-.11c-1.71,.23-3.42,.33-5.14,.29-1.57-.03-3.07,1.4-3,3s1.32,2.96,3,3c3.83,.08,7.7-.47,11.35-1.62,1.43-.45,2.35-1.79,2.15-3.29s-1.44-2.49-2.95-2.6c-3.51-.25-7.01-.5-10.52-.75l1.51,5.59c.58-.38,1.18-.74,1.8-1.06,.3-.15,.6-.29,.9-.43,.59-.28-.66,.26-.05,.02,.17-.07,.34-.13,.51-.2,1.31-.49,2.67-.82,4.05-1.01l-.8,.11c.18-.02,.36-.04,.54-.06,.82-.09,1.52-.28,2.12-.88,.52-.52,.91-1.37,.88-2.12-.07-1.48-1.33-3.18-3-3h0Z"/><path class="cls-1" d="M87,46.18c2.19-1.16,4.97-.45,7.29,.03,3.33,.69,6.66,1.26,10.03,1.71,6.65,.88,13.35,1.23,20.05,1.03,3.85-.11,3.87-6.11,0-6-6.91,.2-13.85-.13-20.69-1.13-3.31-.48-6.55-1.23-9.84-1.8s-6.73-.68-9.86,.98c-1.43,.76-1.87,2.75-1.08,4.1,.85,1.45,2.67,1.84,4.1,1.08h0Z"/><path class="cls-1" d="M99.56,27.94l.5,.25c.34,.22,.72,.34,1.12,.36,.4,.09,.8,.07,1.2-.05,.39-.09,.73-.27,1.02-.54,.33-.21,.58-.49,.77-.84l.3-.72c.14-.53,.14-1.06,0-1.6l-.3-.72c-.27-.45-.63-.81-1.08-1.08l-.5-.25c-.34-.22-.72-.34-1.12-.36-.4-.09-.8-.07-1.2,.05-.39,.09-.73,.27-1.02,.54-.33,.21-.58,.49-.77,.84l-.3,.72c-.14,.53-.14,1.06,0,1.6l.3,.72c.27,.45,.63,.81,1.08,1.08h0Z"/><path class="cls-1" d="M68.48,30.93l36.78-.69c2.77-.05,4.35-4.28,1.51-5.59-.98-.45-1.96-.91-2.94-1.36-1.47-.68-3.23-.42-4.1,1.08-.76,1.29-.4,3.42,1.08,4.1,.98,.45,1.96,.91,2.94,1.36l1.51-5.59-36.78,.69c-3.86,.07-3.87,6.07,0,6h0Z"/><path class="cls-1" d="M55.26,26.07c7.36-1.24,14.62-3,21.73-5.26,1.54-.49,2.54-2.08,2.1-3.69-.42-1.52-2.14-2.59-3.69-2.1-7.11,2.27-14.37,4.02-21.73,5.26-1.6,.27-2.49,2.24-2.1,3.69,.47,1.69,2.09,2.37,3.69,2.1h0Z"/><path class="cls-1" d="M59.75,36.27c3.38-1.43,6.2-3.86,8.37-6.8,.85-1.15,1.45-2.58,1.05-4.03-.38-1.37-1.39-2.32-2.66-2.86-1.83-.78-3.66-1.56-5.49-2.34-.77-.33-1.46-.54-2.31-.3-.7,.19-1.45,.73-1.79,1.38-.37,.7-.55,1.54-.3,2.31,.22,.69,.68,1.5,1.38,1.79,1.57,.67,3.14,1.34,4.7,2,.37,.16,.75,.31,1.12,.48,.13,.06,.28,.17,.41,.22-.58-.21-.94-1.24-.94-1.71-.02-.24,.03-.45,.14-.65,.12-.25,.12-.26,0-.03-.1,.15-.19,.3-.29,.45s-.21,.28-.31,.42c.48-.71,.17-.22,.04-.06-.44,.54-.91,1.05-1.41,1.53-.25,.24-.51,.47-.77,.7-.13,.11-.27,.22-.4,.33-.43,.36,.55-.39,.06-.05-1.14,.81-2.33,1.51-3.62,2.05-.64,.27-1.2,1.16-1.38,1.79-.2,.72-.11,1.67,.3,2.31s1.03,1.2,1.79,1.38c.84,.19,1.52,.03,2.31-.3h0Z"/><path class="cls-1" d="M36.47,41.41l21.73-3.55-3.69-2.1c-.08-.55-.18,.1-.08-.09,.11-.21-.37,.26,.08,.08l2.31,5.48c-.58,.38-.85-.51-.45,.11,.28,.44,.62,.88,.92,1.32,.77,1.12,1.63,2.12,2.69,2.96,2.12,1.68,4.65,2.71,7.33,3.1,6.26,.9,12.03-1.56,17.61-4.09,1.48-.67,1.83-2.81,1.08-4.1-.89-1.52-2.62-1.75-4.1-1.08-4.72,2.13-10.11,4.49-15.14,3.04-1.97-.57-3.49-1.65-4.62-3.36-.84-1.29-1.77-2.55-3.19-3.24-1.64-.8-3.6-.88-5.16,.15-1.24,.82-1.85,2.34-1.23,3.75,.54,1.24,2.14,2.31,3.54,1.74,3.15-1.28,4.7-4.01,4.19-7.37-.26-1.72-2.25-2.33-3.69-2.1-7.24,1.18-14.49,2.36-21.73,3.55-1.6,.26-2.49,2.25-2.1,3.69,.47,1.7,2.09,2.36,3.69,2.1h0Z"/><path class="cls-1" d="M27,54.63c12.33,3.49,25.16,5.18,37.97,5.01,3.86-.05,3.87-6.05,0-6-12.31,.17-24.53-1.44-36.38-4.79-3.72-1.05-5.31,4.74-1.6,5.79h0Z"/><path class="cls-2" d="M73.32,25.95c7.08-1.03,14.28-1.33,21.42-1.01,1.62,.07,3-1.43,3-3,0-1.75-1.38-2.85-3-3-3.71-.34-7.36-1.12-10.92-2.22-1.55-.48-3.27,.57-3.69,2.1-.44,1.61,.54,3.21,2.1,3.69,4.08,1.26,8.27,2.04,12.52,2.43v-6c-7.71-.35-15.39,.11-23.02,1.22-1.6,.23-2.49,2.27-2.1,3.69,.47,1.72,2.08,2.33,3.69,2.1h0Z"/><path class="cls-2" d="M41.89,34.85c5.73-2.09,12.15-3.66,17.86-4.33,1.55-.18,3.08-1.25,3-3-.07-1.47-1.33-3.2-3-3-6.65,.78-13.16,2.24-19.46,4.55-1.47,.54-2.62,2.06-2.1,3.69,.47,1.44,2.11,2.67,3.69,2.1h0Z"/><path class="cls-2" d="M107.33,42.89l6.27-.75c.41,.02,.8-.07,1.16-.26,.37-.12,.69-.33,.97-.62,.52-.52,.91-1.37,.88-2.12s-.29-1.58-.88-2.12c-.55-.5-1.35-.97-2.12-.88l-6.27,.75c-.41-.02-.8,.07-1.16,.26-.37,.12-.69,.33-.97,.62-.52,.52-.91,1.37-.88,2.12s.29,1.58,.88,2.12c.55,.5,1.35,.97,2.12,.88h0Z"/><path class="cls-2" d="M108.95,32.79c.53,.47,1.01,.99,1.45,1.54l-.47-.61c.61,.79,1.11,1.64,1.5,2.55l-.3-.72c.15,.37,.29,.74,.41,1.12,.23,.74,.71,1.4,1.38,1.79s1.59,.54,2.31,.3,1.43-.68,1.79-1.38,.54-1.53,.3-2.31c-.77-2.48-2.18-4.81-4.13-6.54-.6-.53-1.3-.88-2.12-.88-.74,0-1.61,.33-2.12,.88s-.91,1.32-.88,2.12,.28,1.59,.88,2.12h0Z"/><path class="cls-2" d="M66.75,42.14c17.16-2.62,34.81-2.47,51.92,.41,1.21,.2,2.38-.04,3.15-1.08,.66-.89,.94-2.36,.23-3.33-5.51-7.63-14.92-9-23.72-8.7-4.92,.17-9.83,.46-14.75,.7-2.4,.12-4.81,.23-7.21,.35s-4.71,.13-7.02,.56c-2.51,.47-4.84,1.77-6.22,3.95s-1.55,4.9-.25,7.12c1.95,3.33,7.14,.31,5.18-3.03-.17-.29-.15-.35-.09-.03-.07-.37-.06-.15,.06-.51,.06-.17,.39-.72,.68-.94,.94-.72,2.61-.86,3.87-.94,4.08-.25,8.17-.4,12.25-.6s8.37-.43,12.56-.6c3.72-.15,7.53-.24,11.17,.68,3.14,.79,6.37,2.33,8.31,5.02l3.39-4.41c-18.26-3.08-36.8-3.21-55.11-.41-1.6,.24-2.49,2.26-2.1,3.69,.47,1.71,2.08,2.34,3.69,2.1h0Z"/><path class="cls-2" d="M126.99,55.55c-.05,0-.11,0-.16,0l.8,.11c-.11-.02-.2-.05-.31-.09l.72,.3c-.1-.05-.19-.1-.27-.16l.61,.47c-.11-.09-.2-.18-.29-.29l.47,.61c-.1-.14-.18-.28-.25-.44l.3,.72c-.06-.16-.1-.32-.13-.49l.11,.8c-.03-.25-.02-.49,.02-.74l-.11,.8c.11-.71,.41-1.37,.58-2.06,.13-.55,.23-1.13,.23-1.69,0-.4-.07-.82-.14-1.21-.03-.17-.08-.34-.15-.5-.09-.39-.27-.73-.54-1.02-.21-.33-.49-.58-.84-.77-.64-.38-1.59-.54-2.31-.3s-1.43,.68-1.79,1.38-.61,1.59-.3,2.31c.08,.2,.13,.39,.16,.6l-.11-.8c.02,.25,.01,.49-.02,.73l.11-.8c-.09,.58-.29,1.12-.46,1.68-.28,.91-.4,1.85-.28,2.79,.3,2.22,2.05,4.04,4.36,4.08,.76,.01,1.59-.34,2.12-.88s.91-1.37,.88-2.12c-.07-1.65-1.32-2.97-3-3h0Z"/><path class="cls-2" d="M89.49,51.07c7.51,4.46,16.33,4.19,24.76,4.39,2.14,.05,4.3,.13,6.43,.4,1.7,.21,4.05,.4,5.46,1.45,.18,.13,.31,.29,.44,.44,.04,.05,.25,.49,.16,.25-.01-.03,.09-.09,.09-.12,0,.33-.26,.36-.1,.19-.16,.18-.38,.29-.38,.29-1.68,.52-3.59-.34-5.22-.83-4.24-1.26-8.38-2.67-11.94-5.37-1.17-.89-3.07-.3-3.87,.77-.84,1.13-.91,2.94,.23,3.94,2.29,2.01,4.62,4.05,7.24,5.63s5.4,2.78,8.39,2.19,5.11-3.61,4.14-6.71c-1.17-3.73-5.17-4.53-8.59-4.24-1.61,.14-3,1.28-3,3,0,1.62,1.37,3.01,3,3,1.79,0,3.59-.02,5.38-.03,3.86-.02,3.87-6.02,0-6-1.79,0-3.59,.02-5.38,.03v6c.9-.08,1.86-.22,2.74,.04-.23-.07,.22,.06,.17,.11,0,0-.04-.43-.03-.48,.06-.29,.25-.39,.42-.59,.32-.11,.31-.11-.03,0-.35,.07-.37,.08-.05,.02-.86,.04-.69,.05-1.44-.19-3.32-1.06-6.15-3.77-8.71-6.02l-3.64,4.71c3.82,2.9,8.43,4.49,12.97,5.85,2.6,.78,5.25,1.65,7.99,1.15,2.36-.43,4.57-2.12,5.32-4.45,.84-2.65-.37-5.49-2.47-7.16s-4.65-2.19-7.17-2.58c-5.26-.81-10.55-.64-15.85-.84-4.99-.19-10.08-.83-14.44-3.43-3.33-1.98-6.35,3.21-3.03,5.18h0Z"/><path class="cls-2" d="M75.86,60.87c6.49,4.31,14.44,6.42,22.21,5.88,1.33-.09,2.53-.87,2.89-2.2,.35-1.26-.22-2.75-1.38-3.39-4.39-2.44-9.29-3.76-14.31-3.85-1.62-.03-3,1.4-3,3s1.37,2.97,3,3c3.93,.07,7.8,1.1,11.28,3.03l1.51-5.59c-6.89,.48-13.39-1.22-19.18-5.06-1.35-.9-3.32-.27-4.1,1.08-.86,1.47-.28,3.21,1.08,4.1h0Z"/><path class="cls-2" d="M62.68,72.53c13.26,13.01,32.89,11.59,49.95,13.28,5.3,.53,10.54,1.51,15.54,3.38,1.3,.49,2.68-.35,3.39-1.38,2.51-3.65,.86-8.69-2.37-11.31-4.17-3.39-9.71-2.6-14.6-1.66-1.28,.25-2.2,1.65-2.2,2.89,0,1.36,.94,2.48,2.2,2.89l12.85,4.24c3.2,1.06,5.37-3.95,2.31-5.48-7.74-3.88-16.34-5.03-24.91-5.2s-17.96,.66-26.88-.47c-1.94-.25-3.92-.56-5.76-1.23-.27-.1-1.44-.69-1.74-.94,.05,.04-.61-.65-.56-.57-.1-.13-.22-.46-.28-.67l-4.41,3.39c5.18,2.95,10.86,5,16.74,5.95,1.6,.26,3.23-.41,3.69-2.1,.39-1.43-.49-3.43-2.1-3.69-5.4-.88-10.55-2.64-15.31-5.34-2.24-1.27-5.15,.84-4.41,3.39,1.12,3.86,4.7,5.94,8.39,6.86,4.48,1.12,9.26,1.39,13.86,1.5,9.06,.21,18.15-.61,27.17,.47,4.63,.56,9.27,1.74,13.45,3.83l2.31-5.48-12.85-4.24v5.79c2.76-.54,6.36-1.35,8.84,.21,.3,.19,.68,.51,1.08,1.02-.26-.34,.27,.47,.26,.45,.05,.09,.36,.86,.22,.44,.1,.29,.19,.59,.23,.9-.06-.43-.02,.08-.03,.25-.01,.22,0,.2,.02-.06-.03,.15-.07,.29-.11,.43-.06,.2-.06,.19,.01-.02-.1,.18-.21,.36-.33,.52l3.39-1.38c-16.77-6.28-35.38-2.12-52.11-8.41-3.98-1.5-7.69-3.73-10.74-6.71-2.76-2.71-7,1.53-4.24,4.24h0Z"/><path class="cls-2" d="M72.95,96.56l32.05,2.57c4.97,.4,10.06,.54,14.96,1.36,.48,.08-.06,.52,.05-.2,.05-.33,.06-.14,.2-.56,.28-.84-.09-.04,.12-.25,.35-.36,.25-.14-.2-.04,.49-.1,.04,0-.08-.01-.31,0-.61,0-.91-.02-.09,0-.58-.09-.1,0-.19-.03-.38-.08-.57-.12-.57-.12-1.13-.27-1.69-.4-1.37-.33-2.74-.65-4.11-.98-5.96-1.42-11.91-2.84-17.87-4.26-3.75-.9-5.36,4.89-1.6,5.79,6.12,1.46,12.24,2.92,18.35,4.38,4.19,1,12,3.88,14.15-1.9,1.19-3.18-1.19-6.24-4.16-7.2-1.34-.44-2.82-.47-4.22-.58l-4.93-.4c-6.16-.49-12.33-.99-18.49-1.48-6.98-.56-13.97-1.12-20.95-1.68-1.62-.13-3,1.47-3,3,0,1.73,1.38,2.87,3,3h0Z"/><path class="cls-2" d="M79.76,114.34c10.61-.33,21.19,.6,31.51,3.1l.8-5.89c-7.9,1.03-15.82,.33-23.39-2.15-1.54-.5-3.28,.59-3.69,2.1-.45,1.63,.55,3.18,2.1,3.69,8.02,2.62,16.62,3.46,24.99,2.37,1.48-.19,2.75-.99,2.95-2.6,.17-1.43-.67-2.93-2.15-3.29-10.82-2.61-21.99-3.65-33.11-3.31-3.85,.12-3.87,6.12,0,6h0Z"/><path class="cls-2" d="M63.72,129.1l26.05,.52c3.42,.07,4.02-4.95,.8-5.89-2.83-.82-5.65-1.65-8.48-2.47-1.34-.39-2.67-.78-4.01-1.17-.65-.19-1.31-.39-1.96-.58-.38-.11-.16-.15-.17-.04,0,0,.42,1.21,.27,.33-.27-1.6-2.24-2.49-3.69-2.1-1.7,.47-2.36,2.09-2.1,3.69,.6,3.63,5.3,4.25,8.17,5.09,3.46,1.01,6.91,2.01,10.37,3.02l.8-5.89-26.05-.52c-3.86-.08-3.86,5.92,0,6h0Z"/><path class="cls-2" d="M47.19,121.2l2.53-1.95-4.51-2.59c.05,.8,.11,1.6,.16,2.39,.1,1.48,1.06,2.76,2.6,2.95,1.36,.16,3.02-.66,3.29-2.15,.17-.92,.35-1.4,.89-1.96,.36-.37,.3-.34,.8-.63,.31-.18,.51-.24,1.1-.37l-2.92-5.01c-1.18,1.47-2.36,2.93-3.54,4.4l4.71,3.64c1.22-2.29,3.41-3.96,5.76-4.83,3.35-1.24,6.88-1.46,10.41-1.67,1.62-.1,3-1.31,3-3,0-1.55-1.37-3.1-3-3-7.91,.47-17.2,1.67-21.35,9.47-.7,1.31-.45,2.96,.77,3.87,1.09,.81,2.99,.95,3.94-.23,1.18-1.47,2.36-2.93,3.54-4.4,.85-1.05,1.19-2.4,.47-3.64s-2.08-1.66-3.39-1.38c-3.44,.74-6.36,3.67-6.98,7.16l5.89,.8c-.05-.8-.11-1.6-.16-2.39-.13-1.99-2.56-4.1-4.51-2.59l-2.53,1.95c-1.28,.99-1.97,2.58-1.08,4.1,.74,1.26,2.81,2.07,4.1,1.08h0Z"/><path class="cls-2" d="M40.95,102.39l1.26-.24c.39-.09,.73-.27,1.02-.54,.33-.21,.58-.49,.77-.84,.22-.34,.34-.72,.36-1.12,.09-.4,.07-.8-.05-1.2l-.3-.72c-.27-.45-.63-.81-1.08-1.08l-.72-.3c-.53-.14-1.06-.14-1.6,0l-1.26,.24c-.39,.09-.73,.27-1.02,.54-.33,.21-.58,.49-.77,.84-.22,.34-.34,.72-.36,1.12-.09,.4-.07,.8,.05,1.2l.3,.72c.27,.45,.63,.81,1.08,1.08l.72,.3c.53,.14,1.06,.14,1.6,0h0Z"/><path class="cls-2" d="M28.32,102.64l2.41,3.09c.84,1.07,1.66,2.06,3.06,2.39,2.93,.69,4.88-1.88,5.21-4.48,.03-.23,.06-.45,.08-.68,.02,.09,0,.17-.07,.23-.48,.66-1.04,.91-1.67,.77-.44-.11-.74-.42-.9-.93-.23-1.03,.52-.57-.18-.77-.1-.03-.65-.15-.57-.26-.01,.02-.03,.76-.02,.88-.05,.08-.12,.14-.21,.17,.32-.18,.38-.22,.17-.12,.37-.09,.43-.11,.17-.05,.21-.1,.35-.09,.43,.03,.7,.21,1.41,.5,1.99,.88,.98,.65,1.69,1.05,2.92,.77,.6-.14,1.2-.4,1.8-.58,2.33-.72,4.7-1.33,7.08-1.82,4.76-.98,9.59-1.44,14.44-1.45,3.86-.01,3.87-6.01,0-6-8.45,.03-16.9,1.39-24.92,4.07l2.92,.77c-3.43-2.73-9.65-4.32-12.12,.58s3.67,9.32,8.2,7.79c2.52-.85,4.31-3.46,3.73-6.15-.48-2.2-2.43-3.78-4.7-3.76-1.43,.01-2.77,.72-3.56,1.9-.65,.97-.77,1.93-.94,3.06-.03,.4-.04,.46-.03,.17,.2-.5,.67-.62,1.42-.37,1.31,.18,1.68,.01,1.11-.51l-.6-.77-2.41-3.09c-1-1.28-3.2-1.05-4.24,0-1.26,1.26-1,2.96,0,4.24h0Z"/><path class="cls-2" d="M22.13,81.23c13.81-.6,27.57,1.24,40.74,5.46l.8-5.89c-7.39,0-14.79,0-22.18,0-3.2,0-6.43,.15-9.62-.14-2.29-.2-4.52-.82-6.06-2.59-1.06-1.22-3.15-1.09-4.24,0-1.21,1.21-1.07,3.02,0,4.24,4.5,5.17,12.25,4.49,18.43,4.49,7.89,0,15.78,0,23.67,0,3.45,0,3.99-4.87,.8-5.89-13.63-4.37-28.04-6.3-42.34-5.67-1.62,.07-3,1.33-3,3,0,1.57,1.37,3.07,3,3h0Z"/><path class="cls-2" d="M23.98,62.41c11.53,3.44,23.65,4.12,35.51,2.2l-1.6-5.79c-10.73,2.43-21.96,5.01-32.96,2.81l2.2,2.89c-.01-.51-.03-1.02-.04-1.54-.1-3.85-6.1-3.87-6,0,.01,.51,.03,1.02,.04,1.54,.03,1.24,.9,2.63,2.2,2.89,12.13,2.43,24.29-.12,36.15-2.81,1.58-.36,2.51-2.18,2.1-3.69-.47-1.7-2.09-2.36-3.69-2.1-10.77,1.75-21.88,.92-32.32-2.2-3.71-1.11-5.29,4.68-1.6,5.79h0Z"/><path class="cls-2" d="M31.1,48.55c12.4,3.03,25.18,4.56,37.95,4.52v-6c-5.48,.55-10.43-2.66-15.41-4.54-6.12-2.31-12.47-1.93-18.85-1.25-1.21,.13-2.26,.65-2.74,1.84-.42,1.05-.29,2.48,.62,3.28,3.57,3.11,7.83,5.3,12.51,6.13,1.59,.28,3.23-.43,3.69-2.1s-.55-3.19-2.1-3.69c-5.01-1.63-10.02-3.27-15.02-4.9-1.54-.5-3.28,.59-3.69,2.1-.45,1.63,.55,3.19,2.1,3.69,5.01,1.63,10.02,3.27,15.02,4.9l1.6-5.79c-3.65-.65-7.05-2.14-9.86-4.58l-2.12,5.12c3.19-.34,6.4-.69,9.62-.57,2.94,.11,5.68,.82,8.41,1.9,5.25,2.08,10.38,5.05,16.24,4.46,1.61-.16,3-1.26,3-3,0-1.62-1.37-3.01-3-3-12.26,.04-24.44-1.4-36.35-4.31-3.75-.92-5.35,4.87-1.6,5.79h0Z"/><path d="M131.48,89.56c-17.91-8.13-38.34-2.76-56.56-9.47-2.22-.82-4.36-1.84-6.38-3.07-1.77-1.08-3.68-2.33-4.75-4.16-.79-1.35-1.05-3.56,.36-4.65,1.87-1.44,4.64,.8,6.17,1.79,7.83,5.07,17.28,5.58,26.34,5.17s17.73-1.38,26.57,.3c1.65,.31,3.3,.7,4.89,1.26,1.17,.41,2.67,.96,3.45,1.99s.3,2.67,.05,3.79c-.36,1.63-.88,3.2-1.35,4.8-2.76,9.3-7.28,17.69-14.14,24.62-6.49,6.55-14.6,11.39-23.44,14.04-15.36,4.59-32.23,2.2-45.71-6.48-12.34-7.95-21.13-20.76-24.14-35.13s.14-30.45,8.75-42.84,21.56-20.4,36.04-22.88,30.49,1.29,42.56,10.38c11.72,8.82,19.63,22.38,21.48,36.93,.54,4.22,.57,8.5,.17,12.73-.18,1.92,2.82,1.91,3,0,1.55-16.44-3.98-32.97-15.19-45.11-10.77-11.67-26.17-18.51-42.04-18.7s-31.49,6.29-42.55,17.74-17.07,27.31-16.29,43.27c.77,15.81,8.1,30.91,20.1,41.24s29.12,15.79,45.43,13.66c19.61-2.56,37.06-15.18,45.4-33.16,1.89-4.08,3.24-8.39,4.43-12.72,.89-3.24,1.65-6.86-1.38-9.15-2.72-2.06-6.43-2.79-9.72-3.35-4.31-.73-8.67-1.04-13.04-.95-9.96,.2-20.19,2.11-30-.44-2.36-.62-4.63-1.49-6.75-2.72s-4.01-2.87-6.42-3.36c-4.65-.93-7.75,3.68-6.33,7.91s6.34,6.94,10.21,8.73c4.44,2.05,9.18,3.31,13.99,4.08,10.21,1.63,20.6,1.15,30.83,2.58,4.95,.69,9.88,1.86,14.45,3.93,1.74,.79,3.27-1.79,1.51-2.59h0Z"/><path d="M128.6,97.37c-5.91-4.72-13.39-6.15-20.79-6.4-8.36-.28-16.88,1.01-25.13-.88-3.58-.82-7.51-3.33-11.24-1.98-3.43,1.24-4.48,5.05-2.34,7.97,2.38,3.24,6.66,3.22,10.28,3.54,4.45,.39,8.89,.94,13.3,1.64,9.96,1.59,19.78,3.95,29.37,7.03,1.84,.59,2.63-2.3,.8-2.89-7.63-2.45-15.41-4.45-23.28-5.96-3.95-.76-7.92-1.39-11.91-1.91s-7.88-.71-11.8-1.22c-1.53-.2-3.3-.58-4.29-1.88-.84-1.1-.94-2.56,.39-3.29,1.51-.84,3.32-.27,4.83,.25,1.76,.61,3.49,1.23,5.31,1.64,7.46,1.66,15.13,.91,22.7,.89s15.63,.74,21.67,5.56c1.49,1.19,3.63-.92,2.12-2.12h0Z"/><path d="M117.41,111.44c-10.62-3.23-21.72-4.95-32.82-5.02-2.27-.01-5.23-.38-7.33,.69s-2.66,3.35-1.84,5.4,2.88,3.22,5.02,3.71c2.65,.61,5.4,.89,8.09,1.31,6.52,1.02,13.04,2.04,19.57,3.06,1.89,.3,2.7-2.59,.8-2.89-4.97-.78-9.95-1.56-14.92-2.34-2.53-.4-5.05-.79-7.58-1.19-2.09-.33-4.47-.42-6.45-1.23-1.43-.59-3.03-2.9-.65-3.38,2.2-.44,4.73-.18,6.96-.13,4.76,.1,9.51,.49,14.22,1.21,5.47,.83,10.86,2.07,16.15,3.68,1.85,.56,2.64-2.33,.8-2.89h0Z"/><path d="M75.3,58.63c4.01-.34,8.07-.24,12.05,.39,1.98,.32,3.94,.75,5.87,1.3,1.8,.51,3.87,1.02,5.5,1.98,.46,.27,1.39,.94,1.05,1.6-.22,.45-1.05,.57-1.48,.64-1.6,.24-3.33,.1-4.94,.08-3.68-.04-7.4-.23-10.98-1.14-1.92-.49-3.78-1.18-5.51-2.16-.76-.43-1.59-.89-2.17-1.56-.2-.24-.56-.66-.44-1.01,.06-.17,.21-.31,.28-.27,1.62,1.06,3.13-1.54,1.51-2.59-1.8-1.17-4.13,.12-4.69,2.06-.67,2.36,1.32,4.28,3.11,5.43,4.18,2.69,9.17,3.69,14.06,4.06,2.58,.19,5.17,.2,7.76,.18,1.92-.02,4.16-.06,5.59-1.56,1.61-1.69,.96-4.28-.68-5.68-1.89-1.61-4.84-2.29-7.18-2.96-6.06-1.72-12.44-2.32-18.72-1.8-1.91,.16-1.93,3.16,0,3h0Z"/><path d="M128.04,47.59c-6.87,.69-13.8,1.36-20.7,.76-3.32-.29-6.61-.92-9.77-1.99-2.54-.86-5.35-2.83-8.15-2.24-2.97,.62-3.73,4.08-2.07,6.37,1.78,2.45,5.44,3.08,8.2,3.72,3.06,.71,6.27,1.27,8.97,2.96s4.43,4.53,6.91,6.49c6.34,5.01,14.55,2.71,21.43,.32,1.81-.63,1.03-3.53-.8-2.89-5.48,1.9-12.17,4.26-17.64,1.02-2.4-1.42-4-3.83-6.02-5.7s-4.6-3.14-7.31-3.93-5.44-1.21-8.11-2.04c-1.08-.34-2.6-.74-3.26-1.75-.81-1.23,.12-1.8,1.26-1.61s2.27,.79,3.35,1.24c1.47,.62,2.97,1.14,4.51,1.56,2.78,.77,5.64,1.21,8.5,1.46,6.9,.6,13.83-.06,20.7-.76,1.9-.19,1.92-3.19,0-3h0Z"/><path d="M109.29,26.94c-7.79,4.1-16.93,2.9-25.34,2.19-4.65-.39-9.33-.63-13.97,.05-3.55,.52-7.46,1.9-9.35,5.2-1.75,3.05-1.46,7.2,1.65,9.25,3.5,2.31,7.64,.67,11.15-.64,7.54-2.81,15.53-1.91,23.29-.62,8.88,1.47,17.93,3.39,26.89,1.43,1.89-.41,1.09-3.31-.8-2.89-14.66,3.21-29.15-4.51-43.88-2.41-1.79,.25-3.56,.65-5.27,1.23-1.88,.64-3.7,1.53-5.65,1.92-1.52,.3-3.45,.23-4.61-.95-1.06-1.08-1.04-2.72-.54-4.06,1.26-3.37,5.51-4.3,8.68-4.66,4.37-.49,8.78-.17,13.14,.21,8.79,.76,18.03,1.6,26.12-2.66,1.71-.9,.19-3.49-1.51-2.59h0Z"/><path d="M80.49,16.08c-1.45,1.61-3.25,2.76-5.37,3.29-1.76,.44-3.66,.11-5.38,.73-1.59,.57-2.75,2.08-2.4,3.83,.45,2.18,2.51,3.23,4.57,3.34,2.48,.14,5.08-.28,7.55-.44s4.88-.33,7.33-.5c4.91-.34,9.87-.79,14.53-2.5,1.8-.66,1.02-3.56-.8-2.89-3.97,1.45-8.14,1.97-12.34,2.29s-8.44,.58-12.66,.87c-.88,.06-4.97,.83-5.21-.62-.16-.95,2.26-.8,2.84-.83,3.63-.19,7.02-1.74,9.45-4.45,1.29-1.43-.83-3.56-2.12-2.12h0Z"/><path d="M46.48,27.5l10.97-.89c.42-.03,3.29-.51,3.47,.22,.28,1.08-3.45,1.63-4.08,1.79-7.16,1.84-14.32,3.68-21.48,5.52-1.87,.48-1.08,3.37,.8,2.89,4.45-1.14,8.91-2.29,13.36-3.43,2.23-.57,4.45-1.14,6.68-1.72,1.96-.5,4.34-.76,6.03-1.95,1.41-1,2.2-2.93,1.32-4.53-.78-1.42-2.42-1.87-3.93-1.92-2.08-.07-4.25,.29-6.33,.46l-6.83,.55c-1.91,.16-1.93,3.16,0,3h0Z"/><path d="M30.65,41.85c5.91,.71,11.72-1.31,17.62-.86,2.8,.22,5.18,1.32,7.35,3.05,1.89,1.51,3.67,3.28,5.84,4.39,1.02,.53,2.09,.89,3.23,1.04,1.55,.2,3.01-.25,4.55-.24,.56,0,2.66,.48,1.71,1.31-.32,.28-1.03,.36-1.43,.41-.88,.13-1.79,.18-2.67,.27-6.8,.66-13.64,1.16-20.46,.48s-12.74-2.3-18.01-6.33c-1.53-1.17-3.03,1.43-1.51,2.59,5.22,3.99,11.42,5.77,17.86,6.55,7.71,.94,15.41,.37,23.1-.39,2.5-.25,6.48-.57,6.38-4.02-.04-1.31-.94-2.48-2.03-3.14-1.46-.88-3.05-.77-4.67-.56-1.5,.19-2.84,.22-4.24-.42-1.23-.56-2.31-1.41-3.35-2.26-2.26-1.86-4.41-3.8-7.19-4.83-7.12-2.65-14.78,.82-22.08-.05-1.91-.23-1.9,2.77,0,3h0Z"/><path d="M22.48,55.55c9.77,4.13,20.43,6.04,31.03,5.3,1.27-.09,2.53-.24,3.8-.37,1.04-.11,2.73-.4,3.47,.6,.6,.82-.2,1.1-.9,1.32-1.35,.41-2.74,.74-4.1,1.11-5.45,1.48-10.92,3.16-16.52,3.97s-11.99,.51-17.21-2.39c-1.69-.94-3.2,1.65-1.51,2.59,11.18,6.21,24.15,1.95,35.58-1.15,1.41-.38,2.83-.75,4.24-1.15,1.19-.34,2.41-.79,3.12-1.87,1.32-2,.08-4.57-1.9-5.56-2.52-1.25-5.84-.23-8.5-.06-3.03,.19-6.08,.16-9.11-.07-6.84-.52-13.63-2.18-19.96-4.85-.75-.32-1.6-.22-2.05,.54-.37,.63-.21,1.74,.54,2.05h0Z"/><path d="M21.29,76.37c11.94-1.87,24.31-.52,35.61,3.77,1.31,.5,2.61,1.04,3.89,1.62s2.82,1.18,4.02,2.04c.29,.21,.8,.55,.71,.98-.11,.52-.97,.72-1.38,.75-1.59,.12-3.36-.68-4.94-.89-6.5-.87-12.81,1.15-19.19,2.01-5.88,.79-13.21,.36-16.87-5.07-1.07-1.59-3.67-.09-2.59,1.51,3.61,5.36,10.2,7.16,16.37,6.85,7.52-.38,15.04-3.6,22.61-2.23,1.69,.3,3.34,.97,5.08,.78,1.56-.17,3.09-1.1,3.68-2.6,1.21-3.12-2.12-4.85-4.4-5.96-6.29-3.06-13.01-5.22-19.91-6.36-7.79-1.28-15.68-1.3-23.48-.08-1.9,.3-1.09,3.19,.8,2.89h0Z"/><path d="M27.29,99.29c10.69-.98,21.38-1.97,32.07-2.95,1.18-.11,6.61-1.23,6.47,1.03s-4.54,1.52-5.9,1.47c-4.47-.18-9.15-.12-13.24,1.93-2.26,1.13-4.03,2.95-5.93,4.56s-4.37,3.11-6.93,2.21c-1.83-.64-2.61,2.26-.8,2.89,5.59,1.96,9.41-3.15,13.39-6.01,4.34-3.11,9.91-2.74,14.98-2.53,2.56,.11,5.42-.14,6.87-2.58,1.33-2.22,.16-4.8-2.09-5.79-2.61-1.16-6.06-.27-8.8-.01l-9.13,.84-20.97,1.93c-1.91,.18-1.92,3.18,0,3h0Z"/><path d="M44.48,118.24c.72-3.8,4.76-5.04,8.01-5.97,4.01-1.14,8.03-2.27,12.05-3.41,1.48-.42,3.79-1.39,5.16-.2,1.46,1.27-.86,2.51-1.94,2.71-1.81,.33-3.67,.12-5.48,.49-1.69,.35-3.34,1.02-4.8,1.92-1.69,1.04-3.07,2.4-4.28,3.95-1.14,1.45-2.21,3.01-3.83,3.96s-.16,3.57,1.51,2.59c3.59-2.1,5.09-6.31,8.8-8.31,2-1.08,4.08-1.39,6.32-1.47s4.39-.37,5.92-2.06c1.3-1.44,1.66-3.47,.56-5.14s-3.28-2.33-5.25-2.13c-2.44,.25-4.85,1.18-7.2,1.84-2.47,.7-4.95,1.4-7.42,2.1-4.5,1.27-10.01,3.05-11.02,8.32-.36,1.89,2.53,2.7,2.89,.8h0Z"/><path d="M99.31,123.84c-4.53-.42-9-1.37-13.31-2.81-2.17-.72-4.29-1.57-6.36-2.55-1.9-.9-3.82-2.28-5.93-2.63-1.71-.28-3.66,.3-4.61,1.84-.49,.79-.55,1.57-.46,2.47,.11,1.12,.14,1.77-.94,2.38-1.79,1.02-4.18,.22-6.13,.34-1.79,.11-3.57,.65-4.77,2.04s.86,3.59,2.12,2.12,3.21-1.21,4.91-1.1c1.96,.12,3.98,.12,5.69-1,1.48-.97,2.36-2.51,2.21-4.29-.07-.84-.42-1.51,.61-1.82,.88-.26,1.85,.23,2.61,.61,3.77,1.89,7.52,3.64,11.55,4.89s8.47,2.1,12.82,2.5c1.92,.18,1.91-2.82,0-3h0Z"/><path d="M81.27,47.93c1.93,0,1.93-3,0-3s-1.93,3,0,3h0Z"/><path d="M106.33,64.72c1.93,0,1.93-3,0-3s-1.93,3,0,3h0Z"/><path d="M67.23,61.21c1.93,0,1.93-3,0-3s-1.93,3,0,3h0Z"/><path d="M55.7,73.24c1.93,0,1.93-3,0-3s-1.93,3,0,3h0Z"/><path d="M51.69,92.54c1.93,0,1.93-3,0-3s-1.93,3,0,3h0Z"/><path d="M74,104.32c1.93,0,1.93-3,0-3s-1.93,3,0,3h0Z"/><path d="M86.03,104.82c1.93,0,1.93-3,0-3s-1.93,3,0,3h0Z"/><path d="M55.7,38.15c1.93,0,1.93-3,0-3s-1.93,3,0,3h0Z"/><path d="M64.72,23.37c1.93,0,1.93-3,0-3s-1.93,3,0,3h0Z"/><path d="M127.13,71.49c1.93,0,1.93-3,0-3s-1.93,3,0,3h0Z"/><path d="M110.84,69.73c1.93,0,1.93-3,0-3s-1.93,3,0,3h0Z"/><path d="M30.01,45.29c3.94,1.06,8.05,1.52,12.13,1.27,2.96-.18,8.38-2.05,10.31,1.2l1.3-2.26c-7.76-.28-15.46-1.19-23.07-2.74-1.88-.38-2.69,2.51-.8,2.89,7.86,1.6,15.85,2.56,23.87,2.85,1.14,.04,1.86-1.3,1.3-2.26-2.32-3.89-6.89-3.35-10.72-2.89-4.54,.55-9.1,.22-13.51-.96-1.87-.5-2.66,2.39-.8,2.89h0Z"/><path d="M116.24,32.28c-6.96,2.87-14.6,3.63-21.97,2.05l-.8,2.89c8.68,1.52,17.49,2.14,26.29,1.81,.64-.02,1.3-.45,1.45-1.1,.08-.37,.17-.74,.25-1.11,.22-.97-.44-1.86-1.45-1.9-2.19-.09-4.38-.17-6.57-.26v3c1.3-.15,2.61-.31,3.91-.46,1.89-.22,1.92-3.23,0-3-1.3,.15-2.61,.31-3.91,.46-1.87,.22-1.98,2.92,0,3,2.19,.09,4.38,.17,6.57,.26l-1.45-1.9c-.08,.37-.17,.74-.25,1.11l1.45-1.1c-8.54,.32-17.08-.23-25.5-1.7-1.87-.33-2.71,2.48-.8,2.89,7.87,1.69,16.11,1.02,23.56-2.05,1.76-.73,.99-3.63-.8-2.89h0Z"/><path d="M129.96,53.36c-6.17,1.33-12.55,1.18-18.66-.4-1.93-.5-2.52,2.17-.8,2.89,6.5,2.73,13.63,3.86,20.66,3.31,1.91-.15,1.93-3.15,0-3-6.8,.54-13.57-.56-19.86-3.2l-.8,2.89c6.63,1.72,13.56,1.84,20.25,.4,1.89-.41,1.09-3.3-.8-2.89h0Z"/><path d="M133.02,82.68c-4.15-4.51-10.66-4.77-16.38-4.9-7.9-.19-15.81-.37-23.71-.56-1.49-.04-2.04,2.07-.76,2.8,2.76,1.55,5.86,1.6,8.95,1.6,3.33,0,6.66,.18,9.96,.59,6.73,.84,13.34,2.64,19.62,5.21,1.42,.58,2.49-1.54,1.46-2.51-3.44-3.22-7.75-5.36-12.42-6.03-.81-.12-1.6,.2-1.85,1.05-.2,.7,.25,1.73,1.05,1.85,4.18,.6,8.01,2.37,11.1,5.25l1.46-2.51c-6.13-2.5-12.54-4.24-19.1-5.14-3.22-.44-6.45-.71-9.7-.76-3.01-.05-6.3,.34-9.02-1.2l-.76,2.8c7.4,.17,14.81,.35,22.21,.52,5.3,.12,11.84-.2,15.75,4.06,1.31,1.43,3.43-.7,2.12-2.12h0Z"/><path d="M21.1,80.44c8.6,.53,17.19,1.19,25.77,1.99v-3c-8.46,1.05-17.05,.87-25.44-.64-1.89-.34-2.7,2.55-.8,2.89,8.67,1.56,17.5,1.84,26.24,.75,1.9-.24,1.95-2.82,0-3-8.58-.8-17.17-1.47-25.77-1.99-1.93-.12-1.92,2.88,0,3h0Z"/><path d="M22.47,80.71l8.77,2.26c.76,.2,1.66-.25,1.85-1.05s-.23-1.64-1.05-1.85l-8.77-2.26c-.76-.2-1.66,.25-1.85,1.05s.23,1.64,1.05,1.85h0Z"/><path d="M22.06,81.24c8,3.35,17.01,3.87,25.37,1.58,1.86-.51,1.07-3.41-.8-2.89-7.89,2.16-16.23,1.58-23.77-1.58-.75-.32-1.64,.34-1.85,1.05-.25,.86,.3,1.53,1.05,1.85h0Z"/><path d="M22.54,60.35c5.3,4.01,12.03,5.6,18.57,4.72l-.8-2.89c-3,.65-6.15,.35-8.97-.86s-5.57-2.97-8.71-1.98c-1.17,.37-1.54,2.11-.36,2.74,5.54,2.95,11.91,4.18,18.13,3.38,.8-.1,1.5-.62,1.5-1.5,0-.73-.69-1.6-1.5-1.5-5.72,.74-11.52-.26-16.62-2.97l-.36,2.74c1.35-.43,2.65-.02,3.9,.52,1.44,.61,2.81,1.37,4.3,1.87,3.05,1.02,6.34,1.12,9.48,.44,.79-.17,1.25-1.1,1.05-1.85-.24-.87-1.04-1.16-1.85-1.05-5.76,.78-11.66-.93-16.26-4.42-.65-.49-1.68-.1-2.05,.54-.45,.77-.11,1.56,.54,2.05h0Z"/><path d="M74.69,129.49c1.24-1.97,1.58-4.44,.95-6.68l-1.45,1.9c.4-.01,.8,.01,1.2,.05-.31-.03,0,0,.06,.01,.11,.02,.22,.04,.33,.06,.19,.04,.39,.09,.58,.14s.38,.12,.57,.18c.1,.04,.21,.08,.31,.12,.21,.08-.19-.1,0,0,.38,.19,.75,.37,1.11,.6,.17,.11,.33,.22,.5,.34,.02,.02,.24,.18,.11,.08-.14-.12,.13,.11,.16,.13,.3,.26,.59,.54,.86,.84,.07,.08,.15,.17,.22,.25,.04,.04,.21,.29,.05,.06,.12,.16,.23,.32,.34,.49,.23,.36,.42,.73,.59,1.11l1.69-2.2c-1.33-.46-2.66-.93-3.99-1.39-.69-.24-1.37-.54-2.1-.62-.82-.09-1.71,.32-2.1,1.07-.7,1.37,.16,3.07,1.61,3.46,.78,.21,1.58,.04,2.34-.18,.14-.04,.28-.08,.42-.12,.08-.02,.46-.03,.15-.03,.05,0,.39,.04,.2,0-.11-.02-.09,0,.06,.03-.16-.06-.17-.05-.02,.04,.64,.46,1.7,.13,2.05-.54,.41-.78,.14-1.56-.54-2.05-.92-.66-2.1-.51-3.12-.22-.1,.03-.21,.06-.31,.09-.03,0-.41,.1-.27,.07,.12-.02-.17,0-.19,0-.13,.04,.04,.01,.14,.07,.07,.04,.21,.18,.07,.05l.11,.14c-.06-.12-.07-.12-.01,0,.04,.1,.05,.12,.03,.04-.02-.08-.02-.06,0,.06,0,.19,.02,.34-.09,.52-.14,.21-.48,.36-.68,.48-.1,.05-.13-.03,.04,.04,.24,.09,.49,.17,.73,.25l1.53,.53c1.05,.36,2.09,.73,3.14,1.09,.56,.2,1.23-.09,1.58-.54,.4-.51,.37-1.1,.12-1.67-1.63-3.65-5.61-6.07-9.58-5.97-.96,.02-1.72,.94-1.45,1.9,.06,.21,.11,.43,.15,.65,0,.03,.05,.31,.03,.16-.02-.17,.01,.21,.02,.24,.01,.22,.02,.44,0,.66,0,.1,0,.2-.02,.29,0,.05-.05,.38,0,.11-.06,.41-.17,.82-.3,1.21-.03,.08-.12,.31-.04,.12-.04,.09-.08,.18-.12,.27-.11,.22-.23,.43-.36,.64-.42,.67-.16,1.68,.54,2.05,.74,.39,1.61,.17,2.05-.54h0Z"/><path d="M21.69,33.58c-9.53,13.22-13.08,30.31-9.69,46.24,.2,.94,1.65,.54,1.45-.4-3.31-15.56,.25-32.19,9.54-45.09,.57-.78-.74-1.53-1.3-.76h0Z"/><path d="M16.69,32.55c-4.77,3.65-8.05,9.02-9,14.96-.15,.94,1.29,1.35,1.45,.4,.88-5.53,3.85-10.65,8.31-14.06,.76-.58,0-1.88-.76-1.3h0Z"/><path d="M140.16,83.3c-.31,11.04-5.77,21.7-14.59,28.36-.76,.57-.01,1.88,.76,1.3,9.26-6.99,15-18.04,15.34-29.65,.03-.97-1.47-.96-1.5,0h0Z"/><path d="M143.6,96.13c.29,5.04-1.81,10-5.62,13.32-.73,.63,.33,1.69,1.06,1.06,4.09-3.55,6.37-8.97,6.06-14.38-.05-.96-1.55-.97-1.5,0h0Z"/></svg>