<?xml version="1.0" encoding="UTF-8"?><svg id="Layer_1" xmlns="http://www.w3.org/2000/svg" viewBox="0 0 300 300"><defs><style>.cls-1{fill:#ee4694;}.cls-2{fill:#506cb3;}</style></defs><path class="cls-2" d="M73.87,172.14l12.11,6.44c1.99,1.06,4.41,.65,5.81-1.16s1.1-4.15-.35-5.91c-4.24-5.13-10.72-8.05-17.31-8.3-4.56-.17-6,6.16-2.27,8.39,8.64,5.15,17.28,10.31,25.92,15.46,7.92,4.72,16.01,9.4,24.83,12.24,5.06,1.63,10.41,2.55,15.73,2.49v-9c-3.35,.43-6.73,.51-10.09,.24-.44-.04-.87-.08-1.3-.12-.17-.02-1.25-.15-.7-.08s-.06-.01-.14-.02c-.25-.04-.49-.08-.74-.12-.43-.07-.86-.15-1.29-.23-1.66-.32-3.3-.72-4.92-1.2s-3.21-1.04-4.78-1.67c-.13-.05-.86-.37-.33-.13,.49,.22-.08-.04-.15-.07-.34-.16-.68-.31-1.02-.47-.79-.37-1.58-.76-2.35-1.17-1.49-.79-2.94-1.66-4.35-2.59-.68-.45-1.34-.91-2-1.4-.2-.15-.4-.3-.6-.45,.05,.03,.57,.45,.17,.13-.34-.28-.68-.55-1.02-.82-1.49-1.24-2.9-2.56-4.23-3.96-.64-.68-1.27-1.38-1.87-2.09-.28-.33-.55-.68-.83-1.02-.43-.51,.41,.56,.01,.02-.19-.25-.37-.5-.56-.75-1.39-1.89-3.97-3.02-6.16-1.61-1.88,1.21-3.1,4.12-1.61,6.16,9.22,12.61,23.26,20.56,38.72,22.47,4.03,.5,8.11,.49,12.14-.03,2.33-.3,4.62-1.86,4.5-4.5-.11-2.41-1.98-4.53-4.5-4.5-1.02,.01-2.04,0-3.06-.07-.58-.04-1.16-.08-1.73-.14-.22-.02-.43-.05-.65-.07-.51-.05,.53,.1-.31-.05-2.14-.37-4.25-.83-6.34-1.45s-4.16-1.38-6.18-2.21c.64,.26-.57-.25-.75-.33-.47-.21-.94-.42-1.41-.64-1.01-.47-2.01-.95-3-1.46-8.26-4.18-16.11-9.19-24.06-13.93-4.82-2.87-9.63-5.74-14.45-8.62l-2.27,8.39c.32,.01,.64,.03,.97,.05,.44,.04,.79,.1,.15,0,.64,.1,1.27,.23,1.89,.4,.56,.15,1.12,.32,1.66,.52,.37,.13,.77,.32,.18,.05,.29,.13,.59,.27,.87,.42,.52,.26,1.02,.55,1.52,.85,.27,.17,.54,.35,.81,.53,.3,.21,.66,.51,.17,.11,1,.82,1.91,1.73,2.73,2.73l5.45-7.07-12.11-6.44c-2.08-1.1-4.99-.59-6.16,1.61-1.1,2.09-.6,4.98,1.61,6.16h0Z"/><path class="cls-2" d="M64.96,158.36c.61-.14,1.21-.26,1.83-.37,1.17-.22-.59,.04,.09-.02,.31-.03,.62-.07,.93-.09,1.24-.1,2.48-.12,3.72-.06,.62,.03,1.24,.1,1.85,.15-1.11-.09,.1,.02,.28,.05,.24,.04,.49,.09,.73,.13,1.28,.25,2.54,.58,3.78,1,.29,.1,.59,.2,.88,.31,.11,.04,1.08,.41,.5,.18s.48,.22,.49,.22c.28,.13,.56,.26,.84,.4,1.11,.55,2.19,1.18,3.22,1.87,.26,.17,.51,.35,.76,.53,.09,.07,.9,.7,.44,.32s.32,.28,.41,.35c.24,.2,.47,.41,.7,.61,.97,.88,1.86,1.83,2.69,2.83l4.38-7.52c-8.66-2.84-17.31-5.68-25.97-8.52l-2.39,8.68c8.43,1.42,16.73,3.57,24.78,6.45,1.98,.71,3.94,1.46,5.88,2.25,.14,.06,1.68,.7,1,.41,.41,.18,.83,.35,1.24,.53,.96,.42,1.92,.85,2.87,1.29,3.95,1.83,7.8,3.84,11.57,6.01l2.27-8.39c.83,.11-.66-.1-.82-.13-.52-.08-1.04-.17-1.56-.27-.89-.16-1.78-.35-2.66-.55-1.91-.43-3.81-.95-5.68-1.56-.86-.28-1.72-.57-2.57-.89-.5-.18-.99-.37-1.48-.56-.15-.06-1.48-.61-.81-.32-1.81-.77-3.57-1.64-5.3-2.56l-4.54,7.77c12.68,6.13,24.82,13.34,36.26,21.56l3.47-8.22c-1.4-.43-2.78-.89-4.15-1.4-.72-.27-1.43-.55-2.14-.84-.77-.31,.19,.09-.27-.11-.32-.14-.64-.28-.95-.42-2.66-1.2-5.25-2.57-7.74-4.09-1.19-.72-2.35-1.48-3.5-2.27-.63-.44-1.25-.88-1.86-1.34-.28-.21-.56-.42-.83-.63,.62,.48-.12-.1-.24-.19-2.34-1.86-4.55-3.88-6.64-6.02l-6.36,6.36c11.1,10.41,23.95,18.56,37.99,24.36,1.38,.57,3.42-.09,4.38-1.16,2.58-2.86,5.15-5.72,7.73-8.58l-7.52-1.99c.22,1.18,.07-.45,.03,.22-.02,.34,.03,.68,.02,1.02,0,.12-.1,1.21-.02,.62s-.14,.62-.14,.61c-.07,.27-.15,.52-.22,.79-.32,1.15,.24-.34-.07,.25-.35,.67-.71,1.3-1.16,1.92l7.07-.91c-7.18-6.46-14.37-12.93-21.55-19.39l-5.45,7.07c6.29,4.63,13.22,8.23,20.55,10.93,2.21,.81,5.03-.91,5.54-3.14,.58-2.54-.77-4.66-3.14-5.54-.83-.31-1.66-.62-2.49-.96-.11-.04-1.26-.53-.56-.23-.41-.18-.81-.36-1.22-.54-1.69-.76-3.34-1.58-4.97-2.46-3.19-1.73-6.25-3.68-9.17-5.83-1.8-1.33-4.56-.45-5.81,1.16s-1.32,4.4,.35,5.91c7.18,6.46,14.37,12.93,21.55,19.39,2.32,2.08,5.31,1.5,7.07-.91,2.61-3.59,3.26-8.08,2.48-12.37-.6-3.29-5.37-4.38-7.52-1.99-2.58,2.86-5.15,5.72-7.73,8.58l4.38-1.16c-.15-.06-1.22-.52-.51-.21-.4-.17-.79-.34-1.19-.52-.85-.38-1.7-.76-2.55-1.16-1.56-.73-3.1-1.5-4.63-2.3-3.11-1.63-6.16-3.41-9.11-5.31-1.45-.93-2.88-1.9-4.28-2.89-.7-.5-1.4-1-2.09-1.52-.35-.26-.69-.52-1.03-.78-.82-.61,.28,.23-.45-.35-2.82-2.22-5.55-4.55-8.17-7.01-1.72-1.61-4.68-1.83-6.36,0s-1.76,4.56,0,6.36c8.92,9.13,20.1,15.89,32.29,19.62,2.15,.66,4.47-.61,5.31-2.61,.92-2.18,0-4.29-1.84-5.62-11.44-8.22-23.57-15.43-36.26-21.56-2.12-1.02-4.96-.65-6.16,1.61-1.1,2.09-.6,4.97,1.61,6.16,7.97,4.27,16.48,6.89,25.43,8.07,1.85,.24,3.94-1.57,4.34-3.3,.44-1.94-.29-4.06-2.07-5.08-15.27-8.81-32.1-14.93-49.49-17.85-2.31-.39-4.96,.61-5.54,3.14s.75,4.75,3.14,5.54c8.66,2.84,17.31,5.68,25.97,8.52,1.81,.59,4.19-.38,5.08-2.07,1-1.89,.63-3.85-.7-5.45-7.82-9.43-21.06-13.51-32.89-10.74-2.29,.54-3.87,3.28-3.14,5.54,.77,2.39,3.08,3.72,5.54,3.14h0Z"/><path class="cls-2" d="M56.09,143.52c-.71,.99-.2,.26,.02,.04,.75-.75,.11,.07-.06-.01,.02,0,.66-.42,.7-.44,.86-.47,.1,.11-.06,0,.02,.02,.75-.23,.8-.25,.14-.04,.27-.07,.41-.09,.35-.07,.18-.05-.5,.05,.43,.13,1.23-.04,1.7-.04,.87,.01-.97-.25-.07,0,.27,.07,.55,.12,.82,.21l.27,.09c.45,.17,.36,.12-.29-.14,.04,.11,.64,.33,.74,.39l.24,.15c.39,.27,.31,.2-.24-.22,0,.1,.44,.39,.51,.47,.1,.1,.19,.2,.29,.3,.24,.29,.24,.28,0-.02-.24-.31-.25-.31-.03,0,.1,.16,.19,.33,.27,.5l3.89-6.77c-3.23-.12-6.46-.25-9.7-.37l1.2,8.84c.43-.14,.86-.26,1.3-.36,.22-.05,.44-.08,.65-.13,.7-.17-.6,0,.12-.01,.97-.01,1.91-.08,2.88,0,.22,.02,1.28,.18,.59,.05,.52,.09,1.04,.19,1.56,.3,.97,.21,1.94,.48,2.89,.77,3.99,1.22,7.87,2.81,11.78,4.27,8.17,3.04,16.34,6.09,24.5,9.13,4.59,1.71,9.18,3.42,13.77,5.13v-8.68c-.1,.02-1.23,.21-.66,.13,.48-.07-.37,.03-.45,.04-.63,.06-1.25,.08-1.88,.09-.69,0-1.39-.03-2.08-.09-.28-.02-.55-.05-.83-.09,.67,.08,.11,0-.24-.06-1.24-.22-2.46-.53-3.67-.91-.61-.19-1.21-.4-1.81-.63-.33-.13-.67-.26-1-.39-.73-.29,.93,.43-.31-.14-4.93-2.28-9.43-5.28-13.85-8.4l-4.54,7.77c18.68,11.05,38.03,22.41,59.74,26.11,6.22,1.06,12.51,1.56,18.81,1.2l-1.2-8.84c-1.62,.44-3.25,.76-4.9,1.03,.8-.13,.21-.03-.22,.02s-.83,.08-1.24,.11c-.83,.06-1.66,.1-2.5,.11-1.61,.02-3.22-.05-4.81-.21-.15-.01-1.43-.18-.82-.09s-.67-.11-.82-.13c-.82-.14-1.64-.3-2.46-.49-1.57-.36-3.12-.81-4.65-1.33-.73-.25-1.46-.53-2.18-.82-.78-.31-.06-.03,.08,.04-.16-.07-.33-.14-.49-.22-.44-.2-.87-.4-1.3-.61-1.45-.71-2.86-1.49-4.22-2.35-.65-.41-1.3-.85-1.93-1.3-.34-.24-.67-.49-1.01-.74,.78,.57-.27-.22-.49-.4-1.38-1.14-2.68-2.36-3.89-3.67-.65-.7-1.26-1.42-1.87-2.16-.05-.07-.42-.54-.09-.11s-.13-.18-.19-.26c-.32-.43-.63-.87-.93-1.32l-6.16,6.16c8.38,5.95,18.1,10.09,28.19,12.04,2.3,.44,4.97-.65,5.54-3.14,.51-2.22-.67-5.06-3.14-5.54s-4.7-1.02-7-1.71c-1.19-.36-2.36-.75-3.53-1.17-.55-.2-1.09-.4-1.64-.61-.27-.11-.54-.22-.81-.32-.74-.29,.1,.05-.34-.14-4.48-1.97-8.74-4.34-12.73-7.17-3.65-2.59-8.62,2.52-6.16,6.16,8.55,12.61,23.18,20.31,38.39,20.64,4.26,.09,8.58-.45,12.68-1.58,2.17-.59,3.52-2.75,3.22-4.94s-2.18-4.03-4.42-3.9c-2.63,.15-5.27,.17-7.91,.04-1.24-.06-2.48-.15-3.71-.27-.62-.06-1.23-.13-1.85-.2-.93-.11-.39-.04-.19-.02-.46-.06-.92-.13-1.38-.2-5.16-.79-10.23-2.05-15.2-3.65-2.45-.79-4.87-1.66-7.26-2.6-.65-.26-1.31-.52-1.95-.79-.08-.03-.97-.4-.55-.23s-.47-.2-.55-.23c-1.23-.53-2.45-1.07-3.66-1.63-4.85-2.24-9.6-4.71-14.27-7.3-5.23-2.9-10.38-5.94-15.53-8.99-2.03-1.2-5.03-.53-6.16,1.61-1.22,2.31-.44,4.7,1.61,6.16,9.9,7,21.1,13.77,33.72,11.36,1.85-.35,3.39-2.49,3.3-4.34-.09-2.11-1.36-3.62-3.3-4.34-8.4-3.13-16.8-6.26-25.2-9.39-4.12-1.54-8.25-3.07-12.37-4.61s-8.11-3.17-12.26-4.46c-4.83-1.5-10.08-2.23-15-.68-2.15,.68-3.53,2.68-3.22,4.94s2.16,3.82,4.42,3.9c3.23,.12,6.46,.25,9.7,.37,3.57,.14,5.39-3.88,3.89-6.77-2-3.84-6.1-5.87-10.28-6.17s-8.29,1.75-10.79,5.2c-1.39,1.91-.39,5.1,1.61,6.16,2.33,1.23,4.68,.43,6.16-1.61h0Z"/><path class="cls-2" d="M41.75,122.82l-2.8,1.17c-2.1,.87-3.55,2.53-3.22,4.94,.3,2.24,2.16,3.84,4.42,3.9s4.62,.2,6.92,.42c1.07,.1,2.14,.22,3.21,.35,.01,0,.76,.1,.32,.04-.5-.07,.44,.06,.54,.08,.61,.09,1.22,.18,1.83,.28,4.49,.72,8.93,1.7,13.32,2.88s8.76,2.58,13.06,4.12c2.12,.76,4.22,1.55,6.31,2.37,1.01,.4,2.02,.8,3.02,1.21,.57,.23,1.14,.47,1.72,.71,0,0,.69,.29,.32,.13-.32-.13,.76,.32,.74,.32,17.44,7.46,34.14,16.51,51.63,23.87,9.81,4.13,20.38,8.04,31.13,5.37,2.29-.57,3.88-3.26,3.14-5.54s-3.09-3.75-5.54-3.14c-.52,.13-1.04,.25-1.56,.35-.1,.02-1.03,.17-.52,.1,.46-.07-.28,.03-.3,.03-1.13,.1-2.25,.15-3.39,.12-.53-.01-1.06-.04-1.58-.08-.3-.02-.6-.06-.91-.08-.12-.01-.88-.12-.16-.01-1.14-.17-2.27-.39-3.39-.65-4.39-1.03-8.61-2.67-12.77-4.39-.52-.21-1.03-.43-1.55-.65,.54,.23-.75-.32-.91-.39-1.1-.47-2.2-.95-3.29-1.44-2.19-.97-4.37-1.96-6.54-2.97-4.2-1.95-8.37-3.95-12.54-5.96-16.74-8.08-33.57-16.33-51.51-21.45-10.01-2.86-20.36-4.7-30.77-5l1.2,8.84,2.8-1.17c2.16-.9,3.96-3.02,3.14-5.54-.67-2.08-3.21-4.11-5.54-3.14h0Z"/><path class="cls-2" d="M24.08,123.01c8.22,1.85,16.55,2,24.84,.57,2.2-.38,3.49-2.92,3.22-4.94-.32-2.36-2.16-3.66-4.42-3.9-5.74-.61-11.47-1.21-17.21-1.82v9c2.47,.18,4.93,.4,7.39,.66,1.23,.13,2.45,.26,3.68,.41,.61,.07,1.22,.15,1.84,.22,.31,.04,.61,.08,.92,.12,.1,.01,1.25,.16,.78,.1-.5-.07,.45,.06,.55,.08,.23,.03,.46,.06,.69,.1,.61,.09,1.22,.17,1.83,.26,1.3,.19,2.59,.39,3.88,.6,2.43,.4,4.86,.82,7.28,1.28,9.77,1.85,19.45,4.18,29.02,6.89,19.24,5.45,38.03,12.41,56.51,20.01,1.29,.53,2.58,1.07,3.87,1.6,.72,.3,1.43,.6,2.15,.9,.29,.12,.57,.24,.86,.36,.17,.07,.65,.27,.21,.09,2.64,1.12,5.28,2.24,7.91,3.38,2.45,1.06,4.95,2.04,7.34,3.23,.52,.26,1.01,.56,1.51,.86-.15-.09-.61-.59,0,0,.1,.09,.76,.88,.41,.38s.07,.19,.14,.31c.15,.29,.11,.22-.11-.23l.09,.35c-.13-.15,.03-.98-.06-.13,.03-.28,.54-1.37,.1-.61l5.08-2.07c-28.06-9.51-55.83-19.91-83.23-31.18-7.94-3.26-14.75-6.14-22.64-9.56-2.15-.93-4.93-.71-6.16,1.61-1.03,1.94-.69,5.16,1.61,6.16,27.7,11.99,55.77,23.12,84.18,33.32,7.92,2.85,15.87,5.62,23.85,8.32,1.86,.63,4.13-.42,5.08-2.07,1.59-2.77,1.42-6.25-.29-8.94-1.47-2.32-3.79-3.78-6.24-4.87-4.79-2.13-9.61-4.18-14.44-6.22-9.87-4.17-19.79-8.2-29.83-11.94-19.62-7.32-39.67-13.6-60.2-17.79-11.72-2.39-23.59-4.1-35.52-4.99-2.35-.18-4.6,2.2-4.5,4.5,.12,2.65,1.98,4.23,4.5,4.5,5.74,.61,11.47,1.21,17.21,1.82l-1.2-8.84c-.46,.08-.93,.16-1.39,.23-1.51,.23,.85-.08-.67,.09-.86,.1-1.72,.18-2.58,.24-1.8,.13-3.61,.17-5.41,.12s-3.45-.17-5.16-.37c-1.52-.17,.84,.15-.67-.09-.47-.07-.93-.15-1.39-.23-.93-.16-1.85-.36-2.77-.56-2.29-.52-4.98,.7-5.54,3.14-.52,2.29,.69,4.98,3.14,5.54h0Z"/><path class="cls-2" d="M96.47,116.33c2.35,0,4.61-2.07,4.5-4.5s-1.98-4.5-4.5-4.5c-2.35,0-4.61,2.07-4.5,4.5s1.98,4.5,4.5,4.5h0Z"/><path class="cls-2" d="M20.11,113.64l2.46-.09-1.2-8.84c-.88,.21-1.77,.43-2.65,.64-2.29,.55-3.88,3.27-3.14,5.54,.83,2.57,3.03,3.49,5.54,3.14,.56-.08,.63-.09,.23-.03,.32-.04,.64-.08,.95-.12,.48-.06,.95-.12,1.43-.17,1.03-.12,2.07-.23,3.11-.33,2.15-.2,4.31-.36,6.47-.47,4.16-.21,8.32-.25,12.48-.12s8.32,.43,12.45,.9c.56,.06,1.11,.13,1.67,.2,.24,.03,.48,.06,.71,.09-.4-.06-.33-.04,.23,.03,.95,.14,1.9,.28,2.85,.43,2.21,.35,4.42,.76,6.61,1.21l1.2-8.84c-4.91,.12-9.83,0-14.73-.39s-8.8-.93-13.88-1.9l2.69,6.61c.69-1.38-.43,.47-.49,.26l.25-.16c.43-.22,.35-.19-.25,.08,0-.04,.89-.26,.92-.24-.66,.07-.73,.09-.22,.04,.17-.01,.33-.02,.5-.03,1.87-.06,3.76,.25,5.62,.43,4.31,.43,8.62,.86,12.93,1.28,8.79,.87,17.57,1.74,26.36,2.62,2.35,.23,4.6-2.24,4.5-4.5-.12-2.7-1.99-4.17-4.5-4.5-12.91-1.68-25.82-3.36-38.73-5.04-2.21-.29-4.16,1.93-4.42,3.9s1.01,4.56,3.22,4.94c18.04,3.05,36.13,6.33,53.6,11.86,4.24,1.34,8.45,2.82,12.59,4.45,.89,.35,1.79,.71,2.67,1.08,.23,.09,1.13,.48,.45,.19,.57,.25,1.14,.49,1.7,.74,1.83,.8,3.64,1.64,5.43,2.51,7.1,3.45,13.95,7.46,20.34,12.1,.5,.36,.99,.73,1.49,1.1,.2,.15,1.34,1.03,.72,.54,.86,.67,1.72,1.36,2.56,2.05,1.68,1.39,3.33,2.83,4.93,4.32,3.3,3.08,6.39,6.38,9.25,9.87l5.45-7.07c-14.49-8.27-28.99-16.55-44.07-23.71-15.1-7.18-30.78-13.32-47.1-17.07-9.19-2.11-18.58-3.46-28-3.88-2.35-.11-4.61,2.15-4.5,4.5,.11,2.53,1.98,4.39,4.5,4.5,4.01,.18,8.01,.53,12,1.05-.67-.09,.45,.06,.64,.09,.53,.08,1.07,.16,1.6,.24,.99,.15,1.98,.32,2.97,.49,1.98,.35,3.95,.73,5.91,1.15,7.87,1.68,15.61,3.93,23.2,6.61,3.8,1.34,7.56,2.78,11.28,4.32,.5,.21,1,.41,1.5,.62s.1,.04,0,0c.22,.09,.44,.19,.65,.28,.94,.4,1.89,.81,2.83,1.23,1.88,.83,3.75,1.68,5.61,2.55,7.45,3.47,14.77,7.23,22,11.13,8.21,4.44,16.32,9.06,24.43,13.69,1.96,1.12,4.44,.61,5.81-1.16,1.45-1.88,1.09-4.15-.35-5.91-10.35-12.66-23.83-22.59-38.33-30.01-15.95-8.17-33.18-13.44-50.63-17.31-10.18-2.26-20.46-4.07-30.74-5.81l-1.2,8.84c12.91,1.68,25.82,3.36,38.73,5.04v-9c-9.45-.94-18.9-1.87-28.34-2.81-4.64-.46-9.28-.93-13.92-1.38-4.11-.4-9.07,.22-11.12,4.37-1.19,2.4-.35,6.03,2.69,6.61,10.21,1.96,20.61,2.88,31,2.62,2.25-.06,4.12-1.67,4.42-3.9,.28-2.08-1.02-4.49-3.22-4.94-17.82-3.64-35.99-4.13-53.99-1.62l2.39,8.68c.88-.21,1.77-.43,2.65-.64,4.89-1.18,3.91-9.02-1.2-8.84l-2.46,.09c-2.35,.09-4.61,2.01-4.5,4.5s1.98,4.59,4.5,4.5h0Z"/><path class="cls-1" d="M151.24,198.07c14.04-1.33,27.63-5.68,39.7-13.01,1.92-1.17,2.71-3.55,1.84-5.62-.92-2.17-3.07-3.01-5.31-2.61-15.42,2.8-29.89,11.5-39.72,23.68-2.88,3.57-5.45,7.35-7.55,11.44-.89,1.72-.81,4.06,.7,5.45s3.72,1.8,5.45,.7c11.95-7.52,23.9-15.04,35.84-22.55,2.65-1.67,5.32-3.25,8.13-4.63,1.26-.62-.78,.27,.53-.23,.34-.13,.67-.26,1.01-.38,.67-.24,1.35-.44,2.03-.62,.34-.09,.68-.16,1.02-.23,.13-.03,1.46-.17,.44-.09,.82-.07,1.62-.06,2.44-.05,.2,0,.85,.14,.01-.02,.4,.08,.8,.15,1.2,.26,.27,.07,.53,.16,.79,.24,1.2,.37-.62-.41,.45,.2,.6,.34,1.17,.68,1.75,1.06,.71,.47,.23,.15,.08,.03,.44,.33,.85,.7,1.27,1.06,2.36,2.07,4.59,4.36,7.33,5.95,3.7,2.13,7.89,2.75,11.84,.99,3.45-1.53,6.03-5.04,5.88-8.9l-8.39,2.27c2.89,6.12,5.78,12.25,8.67,18.37,2.05-2.05,4.1-4.1,6.16-6.16-15.35-8.71-31.51-15.98-48.2-21.74-3.06-1.06-6.76,2.38-5.54,5.54,2.97,7.63,9.01,13.1,16.19,16.81,7.2,3.72,15.09,5.58,22.65,8.4,.58,.22,1.17,.44,1.74,.67,.19,.08,.38,.16,.58,.23,.71,.28-.94-.42,.26,.11,1,.45,2,.91,2.98,1.42s1.93,1.04,2.85,1.62c.52,.33,1.04,.67,1.54,1.02,.17,.12,.34,.24,.5,.36,1.1,.79-.66-.54,.4,.31l3.18-7.68c-.89-.06-1.79-.14-2.68-.24-.19-.02-1.64-.22-.65-.07-.41-.06-.82-.12-1.23-.19-1.63-.26-3.25-.59-4.86-.99-1.74-.42-3.46-.92-5.16-1.49-.78-.26-1.56-.54-2.34-.83-.39-.15-.77-.3-1.16-.45-.26-.1-.51-.21-.77-.31,.38,.16,.42,.18,.12,.05-3.15-1.43-6.2-2.99-9.11-4.85-1.45-.93-2.86-1.92-4.23-2.96,.71,.54-.35-.28-.39-.32-.32-.26-.64-.52-.96-.79-.74-.62-1.46-1.26-2.17-1.91l-5.45,7.07c17.08,12.55,34.16,25.09,51.23,37.64,1.43,1.05,3.71,.64,5-.35s2.27-3.08,1.61-4.73c-3.64-9.12-7.28-18.24-10.92-27.36-.84-2.11-2.55-3.54-4.94-3.22-2.22,.3-3.86,2.16-3.9,4.42l-.26,13.54,5.7-4.34c-2.51-.64-4.98-1.39-7.41-2.28-.61-.22-1.21-.45-1.81-.69-.27-.11-.53-.21-.8-.32s-.9-.38-.32-.13c-1.18-.52-2.36-1.05-3.52-1.63-2.25-1.11-4.45-2.34-6.58-3.67-1.1-.69-2.17-1.4-3.23-2.14-.53-.37-1.05-.75-1.57-1.13-.23-.17-.46-.34-.69-.52-1.13-.85,.66,.52-.45-.35l-5.45,7.07c5.96,4.5,11.92,9,17.87,13.5,1.89,1.42,5.11,.36,6.16-1.61,1.25-2.37,.4-4.64-1.61-6.16-5.96-4.5-11.92-9-17.87-13.5-1.78-1.35-4.57-.44-5.81,1.16s-1.41,4.52,.35,5.91c8.99,7.1,19.23,12.34,30.35,15.17,2.87,.73,5.64-1.38,5.7-4.34l.26-13.54-8.84,1.2c3.64,9.12,7.28,18.24,10.92,27.36l6.61-5.08c-17.08-12.55-34.16-25.09-51.23-37.64-1.8-1.33-4.56-.45-5.81,1.16-1.31,1.7-1.31,4.39,.35,5.91,11.53,10.56,26.35,16.88,41.94,17.98,1.77,.13,3.47-1.23,4.11-2.77s.46-3.8-.93-4.92c-6.64-5.33-14.53-8.1-22.54-10.68-1.92-.62-3.84-1.23-5.75-1.9-.82-.29-1.64-.59-2.45-.9-.41-.16-.81-.32-1.21-.48-.07-.03-.65-.28-.15-.06,.57,.25-.39-.17-.5-.22-1.6-.72-3.17-1.5-4.68-2.38-.75-.43-1.49-.89-2.21-1.37-.36-.24-.71-.49-1.06-.74-.15-.11-.3-.22-.45-.33-.95-.69,.4,.36-.1-.08-1.47-1.29-2.83-2.57-4.09-4.07-.33-.39,.13,.16,.16,.2-.17-.25-.35-.48-.52-.73-.27-.4-.52-.8-.77-1.21s-.47-.84-.69-1.27c-.08-.16-.16-.33-.24-.49-.53-1.09,.33,.86-.11-.27l-5.54,5.54c8.17,2.82,15.79,5.83,23.19,9.19,7.79,3.53,15.42,7.42,22.85,11.64,1.68,.95,4.1,.77,5.45-.7,1.44-1.57,1.59-3.57,.7-5.45-2.89-6.12-5.78-12.25-8.67-18.37-.81-1.71-3.32-2.64-5.08-2.07s-3.38,2.31-3.3,4.34c.01,.29-.12,1.33,.05,.11-.09,.61,.16,.02,.12-.17,.05,.26-.87,1.03-.02,.17-.15,.16-.32,.32-.47,.48-.68,.72,.5-.21-.04,0-.26,.1-.5,.29-.75,.41,.91-.43,.22-.12-.06-.05-1.09,.29,.51,.16-.32,.05-.24-.03-.51-.01-.75-.03,1.02,.08-.24-.1-.4-.14-.26-.07-.51-.16-.77-.25,.79,.28-.03-.03-.23-.13-.61-.32-1.2-.69-1.77-1.08-.16-.11-.88-.67-.26-.17-.32-.26-.64-.53-.96-.8-2.36-2.05-4.55-4.35-7.27-5.94s-6.1-2.47-9.33-2.32c-6.48,.3-12.31,3.56-17.67,6.93-5.76,3.62-11.53,7.25-17.29,10.88-6.47,4.07-12.93,8.14-19.4,12.21l6.16,6.16c1.66-3.24,3.61-6.3,5.8-9.2-.6,.8,.33-.41,.46-.56,.24-.29,.48-.58,.72-.87,.65-.77,1.31-1.52,1.99-2.25,1.24-1.33,2.53-2.61,3.87-3.83,.65-.59,1.31-1.17,1.98-1.73,.34-.28,.68-.56,1.02-.83,.15-.12,.3-.23,.44-.35,.41-.34-.55,.4,.13-.1,1.46-1.08,2.94-2.13,4.48-3.1s3.11-1.87,4.73-2.7c.78-.4,1.57-.79,2.36-1.16,.45-.21,.91-.41,1.37-.62,.07-.03,.65-.28,.15-.07-.57,.24,.51-.2,.5-.2,3.84-1.54,7.82-2.68,11.89-3.42l-3.47-8.22c-2.77,1.68-5.63,3.22-8.56,4.59-.73,.34-1.48,.66-2.22,.99-.29,.12-.27,.12,.06-.02l-.41,.17c-.41,.17-.82,.33-1.23,.49-1.51,.59-3.03,1.14-4.57,1.65-3.08,1.02-6.21,1.87-9.38,2.54-1.51,.32-3.03,.6-4.56,.84-.36,.06-.73,.11-1.09,.16-1.07,.16,.43-.04-.56,.07-.88,.1-1.76,.2-2.64,.28-2.34,.22-4.62,1.91-4.5,4.5,.1,2.25,1.99,4.74,4.5,4.5h0Z"/><path class="cls-1" d="M188.1,173.14c8.32,4.18,16.7,8.36,25.54,11.35,4.6,1.55,9.41,2.98,14.3,2.32s8.76-3.65,10.57-8.18c1.33-3.32-2.52-6.33-5.54-5.54-1.09,.29-2.19,.5-3.3,.71-.98,.18,.62-.04-.46,.06-.55,.05-1.11,.11-1.66,.15-1.95,.13-3.91,.11-5.87,0-.99-.06-1.97-.14-2.95-.24-.56-.06-1.13-.13-1.69-.19-.54-.07-.56-.07-.07,0-.28-.04-.57-.08-.85-.12-1.99-.29-3.97-.62-5.95-.96-8.7-1.49-17.34-2.92-26.15-1.48-1.72,.28-3.01,2.16-3.22,3.74-.22,1.67,.55,3.69,2.15,4.48,7.77,3.86,15.81,7.21,24.04,9.96,4.12,1.38,8.45,3,12.78,3.49,5.17,.58,10.22-2.66,10.48-8.13,.11-2.35-2.15-4.61-4.5-4.5-2.62,.12-4.27,1.98-4.5,4.5-.06,.61-.11,1.22-.17,1.84-.31,3.42,4.05,5.58,6.77,3.89,1.56-.97,3.12-1.94,4.68-2.92,2-1.24,2.96-4.07,1.61-6.16s-4.02-2.95-6.16-1.61c-1.56,.97-3.12,1.94-4.68,2.92l6.77,3.89c.06-.61,.11-1.22,.17-1.84h-9c.02-.5,.17-.8,.52-1l-.31,.19c-.46,.23-.43,.22,.08-.03-.77-.01,.35,.12-.24,.05-.16-.02-1.35-.08-.94-.02,.52,.08-.62-.14-.72-.17-.89-.21-1.77-.47-2.65-.72-3.46-.99-6.89-2.08-10.28-3.27-1.62-.57-3.24-1.17-4.84-1.79-.88-.34-1.75-.68-2.62-1.03-.44-.18-.87-.35-1.3-.53-.12-.05-1.3-.54-.66-.27-3.31-1.4-6.58-2.92-9.8-4.52l-1.07,8.22c.28-.05,.56-.09,.84-.13-.5,.07-.47,.07,.06,0,.56-.05,1.12-.11,1.68-.15,.98-.06,1.97-.09,2.96-.09,1.98,0,3.97,.13,5.94,.34,.57,.06,1.13,.13,1.7,.19,1.09,.12-.48-.08,.51,.07,1.14,.16,2.27,.34,3.41,.52,1.99,.33,3.97,.68,5.96,1.01,8.59,1.45,17.33,2.58,25.89,.32l-5.54-5.54c.41-1.03-.15,.1-.27,.32-.18,.27-.13,.19,.17-.22-.15,.17-.32,.34-.49,.5-.58,.66,.62-.33-.2,.17-.31,.19-.61,.36-.92,.54-.86,.48,.63-.13-.25,.1-.39,.1-.82,.19-1.21,.32-.3,.06-.23,.05,.21,0-.31,.03-.62,.06-.93,.07-.46,.02-.93,.01-1.39-.02-.02,0-1.43-.16-.65-.04-.46-.07-.92-.16-1.38-.26-1.07-.23-2.12-.52-3.17-.83-1.86-.55-3.7-1.16-5.53-1.82-.95-.34-1.89-.7-2.83-1.07-.43-.17-.87-.34-1.3-.52,.01,0-1.3-.53-.65-.26-1.86-.78-3.7-1.62-5.53-2.47-3.67-1.71-7.28-3.53-10.89-5.34-2.1-1.06-4.97-.63-6.16,1.61-1.08,2.04-.63,5.03,1.61,6.16h0Z"/><path class="cls-1" d="M244.76,173.85l1.24-2.07c.33-.52,.51-1.07,.53-1.67,.13-.6,.11-1.2-.08-1.79-.14-.59-.41-1.1-.81-1.53-.32-.49-.74-.88-1.26-1.16l-1.07-.45c-.8-.21-1.6-.21-2.39,0l-1.07,.45c-.68,.4-1.21,.94-1.61,1.61l-1.24,2.07c-.33,.52-.51,1.07-.53,1.67-.13,.6-.11,1.2,.08,1.79,.14,.59,.41,1.1,.81,1.53,.32,.49,.74,.88,1.26,1.16l1.07,.45c.8,.21,1.6,.21,2.39,0l1.07-.45c.68-.4,1.21-.94,1.61-1.61h0Z"/><path class="cls-1" d="M185.13,158.45c.79,.19,1.62,1.05,1.85,1.82,0-.03,.09,1.04,.09,.55s-.13,.66-.21,.83c-.14,.31-.32,.51-.54,.77,.55-.63,.1-.05-.06,.02-.81,.38-.29,.08-.06,.03,.12-.03,1.14-.28,.51-.15-.54,.11,.05,0,.15-.01,.27-.02,.54-.04,.81-.06,.58-.04,1.17-.06,1.75-.08,1.09-.03,2.19-.03,3.28,0,2.27,.07,4.52,.28,6.78,.53,.14,.02,.88,.11,.11,0,.22,.03,.44,.06,.65,.09,.51,.07,1.02,.15,1.53,.23,1.17,.18,2.33,.39,3.49,.6,9.09,1.68,18.05,4.04,27.27,4.95,5.34,.53,10.63,.38,15.93-.51l-5.54-5.54c-.14,.44-.41,.87-.04,.21-.2,.35-.36,.71-.57,1.05-.09,.14-.2,.28-.28,.43,.02-.04,.52-.6,.19-.24-.31,.34-.6,.68-.94,1-.12,.11-.91,.77-.47,.43s-.56,.37-.69,.44c-.3,.18-.61,.36-.92,.52-.16,.08-.32,.15-.47,.24-.55,.32,.7-.24,.1-.03-.73,.26-1.45,.51-2.2,.69-.18,.04-1.42,.31-.79,.18,.57-.12,.02,0-.1,0-.31,.03-.62,.05-.93,.07-1.01,.05-2.02,.03-3.03-.04-.23-.02-.46-.04-.7-.06,0,0-.77-.09-.33-.03s-.32-.05-.33-.05c-.39-.06-.77-.13-1.16-.2-4.15-.79-8.2-2.07-12.3-3.1s-8.39-2.02-12.62-2.91c-4.86-1.02-9.75-1.93-14.65-2.73-2.24-.37-4.38,.4-5.31,2.61-.84,1.99-.14,4.54,1.84,5.62,15.71,8.53,33.43,13.11,51.31,13.2,2.35,.01,4.61-2.08,4.5-4.5s-1.98-4.49-4.5-4.5c-4.19-.02-8.37-.3-12.53-.81-.55-.07-.59-.08-.14-.02-.3-.04-.59-.08-.89-.13-.44-.07-.89-.13-1.33-.21-1.03-.17-2.06-.35-3.09-.55-2.06-.4-4.1-.86-6.13-1.38-4.06-1.04-8.05-2.33-11.95-3.85-.42-.16-.83-.33-1.25-.5-.28-.11-.55-.23-.83-.34,.39,.16,.33,.14-.16-.07-.96-.42-1.92-.84-2.86-1.29-1.9-.89-3.76-1.84-5.6-2.84l-3.47,8.22c9.33,1.53,18.59,3.44,27.75,5.76,8.52,2.16,18.01,5.82,26.65,2.22,4.63-1.93,8.33-5.26,9.89-10.13,.48-1.51-.06-3.28-1.16-4.38-1.22-1.22-2.75-1.43-4.38-1.16-.17,.03-1.85,.27-.97,.16-.65,.08-1.3,.15-1.95,.2-1.3,.11-2.6,.16-3.9,.16-2.46,.01-4.92-.14-7.37-.4-.65-.07-1.3-.15-1.95-.23,.87,.11-.81-.12-.97-.15-1.31-.2-2.61-.42-3.91-.66-2.47-.45-4.93-.96-7.39-1.48-10.03-2.12-20.49-4.64-30.81-3.7-3.61,.33-7.21,1.66-8.47,5.41-1.15,3.41,.75,7.55,4.35,8.42,2.28,.55,4.98-.72,5.54-3.14s-.7-4.94-3.14-5.54h0Z"/><path class="cls-1" d="M149.86,191.57c5.03-.56,10.08-1.05,15.09-1.77,4.58-.66,9.14-1.79,13.19-4.1,7.99-4.57,12.77-14.39,8.69-23.14-1.34-2.88-6.48-3.01-7.77,0s-2.69,5.65-4.37,8.29c-.82,1.29-1.7,2.54-2.62,3.76,.37-.49-.08,.1-.24,.29-.23,.28-.46,.57-.69,.85-.56,.67-1.14,1.33-1.72,1.97-2.69,2.96-.76,7.45,3.18,7.68,6.92,.4,12.47-4.93,14.81-11.02,2.59-6.76,.38-14.36-2.06-20.82-.83-2.2-3.07-3.94-5.54-3.14-2.14,.69-4.03,3.18-3.14,5.54,1.03,2.73,2.01,5.5,2.56,8.37,.02,.1,.22,1.24,.14,.75-.06-.41,.05,.45,.06,.53,.07,.75,.11,1.51,.1,2.26,0,.38-.03,.75-.05,1.13-.01,.28-.06,.65,0,.16-.08,.61-.23,1.23-.41,1.82-.07,.23-.15,.45-.22,.67-.34,1.06,.28-.48-.02,.08-.25,.47-.48,.96-.76,1.42-.16,.25-.34,.49-.49,.74-.27,.45,.5-.55-.06,.07-.36,.39-.71,.78-1.1,1.13-.37,.33-.51,.41-.03,.07-.23,.17-.47,.33-.71,.48s-.49,.28-.74,.42c-.48,.26-.17,.05,.15-.04-.1,.03-1.62,.42-1.63,.45,.03-.11,.95-.05,.18-.05-.35,0-.69,0-1.04-.02l3.18,7.68c4.57-5.03,8.36-10.73,11.05-16.98h-7.77c.21,.46,.2,.43-.04-.11,.08,.22,.15,.44,.21,.66,.08,.28,.27,.73,.22,1-.08-.63-.09-.69-.04-.18,.01,.17,.02,.34,.02,.51,0,.29,.1,.95-.04,1.2,.09-.57,.1-.68,.05-.34-.03,.17-.06,.34-.09,.51-.1,.46-.22,.91-.36,1.35-.08,.23-.48,1.23-.05,.25-.14,.33-.3,.65-.47,.97-.39,.75-.85,1.45-1.35,2.13,.63-.86-.19,.18-.34,.34-.28,.31-.58,.61-.89,.9-.26,.25-.54,.48-.81,.71,.86-.73-.41,.26-.59,.37-.76,.49-1.55,.92-2.36,1.3-.19,.09-.37,.18-.56,.26,.44-.18,.42-.17-.07,.02-.39,.14-.78,.29-1.17,.42-.92,.31-1.86,.57-2.8,.8s-1.91,.42-2.88,.59c-.42,.07-.83,.14-1.25,.21-.15,.02-1.54,.22-1.07,.16s-.92,.11-1.08,.13c-.42,.05-.84,.1-1.25,.15-1.09,.12-2.19,.25-3.28,.37l-6.85,.77c-2.33,.26-4.62,1.88-4.5,4.5,.1,2.21,1.99,4.78,4.5,4.5h0Z"/><path class="cls-1" d="M146.12,186.81c-4.22,14.74-8.44,29.49-12.66,44.23-1.27,4.44,4.31,7.37,7.52,4.38,5.7-5.32,11.56-10.45,17.59-15.39,1.49-1.22,3-2.43,4.51-3.63,.79-.62,1.58-1.24,2.37-1.86,.18-.14,.37-.28,.55-.43-.08,.06-.4,.31,0,0,.43-.33,.86-.66,1.29-.99,3.07-2.34,6.17-4.63,9.32-6.87,3.64-2.6,7.34-5.12,11.08-7.58,1.96-1.29,2.98-4.04,1.61-6.16-1.26-1.96-4.05-3-6.16-1.61-13.4,8.81-26.24,18.52-38.37,29.01-3.44,2.98-6.83,6.02-10.15,9.13l7.52,4.38c4.22-14.74,8.44-29.49,12.66-44.23,.65-2.26-.79-5-3.14-5.54s-4.84,.72-5.54,3.14h0Z"/><path class="cls-1" d="M206.02,150.65c9.46-.13,18.93-.25,28.39-.38l7.22-.1c2.27-.03,4.6-.17,6.86,.12-.68-.09,.66,.15,.85,.19,.46,.11,.91,.25,1.36,.4,.8,.27-.48-.29,.25,.13,.42,.24,.83,.49,1.23,.75-.81-.53,.1,.14,.3,.35,.11,.11,.55,.7,.22,.22s.02,.05,.05,.12c.11,.21,.23,.42,.34,.63-.05-.09-.19-.7-.13-.25,0,.04,.16,.5,.14,.51-.05-.56-.06-.67-.04-.33,.01,.12,.02,.23,.02,.35,0,.18,0,.35,0,.53-.01,1,.19-.47-.02,.02-.06,.15-.1,.35-.14,.51-.25,.96,.28-.36-.02,.06-.1,.14-.18,.31-.26,.46-.47,.83,.35-.24-.05,.06-.12,.09-.27,.25-.38,.37,.52-.6,.18-.14-.12,.04-.16,.09-.32,.17-.49,.26,.84-.41,.1-.09-.14-.03-.18,.04-.36,.08-.54,.11,1-.17,.16-.07-.09-.07-.18,0-.37-.02-.55-.03,1.04,.08,.16-.07-.06-.09-.44-.04,.1,.08,.22,.13-.34-.16-.64-.34-.96-.55l1.61,6.16c1.17-2.42,2.35-4.83,3.52-7.25,.81-1.67,.82-3.48-.35-5s-2.95-2.04-4.73-1.61c-.82,.2-1.64,.38-2.47,.52-.41,.07-.83,.14-1.24,.2,.83-.12-.41,.04-.68,.06-1.74,.17-3.49,.24-5.24,.23-3.55-.02-7.08-.35-10.6-.77-7.11-.84-14.22-2.09-21.41-1.97-4.21,.07-8.47,.62-12.51,1.85-2.15,.66-3.52,2.7-3.22,4.94,.32,2.39,2.16,3.61,4.42,3.9,9.45,1.21,18.9,2.41,28.34,3.62,4.66,.6,9.33,1.16,13.99,1.79-.87-.12,.61,.1,.78,.12,.51,.09,1.02,.18,1.52,.3,.57,.13,1.13,.3,1.69,.48,1.17,.38-.45-.32,.48,.21,.17,.1,1.48,.96,.66,.32,.3,.23,.54,.51,.83,.76,.33,.38,.33,.37,0-.05,.14,.2,.27,.41,.39,.62,.23,.46,.22,.44-.02-.07,.08,.23,.14,.47,.18,.71,.51,2.3,3.3,3.87,5.54,3.14,2.42-.78,3.69-3.07,3.14-5.54-1.15-5.17-6.03-8.34-10.93-9.38-5.16-1.09-10.56-1.45-15.79-2.12-10.27-1.31-20.54-2.62-30.81-3.93l1.2,8.84c1.67-.51,3.37-.91,5.09-1.18,.21-.03,.41-.06,.62-.09-.08,.01-.7,.07-.17,.03,.41-.03,.83-.09,1.24-.12,.9-.08,1.8-.13,2.7-.15,3.52-.1,7.04,.15,10.53,.52,7.15,.76,14.26,2.08,21.47,2.19,4.24,.07,8.53-.33,12.66-1.33l-5.08-6.61c-1.17,2.42-2.35,4.83-3.52,7.25-1.11,2.28-.55,4.73,1.61,6.16,5.02,3.31,11.93,1.76,15.27-3.13,3.12-4.58,2.16-11.07-2.01-14.65-4.49-3.86-10.18-4.06-15.83-3.99s-11.46,.15-17.19,.23l-19.18,.25c-2.35,.03-4.61,2.05-4.5,4.5s1.98,4.53,4.5,4.5h0Z"/><path class="cls-1" d="M208.93,133.51l-7.47,.82c-.62-.02-1.2,.11-1.73,.39-.56,.18-1.04,.49-1.45,.93-.78,.78-1.37,2.06-1.32,3.18s.43,2.37,1.32,3.18c.82,.76,2.02,1.44,3.18,1.32l7.47-.82c.62,.02,1.2-.11,1.73-.39,.56-.18,1.04-.49,1.45-.93,.78-.78,1.37-2.06,1.32-3.18s-.43-2.37-1.32-3.18c-.82-.76-2.02-1.44-3.18-1.32h0Z"/><path class="cls-1" d="M173.5,150.2c1.51,2.87,3.02,5.74,4.53,8.61l7.07-5.45c-2.35-2.32-4.71-4.63-7.06-6.95l-5.45,7.07c.41,.31,.42,.31,.03,0,.21,.16,.41,.33,.61,.5,.4,.34,.78,.7,1.16,1.07,.65,.65,1.27,1.33,1.84,2.05-.6-.78,.35,.54,.45,.69,.22,.33,.42,.66,.62,1,.26,.45,.51,.92,.75,1.39,.12,.24,.23,.47,.34,.71-.19-.47-.19-.47,0,.02,1.12,2.84,3.78,4.05,6.61,2.69,10.3-4.95,19.58-12.15,26.93-20.9l-3.18,1.32c18.72-.69,37.42,.73,56.08,2.17l-2.27-8.39c-4.55,2.28-8.4,6.23-10.47,10.89-.92,2.08-.75,4.33,1.16,5.81,1.74,1.34,4.33,1.26,5.91-.35,3.69-3.78,7.38-7.55,11.07-11.33,1.65-1.69,1.8-4.71,0-6.36s-4.61-1.8-6.36,0c-3.69,3.78-7.38,7.55-11.07,11.33l7.07,5.45c.42-.94,.89-1.85,1.45-2.71,.1-.16,1.07-1.43,.43-.65,.33-.4,.66-.78,1.02-1.16s.72-.73,1.11-1.07c.19-.17,.39-.34,.59-.5-.41,.3-.41,.3,0,0,.85-.58,1.72-1.12,2.64-1.58,1.7-.85,2.65-3.29,2.07-5.08-.65-1.99-2.28-3.15-4.34-3.3-12.55-.97-25.11-1.93-37.7-2.25-3.06-.08-6.12-.11-9.19-.1-3.22,.01-6.59-.16-9.78,.26-2.08,.28-3.09,1.87-4.37,3.3-.89,.99-1.8,1.96-2.74,2.9-1.88,1.89-3.85,3.67-5.92,5.36-.27,.22-.54,.44-.82,.66-.16,.13-.33,.26-.5,.39,.3-.23,.33-.25,.08-.06-.62,.46-1.23,.92-1.86,1.37-1.14,.81-2.3,1.6-3.48,2.35-2.6,1.65-5.3,3.14-8.08,4.48l6.61,2.69c-2.08-5.25-5.35-9.49-9.92-12.82-1.81-1.32-4.55-.46-5.81,1.16-1.35,1.74-1.26,4.32,.35,5.91,2.35,2.32,4.71,4.63,7.06,6.95,1.6,1.58,4.14,1.72,5.91,.35s2.22-3.8,1.16-5.81l-4.53-8.61c-1.1-2.09-4.18-2.89-6.16-1.61-2.12,1.37-2.79,3.93-1.61,6.16h0Z"/><path class="cls-1" d="M173.61,115.98c1.18,12.29,7.08,23.99,16.79,31.75,1.83,1.47,4.6,1.93,6.36,0s1.66-4.47,0-6.36c-.43-.49-.85-.99-1.27-1.49-.16-.19-.62-.77-.24-.28-.18-.23-.35-.46-.52-.7-.82-1.11-1.59-2.25-2.31-3.42-.68-1.11-1.33-2.25-1.92-3.41-.3-.58-.58-1.17-.86-1.76-.12-.26-.24-.53-.36-.79-.58-1.3,.31,.79-.22-.53l-7.52,4.38c6.37,5.16,13.28,9.49,20.82,12.73l2.27-8.39c-.07,0-1.44-.21-.49-.06-.35-.06-.7-.1-1.05-.16-.7-.11-1.4-.24-2.09-.38-1.46-.29-2.91-.63-4.35-1.02s-2.86-.84-4.27-1.33c-.67-.24-1.33-.48-2-.74-.33-.13-.66-.26-.99-.39-1.29-.52,.78,.36-.49-.21-2.66-1.19-5.24-2.53-7.71-4.06-1.27-.78-2.51-1.61-3.71-2.49-.34-.25-.69-.5-1.03-.76-.24-.18-.46-.38-.1-.08-.19-.16-.56-.59-.78-.69l.29,.37c.72,2.16,.1,3.66-1.87,4.48h-2.39l.28,.05-2.69-6.61c-1.65,2.4-3.27,5.08-3.83,7.98-.71,3.67,.1,7.16,2.59,9.98,1.86,2.11,4.61,3.38,7.24,4.23,1.25,.41,2.52,.72,3.78,1.11,.33,.1,.66,.21,.99,.33,.16,.06,1.01,.43,.27,.08,.62,.3,1.22,.62,1.79,1.01,3.69,2.47,8.65-2.46,6.16-6.16-1.91-2.84-3.83-5.68-5.74-8.51l-7.07,5.45c4.53,4.09,9.07,8.17,13.6,12.26l1.99-7.52c-1.2,.4-2.42,.71-3.67,.92-.52,.09-.66,.07-.05,.02-.3,.03-.6,.06-.9,.09-.66,.05-1.32,.08-1.98,.08-.6,0-1.2-.02-1.8-.06-.3-.02-.6-.05-.9-.08-.52-.05-.66-.1-.06,0-1.25-.21-2.48-.47-3.7-.83-.58-.17-1.15-.37-1.71-.58-.28-.11-.56-.22-.84-.33,.92,.38,.11,.03-.08-.06-1.14-.54-2.25-1.15-3.3-1.85-.25-.17-.5-.34-.74-.51-.37-.26-.58-.43-.1-.05-.47-.37-.93-.76-1.37-1.17-.98-.9-1.87-1.87-2.69-2.91-1.47-1.85-4.85-1.65-6.36,0-1.81,1.97-1.57,4.39,0,6.36,7.49,9.45,21.24,13.39,32.65,9.64,3.04-1,4.63-5.14,1.99-7.52-4.53-4.09-9.07-8.17-13.6-12.26-1.68-1.51-4.08-1.76-5.91-.35-1.67,1.29-2.42,3.94-1.16,5.81,1.91,2.84,3.83,5.68,5.74,8.51l6.16-6.16c-2.05-1.37-4.44-2.12-6.8-2.79-1.02-.29-2.03-.58-3.03-.94-.46-.16-.29-.14,.06,.03-.22-.11-.44-.21-.66-.32s-.43-.23-.64-.35c-.1-.06-.96-.61-.44-.26,.45,.31-.15-.14-.23-.22-.17-.16-.32-.35-.49-.5-.39-.36,.28,.56,.07,.07-.03-.08-.42-.75-.19-.28s-.07-.33-.1-.41c-.23-.48-.05,.53-.02,0,.01-.25,.02-.55,0-.8-.03-.58-.19,.55,0,0,.18-.52,.31-1.08,.48-1.6,.2-.64-.29,.48,.05-.11,.14-.25,.26-.52,.39-.78,.58-1.09,1.26-2.12,1.95-3.14,1.53-2.23,.08-6.16-2.69-6.61-1.94-.32-3.7-.09-5.17,1.29-1.12,1.06-1.88,2.64-1.88,4.2,0,2.9,1.9,4.67,4,6.3,3.09,2.38,6.39,4.49,9.86,6.27,7.41,3.79,15.29,6.09,23.54,7.08,1.86,.22,3.94-1.55,4.34-3.3s-.21-4.28-2.07-5.08c-3.51-1.51-6.92-3.24-10.19-5.2-1.64-.98-3.24-2.02-4.8-3.11-.72-.5-1.44-1.02-2.14-1.55-.09-.06-1.07-.82-.49-.36-.46-.36-.92-.73-1.38-1.1-1.52-1.23-3.66-1.86-5.45-.7-1.54,.99-2.83,3.21-2.07,5.08,2.45,6.03,5.73,11.46,10.02,16.36l6.36-6.36c-2.1-1.68-4.03-3.54-5.77-5.59-.21-.25-.42-.51-.63-.76-.54-.64,.16,.24-.14-.17-.38-.53-.77-1.05-1.14-1.6-.77-1.14-1.49-2.31-2.15-3.52s-1.2-2.33-1.72-3.53c.26,.59,.07,.15-.07-.2-.12-.3-.24-.61-.35-.92-.23-.61-.44-1.23-.63-1.86-.41-1.31-.76-2.64-1.04-3.99-.13-.64-.25-1.28-.35-1.93-.07-.42-.1-.82-.03-.16-.04-.39-.09-.78-.12-1.17-.22-2.34-1.91-4.62-4.5-4.5-2.24,.1-4.74,1.99-4.5,4.5h0Z"/><path class="cls-1" d="M152.29,137.29l6.42,3.37,1.07-8.22c.72-.22,1.36-.14,1.94,.24-.34-.21-.36-.21-.07-.01,.22,.12,.38,.31,.49,.55-.25-.43-.25-.38,0,.18l-.1-.32c.05,.65,.06,.71,.04,.2-.03,.92,.06-.11,.13-.36-.23,.87,.18-.32,.32-.55,.24-.41,.51-.8,.78-1.19,.54-.77,1.1-1.51,1.65-2.27,2.55-3.49,5.09-6.97,7.64-10.46,5.09-6.97,10.18-13.94,15.27-20.91h-7.77c6,13.6,11.99,27.2,17.99,40.8,1.69-2.2,3.39-4.41,5.08-6.61-.72-.15-1.43-.33-2.13-.56-.37-.12-1.01-.38-.29-.07-.33-.14-.66-.3-.99-.47-.65-.33-1.28-.7-1.89-1.11-.31-.2-.6-.42-.9-.63,.82,.59-.07-.07-.24-.22-1.14-.97-2.14-2.06-3.1-3.21,.63,.76-.07-.1-.2-.28-.22-.3-.43-.61-.64-.93-.44-.68-.86-1.37-1.24-2.09s-.71-1.39-1.03-2.11c-.13-.29-.12-.27,.02,.04-.08-.21-.17-.42-.25-.63-.16-.42-.31-.84-.46-1.27-.58-1.7-1.05-3.44-1.44-5.19s-.7-3.55-.97-5.33c-.07-.45-.13-.9-.19-1.34-.04-.32-.04-.3,0,.07-.03-.22-.06-.45-.09-.67-.12-.97-.24-1.94-.36-2.91-.23-1.92-1.23-3.87-3.3-4.34s-3.87,.37-5.08,2.07c-7.54,10.52-13.73,21.86-18.74,33.79-.86,2.06,.77,4.53,2.61,5.31,2.19,.92,4.28,0,5.62-1.84,.31-.43,.62-.86,.93-1.29,1.39-1.91,.39-5.1-1.61-6.16-2.33-1.23-4.68-.43-6.16,1.61-.31,.43-.62,.86-.93,1.29l8.22,3.47c-.26,.63,.12-.27,.16-.38,.15-.35,.3-.69,.45-1.04,.3-.69,.61-1.38,.92-2.07,.65-1.44,1.33-2.87,2.03-4.3,1.36-2.78,2.8-5.52,4.31-8.21,3.02-5.4,6.36-10.61,9.96-15.64l-8.39-2.27c1.01,8.29,2.04,16.79,6.16,24.21,3.54,6.37,9.52,11.86,16.81,13.37,1.81,.37,3.57-.11,4.73-1.61s1.11-3.29,.35-5c-6-13.6-11.99-27.2-17.99-40.8-.62-1.4-2.44-2.23-3.89-2.23-1.71,0-2.92,.91-3.89,2.23-5.97,8.18-11.94,16.36-17.91,24.53-1.47,2.01-2.94,4.02-4.41,6.03-1.3,1.78-2.75,3.5-3.65,5.52-1.21,2.7-1.47,5.75,.08,8.4,1.75,2.99,4.66,4.11,7.98,3.65,1.72-.24,3.02-2.2,3.22-3.74,.23-1.7-.56-3.65-2.15-4.48-2.14-1.12-4.28-2.25-6.42-3.37s-4.99-.6-6.16,1.61c-1.1,2.08-.61,4.99,1.61,6.16h0Z"/><path d="M151.86,133.62l33.19-45.52h-2.59c7.11,15.08,14.22,30.16,21.33,45.24,.82,1.75,3.41,.22,2.59-1.51-7.11-15.08-14.22-30.16-21.33-45.24-.53-1.12-1.99-.82-2.59,0l-33.19,45.52c-1.14,1.56,1.46,3.06,2.59,1.51h0Z"/><path d="M205.37,134.69c17.45,.92,34.91,1.84,52.36,2.75l14.96,.79-1.3-2.26c-8.57,15.45-19.12,29.76-31.39,42.48-3.51,3.64-7.16,7.15-10.94,10.53-1.44,1.29,.69,3.41,2.12,2.12,13.35-11.95,25.13-25.64,34.95-40.62,2.78-4.23,5.39-8.57,7.84-13,.57-1.03-.16-2.2-1.3-2.26-17.45-.92-34.91-1.84-52.36-2.75l-14.96-.79c-1.93-.1-1.92,2.9,0,3h0Z"/><path d="M228.54,191.21c9.02,16.69,16.58,34.12,22.61,52.1l2.2-1.69c-19.21-8.72-37.39-19.74-53.93-32.83-4.66-3.69-9.2-7.55-13.6-11.55-1.43-1.3-3.55,.82-2.12,2.12,15.75,14.31,33.22,26.73,51.95,36.83,5.3,2.86,10.7,5.53,16.19,8.02,1.09,.49,2.66-.34,2.2-1.69-6.1-18.22-13.77-35.91-22.91-52.82-.92-1.7-3.51-.19-2.59,1.51h0Z"/><path d="M183.51,197.55c-12.68,11.52-26.15,22.16-40.31,31.81-3.99,2.72-8.04,5.36-12.14,7.92l2.2,1.69c4.65-18.51,9.3-37.03,13.95-55.54,.47-1.87-2.42-2.67-2.89-.8-4.65,18.51-9.3,37.03-13.95,55.54-.31,1.23,1.06,2.41,2.2,1.69,14.68-9.18,28.71-19.38,41.97-30.51,3.76-3.16,7.46-6.39,11.09-9.69,1.43-1.3-.69-3.42-2.12-2.12h0Z"/><path d="M175.27,158.7c-10.15-2.9-19.56-7.72-28.96-12.42-7.28-3.64-14.65-7.01-22.19-10.07-14.74-6-29.81-11.26-45.12-15.63s-30.24-8.03-45.7-8.4c-3.08-.08-6.13,.08-9.19,.4-1.8,.19-3.72,.39-5.51-.04-.8-.19-1.56-.5-2.17-1.08-.57-.54-1.34-1.64-1.23-2.47,.17-1.33,2.51-2.07,3.57-2.44,1.88-.66,3.85-1.05,5.82-1.36,4.11-.63,8.28-.78,12.43-1.11,5.23-.42,10.43-.87,15.69-.91,5.6-.04,11.21,.24,16.79,.83,8.43,.9,16.91,2.41,24.95,5.17,13.98,4.8,27.35,11.66,40.19,18.91,6.65,3.75,13.19,7.72,19.48,12.03,4.98,3.41,9.93,7.03,14.14,11.38,3.3,3.41,6.43,7.48,7.34,12.25,.82,4.28-.85,8.37-3.93,11.32-6.94,6.65-17.82,6.98-26.7,5.18-14.54-2.94-27.69-10.94-40.76-17.62-6.6-3.37-13.23-6.68-19.98-9.74-5.83-2.65-11.78-5.25-17.96-6.98-2.1-.59-4.27-1.07-6.46-1.18-1.93-.09-1.93,2.91,0,3,5.05,.23,10.51,2.53,15.29,4.46,6.95,2.81,13.72,6.08,20.43,9.41,6.3,3.13,12.54,6.38,18.8,9.61s12.9,6.52,19.7,9c9.75,3.55,21.13,5.79,31.19,2.14,4.03-1.46,7.82-3.83,10.45-7.26s3.73-8.1,2.76-12.53c-1.7-7.79-8.2-13.92-14.2-18.72-5.56-4.45-11.52-8.41-17.57-12.16-13.62-8.43-27.93-15.96-42.74-22.1-6.13-2.54-12.33-4.7-18.83-6.1-11.25-2.41-22.78-3.52-34.28-3.29-5.15,.1-10.25,.64-15.38,1.01-4.35,.31-8.73,.55-13.03,1.34-1.97,.36-3.92,.86-5.76,1.65-1.63,.7-3.46,1.69-4.13,3.43-.75,1.94,.21,4.13,1.51,5.62s3.19,2.17,5.11,2.42c3.4,.43,6.88-.37,10.29-.47s6.77,.06,10.14,.36c7.87,.7,15.66,2.18,23.34,3.96,16.7,3.85,33.08,9.16,49.12,15.18,6.55,2.46,13.06,5.05,19.47,7.85,9.6,4.21,18.76,9.34,28.34,13.6,4.77,2.12,9.64,4.02,14.66,5.46,1.86,.53,2.65-2.36,.8-2.89h0Z"/><path d="M22.25,112.82c-2.18,1.5-2.86,4.03-2.2,6.54,.7,2.66,2.65,4.72,5.23,5.63,3.46,1.22,7.22,.44,10.72-.12,1.78-.29,3.59-.36,5.39-.31,9.56,.25,19.09,3.16,28.11,6.09,10.48,3.4,20.74,7.46,30.91,11.69,9.13,3.8,18.26,7.64,27.33,11.58,15.57,6.77,31.17,13.96,47.96,17.13,1.89,.36,2.7-2.54,.8-2.89-14.42-2.72-27.98-8.42-41.37-14.26-9.48-4.14-19.01-8.17-28.53-12.19s-19.38-8.05-29.26-11.56c-9.34-3.31-18.93-6.41-28.76-7.9-4.29-.65-8.63-1-12.94-.35-3.3,.5-8.01,1.79-10.92-.54-1.53-1.23-3.01-4.53-.95-5.95,1.58-1.09,.08-3.69-1.51-2.59h0Z"/><path d="M38.21,121.57c-2.79,.48-5.38,3.26-5.43,6.14s2.3,5.31,4.82,6.42c3.1,1.36,6.51,.94,9.8,.92,2.13-.02,4.26,.13,6.37,.39,9.57,1.17,18.86,4.55,27.74,8.17,20.63,8.41,40.08,19.48,60.87,27.54,9.59,3.72,19.8,7.05,30.18,7.15,1.93,.02,1.93-2.98,0-3-8.64-.08-17.14-2.58-25.21-5.48-9.81-3.52-19.29-7.93-28.7-12.4s-19.54-9.46-29.49-13.8c-8.96-3.92-18.14-7.6-27.69-9.81-4.52-1.04-9.17-1.76-13.82-1.75-3.25,0-7.07,.7-9.93-1.26-1.1-.76-2.19-2.08-1.85-3.5s1.73-2.57,3.15-2.82c1.9-.33,1.09-3.22-.8-2.89h0Z"/><path d="M53.56,132.63c-2.08,.67-4.18,1.39-5.91,2.77-1.6,1.27-2.63,3.14-2.78,5.19s.97,4.01,2.79,5.01,4.18,1.29,6.28,1.58c2.65,.36,5.31,.57,7.97,.79,.81,.07,1.5-.74,1.5-1.5,0-.87-.69-1.43-1.5-1.5-2.44-.2-4.88-.38-7.3-.7-1.17-.16-2.34-.35-3.5-.61-.87-.2-1.82-.43-2.51-1.03-1.24-1.07-.76-3.03,.17-4.17,1.36-1.65,3.62-2.31,5.58-2.93,1.83-.59,1.05-3.48-.8-2.89h0Z"/><path d="M68.07,147.05c-2.84,.07-6.01,.47-8.42,2.08-2.54,1.7-3.68,4.75-2.37,7.62,1.59,3.46,5.33,4.67,8.81,5.14,3.95,.54,7.7,1.24,11.41,2.74,14.99,6.05,25.3,19.49,39.52,26.85,7.86,4.07,16.96,6.29,25.71,4.06,1.87-.48,1.08-3.37-.8-2.89-14.9,3.79-28.52-6.1-39.45-14.91-5.52-4.45-11.01-9.01-17.16-12.57-3.04-1.76-6.25-3.28-9.59-4.37-1.6-.53-3.24-.95-4.9-1.26-1.89-.35-3.82-.45-5.71-.83s-3.62-1.01-4.73-2.56c-.8-1.11-.95-2.57-.07-3.68,1.68-2.11,5.28-2.38,7.76-2.43,1.93-.04,1.93-3.04,0-3h0Z"/><path d="M76.62,161.12c-2.79-.52-5.65,.32-7.31,2.72s-1.31,5.53,.19,7.91c1.8,2.85,4.74,4.37,7.75,5.63s5.82,2.62,8.47,4.52c5.29,3.8,9.73,8.65,15.07,12.4s11.26,6.5,17.48,8.26c7.03,1.99,14.43,2.66,21.7,1.9,1.9-.2,1.92-3.2,0-3-11.58,1.2-23.39-1.28-33.48-7.09-5.1-2.94-9.37-6.83-13.79-10.67-2.17-1.89-4.41-3.74-6.82-5.32s-5.15-2.74-7.87-3.9-5.95-2.82-6.69-5.97c-.67-2.82,1.76-5,4.51-4.49,1.89,.35,2.7-2.54,.8-2.89h0Z"/><path d="M186.1,143.62c1.93,0,1.93-3,0-3s-1.93,3,0,3h0Z"/><path d="M203.94,156.06c1.93,0,1.93-3,0-3s-1.93,3,0,3h0Z"/><path d="M235.48,154.4c1.93,0,1.93-3,0-3s-1.93,3,0,3h0Z"/><path d="M221.37,185.11c1.93,0,1.93-3,0-3s-1.93,3,0,3h0Z"/><path d="M192.74,182.62c1.93,0,1.93-3,0-3s-1.93,3,0,3h0Z"/><path d="M214.32,198.8c1.93,0,1.93-3,0-3s-1.93,3,0,3h0Z"/><path d="M153.32,197.97c1.93,0,1.93-3,0-3s-1.93,3,0,3h0Z"/><path d="M173.24,189.67c1.93,0,1.93-3,0-3s-1.93,3,0,3h0Z"/><path d="M222.2,214.57c1.93,0,1.93-3,0-3s-1.93,3,0,3h0Z"/><path d="M186.1,122.45c1.93,0,1.93-3,0-3s-1.93,3,0,3h0Z"/><path d="M169.5,133.24c1.93,0,1.93-3,0-3s-1.93,3,0,3h0Z"/><path d="M167.11,83.69c3.34-4.74,8.81-8.05,14.6-8.65,6.11-.64,12.28,1.55,16.68,5.83,1.39,1.35,3.51-.77,2.12-2.12-5.02-4.88-12.19-7.49-19.18-6.66s-12.88,4.52-16.81,10.09c-1.11,1.58,1.49,3.08,2.59,1.51h0Z"/><path d="M171.86,71.84c.21-.48,.45-.93,.74-1.37,.07-.1,.14-.2,.21-.3,.27-.37-.17,.18,.13-.16,.16-.18,.32-.37,.5-.54s.35-.34,.54-.5c0,0,.36-.29,.16-.14,.1-.08,.2-.15,.3-.22,.43-.3,.88-.56,1.34-.79,1.59-.77,3.57-.99,5.33-.5,.78,.22,1.63-.27,1.85-1.05s-.26-1.63-1.05-1.85c-4.87-1.37-10.6,1.21-12.63,5.9-.32,.74-.22,1.61,.54,2.05,.63,.37,1.73,.21,2.05-.54h0Z"/><path d="M116.5,247.51c.27,1.92,1.31,3.75,2.71,5.09,1.52,1.45,3.41,2.32,5.49,2.55,.78,.09,1.53-.75,1.5-1.5-.04-.89-.66-1.41-1.5-1.5-.31-.03,.36,.06-.03,0-.09-.02-.19-.03-.28-.05-.2-.04-.4-.09-.6-.15-.18-.06-.36-.12-.54-.19-.3-.11,.27,.13,0,0-.09-.04-.17-.08-.26-.12-.37-.18-.73-.4-1.06-.63-.07-.05-.32-.26,0,0-.07-.06-.15-.12-.22-.18-.16-.13-.31-.27-.46-.42s-.29-.3-.43-.45c-.06-.07-.12-.15-.18-.22-.19-.22,.18,.26,0,0-.23-.32-.45-.65-.63-1.01-.04-.08-.09-.17-.13-.25-.02-.04-.04-.09-.06-.13-.07-.15-.05-.12,.04,.1,.02-.14-.15-.39-.2-.54-.13-.39-.22-.8-.28-1.21-.05-.35-.4-.73-.69-.9-.32-.19-.8-.27-1.16-.15-.85,.28-1.17,1.01-1.05,1.85h0Z"/><path d="M106.98,241.42c-1.49,5.42,.45,11.02,3.89,15.28s8.79,7.31,13.8,9.88c1.71,.88,3.23-1.71,1.51-2.59-4.48-2.3-9.04-4.75-12.46-8.54-3.18-3.53-5.15-8.5-3.85-13.22,.51-1.86-2.38-2.66-2.89-.8h0Z"/><path d="M15.79,109.18c18.1-3.99,37.4-2.15,54.4,5.27,1.75,.76,3.28-1.82,1.51-2.59-13.81-6.03-29.01-8.66-44.05-7.47-4.26,.34-8.49,.97-12.66,1.89-1.88,.42-1.09,3.31,.8,2.89h0Z"/><path d="M14.78,110.83c18.53-2.2,37.36-.89,55.4,3.9,1.87,.5,2.66-2.4,.8-2.89-18.28-4.85-37.42-6.23-56.2-4.01-1.89,.22-1.92,3.23,0,3h0Z"/><path d="M23.03,118.45c9.34-.11,18.64,.9,27.75,3.02,1.88,.44,2.68-2.45,.8-2.89-9.35-2.18-18.94-3.23-28.54-3.12-1.93,.02-1.93,3.02,0,3h0Z"/><path d="M22.98,120.78c7.18-.77,14.4-.94,21.61-.52,1.93,.11,1.92-2.89,0-3-7.21-.43-14.43-.25-21.61,.52-.81,.09-1.49,.63-1.5,1.5,0,.74,.7,1.59,1.5,1.5h0Z"/><path d="M36.31,127.93c7.21-.16,14.34,.89,21.2,3.11,1.84,.59,2.63-2.3,.8-2.89-7.09-2.29-14.55-3.38-22-3.22-1.93,.04-1.93,3.04,0,3h0Z"/><path d="M35.06,129.7l16.6-.05c1.93,0,1.93-3.01,0-3l-16.6,.05c-1.93,0-1.93,3.01,0,3h0Z"/><path d="M48.77,138.6c7.73,2.13,15.46,4.25,23.19,6.38,1.86,.51,2.66-2.38,.8-2.89l-23.19-6.38c-1.86-.51-2.66,2.38-.8,2.89h0Z"/><path d="M48.36,142.08c7.36,.46,14.69,1.26,21.97,2.43,1.89,.3,2.7-2.59,.8-2.89-7.55-1.21-15.14-2.06-22.77-2.53-1.93-.12-1.92,2.88,0,3h0Z"/><path d="M49.61,140.16l2.5,.38c.2,.06,.4,.07,.6,.03,.2,0,.39-.07,.56-.18,.31-.18,.61-.54,.69-.9,.09-.38,.07-.81-.15-1.16-.2-.31-.52-.63-.9-.69l-2.5-.38c-.2-.06-.4-.07-.6-.03-.2,0-.39,.07-.56,.18-.31,.18-.61,.54-.69,.9-.09,.38-.07,.81,.15,1.16,.2,.31,.52,.63,.9,.69h0Z"/><path d="M60.4,153.07c7.13,1.16,13.98,3.58,20.24,7.19,1.68,.97,3.19-1.63,1.51-2.59-6.47-3.73-13.58-6.29-20.96-7.49-1.89-.31-2.7,2.58-.8,2.89h0Z"/><path d="M59.52,155.96c5.9,.49,11.74,1.46,17.49,2.86,1.87,.46,2.67-2.43,.8-2.89-6.01-1.47-12.13-2.45-18.29-2.97-1.92-.16-1.91,2.84,0,3h0Z"/><path d="M70.9,166.09c6.68,3.9,13.36,7.8,20.04,11.7,1.67,.98,3.18-1.62,1.51-2.59-6.68-3.9-13.36-7.8-20.04-11.7-1.67-.98-3.18,1.62-1.51,2.59h0Z"/><path d="M70.41,169.12c5.68,2.06,11.35,4.11,17.03,6.17,.76,.28,1.64-.31,1.85-1.05,.23-.83-.28-1.57-1.05-1.85-5.68-2.06-11.35-4.11-17.03-6.17-.76-.28-1.64,.31-1.85,1.05-.23,.83,.28,1.57,1.05,1.85h0Z"/></svg>