<?xml version="1.0" encoding="UTF-8"?><svg id="Layer_1" xmlns="http://www.w3.org/2000/svg" viewBox="0 0 160 160"><defs><style>.cls-1{letter-spacing:-.16em;}.cls-1,.cls-2,.cls-3,.cls-4,.cls-5,.cls-6,.cls-7,.cls-8,.cls-9,.cls-10{font-family:GoodDogNew, 'GoodDog New';}.cls-1,.cls-2,.cls-4,.cls-5,.cls-6,.cls-7,.cls-11,.cls-8,.cls-9,.cls-10{fill:#231f20;}.cls-1,.cls-7,.cls-11{font-size:59.58px;}.cls-2{letter-spacing:-.17em;}.cls-2,.cls-4,.cls-8,.cls-9{font-size:37px;}.cls-4{letter-spacing:-.15em;}.cls-5{font-size:52.12px;}.cls-6{font-size:65.15px;letter-spacing:-1em;}.cls-7{letter-spacing:.14em;}.cls-11{letter-spacing:-.12em;}.cls-8{letter-spacing:0em;}.cls-9{letter-spacing:-.03em;}.cls-10{font-size:60px;letter-spacing:-.2em;}.cls-12{fill:#ee4694;font-size:63px;letter-spacing:-.02em;}</style></defs><text class="cls-10" transform="translate(31.6 59.07) rotate(-14.03) scale(.99 1)"><tspan x="0" y="0">W</tspan></text><text class="cls-4" transform="translate(70.33 54.51) rotate(-3.45) scale(.99 1)"><tspan x="0" y="0">h</tspan></text><text class="cls-2" transform="translate(88.95 63.85) rotate(-14.03) scale(.99 1)"><tspan x="0" y="0">a</tspan></text><text class="cls-9" transform="translate(104.99 66.47) rotate(-10.91) scale(.99 1)"><tspan x="0" y="0">c</tspan></text><text class="cls-8" transform="translate(119.96 73.72) rotate(-.05) scale(.99 1)"><tspan x="0" y="0">k</tspan></text><text class="cls-6" transform="translate(135.12 119.99) scale(.99 1)"><tspan x="0" y="0"> </tspan></text><text class="cls-5" transform="translate(72.84 96.25) scale(.99 1)"><tspan x="0" y="0">a</tspan></text><text class="cls-3" transform="translate(26.49 131.18) rotate(8.2) scale(.99 1)"><tspan class="cls-12" x="0" y="0">M</tspan><tspan class="cls-11" x="44.63" y="-4.86">o</tspan></text><text class="cls-1" transform="translate(106.73 135.76) rotate(-16.04) scale(.99 1)"><tspan x="0" y="0">l</tspan></text><text class="cls-7" transform="translate(110.29 128.49) rotate(8.2) scale(.99 1)"><tspan x="0" y="0">e</tspan></text></svg>